<?xml version="1.0" encoding="UTF-8" standalone="no"?>
<!-- Created with Inkscape (http://www.inkscape.org/) -->

<svg
   xmlns:dc="http://purl.org/dc/elements/1.1/"
   xmlns:cc="http://creativecommons.org/ns#"
   xmlns:rdf="http://www.w3.org/1999/02/22-rdf-syntax-ns#"
   xmlns:svg="http://www.w3.org/2000/svg"
   xmlns="http://www.w3.org/2000/svg"
   version="1.1"
   width="2970.5718"
   height="376.39639"
   id="svg2">
  <defs
     id="defs4" />
  <metadata
     id="metadata7">
    <rdf:RDF>
      <cc:Work
         rdf:about="">
        <dc:format>image/svg+xml</dc:format>
        <dc:type
           rdf:resource="http://purl.org/dc/dcmitype/StillImage" />
        <dc:title></dc:title>
      </cc:Work>
    </rdf:RDF>
  </metadata>
  <g
     transform="translate(4872.5757,-308.57416)"
     id="layer1">
    <g
       id="text3002"
       style="font-size:518.45233154px;font-style:normal;font-weight:normal;line-height:125%;letter-spacing:0px;word-spacing:0px;fill:#000000;fill-opacity:1;stroke:none;font-family:Sans">
      <path
         d="m -4872.5757,486.92176 c 0,-14.17082 0.6912,-26.61366 2.0738,-37.32856 1.7281,-10.71445 3.4563,-20.04658 5.1845,-27.99643 3.1107,-14.51639 7.6039,-28.16896 13.4798,-40.95773 5.8757,-13.13382 14.171,-24.19412 24.8857,-33.18095 1.7281,-1.38221 4.4932,-3.45602 8.2952,-6.22143 4.1476,-2.76474 8.2952,-5.52982 12.4429,-8.29524 4.1475,-2.76473 7.7767,-5.18417 10.8875,-7.25833 3.4562,-2.41909 5.53,-3.80163 6.2214,-4.14762 3.4563,-2.07345 7.9495,-3.80162 13.4798,-5.18452 5.53,-1.72781 11.233,-3.11035 17.1089,-4.14762 5.8757,-1.03654 11.7514,-1.90063 17.6274,-2.59226 6.2212,-0.6909 11.9242,-1.03654 17.1089,-1.03691 1.3824,3.7e-4 3.1105,3.7e-4 5.1845,0 2.4193,3.7e-4 4.8387,0.17319 7.2583,0.51845 2.765,3.7e-4 5.1844,0.17319 7.2584,0.51846 2.4192,0.346 4.1474,0.86445 5.1845,1.55535 4.1474,2.41981 6.5669,5.35771 7.2583,8.81369 0.6911,3.45671 1.0368,6.04897 1.0369,7.77679 -1e-4,1.38289 -0.173,2.76543 -0.5184,4.14762 -2e-4,1.38288 -2e-4,2.76542 0,4.14761 -0.3458,3.45669 -0.5187,6.91304 -0.5185,10.36905 -2e-4,3.11104 -2e-4,6.39457 0,9.8506 -2e-4,1.38286 -2e-4,3.97512 0,7.77678 -2e-4,3.8023 -2e-4,7.94991 0,12.44286 0.3455,4.14791 0.5183,8.29553 0.5185,12.44285 -2e-4,3.80227 -2e-4,6.56735 0,8.29524 -2e-4,5.87607 -1.9012,10.36932 -5.703,13.47976 -3.4565,2.76535 -7.2585,4.14788 -11.4059,4.14762 -2.074,2.6e-4 -4.4935,-0.34537 -7.2584,-1.03691 -1.7283,-0.34536 -3.4565,-0.691 -5.1845,-1.0369 -1.3827,-0.34537 -2.938,-0.51819 -4.6661,-0.51845 -1.037,2.6e-4 -2.938,0.3459 -5.7029,1.0369 -2.4196,0.69154 -5.1847,1.72844 -8.2953,3.11072 -2.7652,1.03716 -5.5303,2.24688 -8.2952,3.62916 -2.7652,1.03717 -4.839,2.07407 -6.2214,3.11072 -4.8391,4.14787 -8.641,9.5052 -11.406,16.07202 -2.7652,6.22166 -4.839,12.44308 -6.2214,18.66428 -1.037,6.56728 -1.9011,14.34406 -2.5923,23.33036 -0.6914,8.64106 -1.037,15.20812 -1.0369,19.70119 -10e-5,2.07398 -10e-5,5.53033 0,10.36904 0.3455,4.83905 1.0368,10.36921 2.0738,16.59048 1.0368,5.87594 2.5922,11.92454 4.6661,18.14583 2.4193,5.87592 5.7028,11.23325 9.8506,16.07202 2.0737,2.76519 4.8387,5.53027 8.2952,8.29524 3.8019,2.41955 7.6039,4.66617 11.406,6.73988 3.8018,1.72827 7.431,3.28363 10.8875,4.66607 3.4562,1.037 6.3941,1.55545 8.8137,1.55536 1.0367,9e-5 3.2833,-0.34554 6.7398,-1.03691 3.4562,-0.69117 5.8757,-1.0368 7.2584,-1.0369 0.6911,10e-5 1.3823,0.17291 2.0738,0.51845 1.0367,10e-5 2.4192,0.51855 4.1476,1.55536 3.8018,2.41953 5.8756,5.01179 6.2214,7.77678 0.6911,2.41953 1.0367,5.53024 1.0369,9.33214 -2e-4,1.03699 -0.173,2.76516 -0.5184,5.18453 -2e-4,2.07388 -2e-4,4.49332 0,7.25833 -2e-4,2.76514 -0.173,5.3574 -0.5185,7.77678 -2e-4,2.41951 -2e-4,4.14768 0,5.18453 -2e-4,4.4933 -2e-4,8.81373 0,12.96131 -2e-4,4.14765 0.1727,8.46808 0.5185,12.9613 -2e-4,1.7282 -2e-4,3.28356 0,4.66608 0.3454,1.38256 0.5182,2.93791 0.5184,4.66607 -2e-4,14.51667 -6.74,21.77499 -20.2196,21.77499 -3.1109,0 -6.2216,-0.17282 -9.3321,-0.51845 -2.7653,0 -5.7032,-0.17282 -8.8137,-0.51845 -5.876,0 -10.542,-0.17282 -13.9983,-0.51845 -3.1108,0 -5.7031,0 -7.7767,0 -2.074,0 -3.8021,-0.17282 -5.1846,-0.51845 -1.3826,-10e-6 -2.7652,-0.17282 -4.1476,-0.51846 -2.4195,-0.69127 -4.839,-1.38254 -7.2583,-2.07381 -2.0739,-0.69126 -4.3206,-1.38253 -6.7399,-2.07381 -3.4564,-1.0369 -6.2215,-1.72817 -8.2952,-2.07381 -2.0739,-0.69126 -3.9749,-1.20971 -5.703,-1.55535 -1.3826,-0.69126 -2.7652,-1.38253 -4.1476,-2.07381 -1.3826,-1.0369 -3.1108,-2.0738 -5.1845,-3.11072 -8.641,-5.1845 -15.5537,-10.54184 -20.7381,-16.07202 -5.1846,-5.53012 -10.3691,-11.57873 -15.5536,-18.14583 -2.4195,-3.11066 -4.4933,-5.53011 -6.2214,-7.25833 -1.3826,-2.07376 -2.5923,-3.80193 -3.6292,-5.18453 -1.0369,-1.72811 -2.0738,-3.28346 -3.1107,-4.66607 -0.6913,-1.72811 -1.5554,-3.6291 -2.5923,-5.70297 -4.1476,-9.33207 -7.4312,-16.93603 -9.8506,-22.8119 -2.4194,-6.22133 -4.3204,-11.9243 -5.703,-17.10893 -1.3825,-5.53005 -2.4194,-11.23302 -3.1107,-17.10893 -0.3456,-6.22129 -0.6912,-13.99807 -1.0369,-23.33035 -0.6912,-4.4931 -1.2097,-8.81353 -1.5553,-12.96131 0,-4.49309 -0.1728,-8.81352 -0.5185,-12.96131 -0.3456,-2.7649 -0.5184,-5.52998 -0.5184,-8.29524 0,-3.11052 0,-6.04842 0,-8.81369"
         id="path3032"
         style="font-variant:normal;font-stretch:normal;letter-spacing:-7.8599987px;font-family:Block Berthold;-inkscape-font-specification:Block Berthold" />
      <path
         d="m -4659.8545,606.68425 c 0,-1.03683 0,-2.93782 0,-5.70297 0.3456,-2.765 0.5184,-5.7029 0.5184,-8.81369 0,-3.45626 0,-6.56697 0,-9.33215 0.3457,-3.11061 0.5185,-5.18442 0.5185,-6.22142 0,-2.07371 -0.1728,-5.87569 -0.5185,-11.40595 0,-5.87568 -0.1728,-12.0971 -0.5184,-18.66429 -0.3457,-6.56692 -0.6913,-12.78834 -1.0369,-18.66428 0,-5.87564 0,-10.02325 0,-12.44286 0,-1.72801 0,-4.83872 0,-9.33214 0.3456,-4.83871 0.6912,-9.85041 1.0369,-15.03512 0.3456,-5.52996 0.5184,-10.54166 0.5184,-15.03512 0.3457,-4.83868 0.5185,-8.29502 0.5185,-10.36904 0,-2.41923 -0.1728,-5.70276 -0.5185,-9.8506 0,-4.14739 -0.1728,-8.12219 -0.5184,-11.9244 -0.6913,-10.02317 -1.0369,-19.52812 -1.0369,-28.51488 0,-9.33187 0,-15.03484 0,-17.10893 0,-1.38225 0,-3.62888 0,-6.73988 0.3456,-3.45605 0.5184,-6.9124 0.5184,-10.36904 0,-3.80168 0,-7.25803 0,-10.36905 0.3457,-3.45604 0.5185,-5.87548 0.5185,-7.25833 0,-1.03659 -0.1728,-3.1104 -0.5185,-6.22143 0,-3.11039 -0.1728,-6.39392 -0.5184,-9.85059 0,-3.80165 -0.1728,-7.258 -0.5185,-10.36905 0,-3.11037 0,-5.35699 0,-6.73988 0,-0.69092 0,-1.90064 0,-3.62917 0.3457,-2.07345 1.0369,-3.97444 2.0738,-5.70297 1.3826,-2.07345 3.1107,-3.80162 5.1846,-5.18453 2.4194,-1.38217 5.7029,-2.07344 9.8506,-2.07381 1.0368,3.7e-4 2.9378,3.7e-4 5.7029,0 2.7651,3.7e-4 5.703,0.17319 8.8137,0.51846 3.1107,3.6e-4 6.0486,0.17318 8.8137,0.51845 2.765,3.6e-4 4.666,3.6e-4 5.703,0 2.765,3.6e-4 5.3573,3.6e-4 7.7768,0 2.4193,3.6e-4 5.0116,-0.17245 7.7768,-0.51845 5.1844,-0.69091 8.4679,-1.03654 9.8506,-1.03691 1.728,3.7e-4 3.1106,3.7e-4 4.1476,0 8.2951,3.7e-4 13.4796,2.07418 15.5535,6.22143 2.0737,4.14797 3.1106,8.12277 3.1108,11.9244 -2e-4,1.03726 -0.173,2.93825 -0.5185,5.70298 -0.3457,2.76542 -0.6914,5.70331 -1.0369,8.81369 -1e-4,2.76541 -0.1729,5.53048 -0.5184,8.29524 -0.3458,2.7654 -0.5186,4.66639 -0.5185,5.70297 -1e-4,1.03722 -1e-4,3.11103 0,6.22143 0.3455,3.11102 0.5183,6.56737 0.5185,10.36905 -2e-4,3.45664 -2e-4,6.74017 0,9.85059 0.3455,3.111 0.5183,5.35763 0.5184,6.73988 -1e-4,1.38283 -1e-4,3.80227 0,7.25833 -1e-4,3.45663 -0.1729,7.08579 -0.5184,10.8875 -2e-4,3.80225 -2e-4,7.60423 0,11.40595 -2e-4,3.45661 -2e-4,5.87605 0,7.25834 -2e-4,8.98674 2.4193,14.5169 7.2583,16.59047 4.8388,1.72841 10.8874,2.59249 18.1458,2.59226 4.4931,2.3e-4 8.8136,-0.69104 12.9613,-2.07381 4.4931,-1.3823 7.2582,-5.52992 8.2953,-12.44285 0.6911,-2.76483 1.2095,-7.08527 1.5553,-12.96131 0.3455,-6.22116 0.5183,-10.71441 0.5185,-13.47976 -2e-4,-1.03663 -0.173,-2.93762 -0.5185,-5.70298 -10e-5,-3.11043 -0.173,-6.22114 -0.5184,-9.33214 -2e-4,-3.45606 -0.173,-6.73959 -0.5185,-9.85059 -10e-5,-3.11042 -10e-5,-5.35704 0,-6.73988 -10e-5,-3.45605 -10e-5,-6.73957 0,-9.8506 0.3455,-3.45603 0.5183,-6.91238 0.5185,-10.36904 l 0,-3.62917 c -2e-4,-0.69094 -0.173,-2.07348 -0.5185,-4.14762 -10e-5,-2.07348 -0.173,-4.3201 -0.5184,-6.73988 -2e-4,-2.4191 -0.173,-4.66573 -0.5185,-6.73988 -10e-5,-2.07346 -10e-5,-3.62882 0,-4.66607 -10e-5,-3.80163 1.2096,-7.60361 3.6292,-11.40595 2.4193,-3.80162 7.431,-5.70261 15.0351,-5.70298 3.8018,3.7e-4 6.5669,0.17319 8.2952,0.51845 3.8018,0.346 7.6038,0.69164 11.406,1.03691 3.8018,3.6e-4 7.6037,3.6e-4 11.4059,0 1.0367,3.6e-4 2.5921,3.6e-4 4.6661,0 2.4192,-0.34527 5.0115,-0.69091 7.7768,-1.03691 2.7648,3.7e-4 5.3571,3.7e-4 7.7768,0 2.4192,-0.34526 3.9745,-0.51808 4.666,-0.51845 7.6038,3.7e-4 12.7883,1.72854 15.5536,5.18453 2.7648,3.4567 4.1474,5.35769 4.1476,5.70297 0.6911,1.03726 1.0367,2.4198 1.0369,4.14762 -2e-4,1.72852 -2e-4,4.66642 0,8.81369 -2e-4,2.76542 -0.173,5.70331 -0.5184,8.81369 -3e-4,2.76541 -0.1731,5.7033 -0.5185,8.81369 -2e-4,2.07413 -0.173,4.83921 -0.5184,8.29524 -3e-4,3.45666 -3e-4,7.08582 0,10.88749 -3e-4,3.45666 -0.1731,6.74018 -0.5185,9.8506 -2e-4,3.11101 -2e-4,5.35763 0,6.73988 -2e-4,1.03719 -2e-4,3.28382 0,6.73988 0.3454,3.45663 0.5182,5.87607 0.5185,7.25833 -3e-4,1.03718 -0.1731,2.76535 -0.5185,5.18453 -2e-4,2.41971 -0.173,5.18478 -0.5184,8.29523 -3e-4,2.76534 -0.1731,5.53042 -0.5185,8.29524 -2e-4,2.4197 -2e-4,4.14787 0,5.18452 -2e-4,1.72842 -2e-4,4.66632 0,8.81369 0.3454,4.14786 0.5182,8.64111 0.5185,13.47976 -3e-4,4.83911 -3e-4,9.50518 0,13.99822 0.3454,4.14782 0.5182,7.08572 0.5184,8.81369 -2e-4,2.07401 -0.173,5.70317 -0.5184,10.8875 -3e-4,4.83907 -3e-4,10.19641 0,16.07202 -3e-4,5.87596 -0.1731,11.40611 -0.5185,16.59047 -2e-4,5.18468 -2e-4,8.81384 0,10.8875 -2e-4,4.14776 -2e-4,8.29538 0,12.44286 -2e-4,4.14775 0.1726,8.12254 0.5185,11.9244 0.3454,5.18464 0.691,10.36916 1.0369,15.55357 0.3454,4.83899 0.691,9.85069 1.0369,15.03512 l 0,9.33214 c -3e-4,1.03699 -3e-4,3.1108 0,6.22143 -3e-4,3.11079 -0.1731,6.39432 -0.5185,9.85059 -2e-4,3.11078 -2e-4,6.22149 0,9.33214 -2e-4,3.11077 -2e-4,5.3574 0,6.73988 l 0,8.29524 c -2e-4,0.69131 0.1726,2.07385 0.5185,4.14762 0.3454,2.07385 0.5182,4.32047 0.5184,6.73988 0.3454,2.41948 0.5182,4.6661 0.5185,6.73988 0.3454,2.07383 0.5182,3.62919 0.5184,4.66607 -2e-4,4.49327 -1.2099,9.15934 -3.6291,13.99822 -2.0741,4.83889 -6.7401,7.25833 -13.9982,7.25833 -1.0372,0 -2.2469,0 -3.6292,0 -1.0371,-0.34564 -2.074,-0.51845 -3.1107,-0.51845 -2.7653,-0.34564 -5.5304,-0.51846 -8.2953,-0.51846 -2.7653,-0.34563 -5.5303,-0.51845 -8.2952,-0.51845 -1.3827,0 -3.975,0.17282 -7.7768,0.51845 -3.4565,0 -7.0857,0.17282 -10.8875,0.51846 -3.8021,0.34563 -7.4313,0.51845 -10.8875,0.51845 -3.4565,0.34563 -5.7031,0.51845 -6.7399,0.51845 -3.1108,0 -6.74,-1.0369 -10.8875,-3.11071 -4.1477,-2.41944 -6.2215,-7.60396 -6.2214,-15.55357 -10e-5,-0.69125 -10e-5,-1.90098 0,-3.62917 0.3455,-2.07379 0.5183,-4.14759 0.5185,-6.22143 0.3454,-2.41941 0.6911,-4.66604 1.0369,-6.73988 0.3455,-2.07377 0.5183,-3.62913 0.5184,-4.66607 -1e-4,-1.03686 -0.1729,-3.45631 -0.5184,-7.25833 -2e-4,-3.80194 -2e-4,-6.39419 0,-7.77679 -2e-4,-4.14756 -2e-4,-9.50489 0,-16.07202 -2e-4,-6.56698 0.1726,-11.7515 0.5184,-15.55357 -1e-4,-0.69118 -1e-4,-2.07372 0,-4.14762 0.3455,-2.07371 0.5183,-4.14752 0.5185,-6.22143 -2e-4,-2.41934 -2e-4,-4.49315 0,-6.22142 0.3455,-2.07371 0.5183,-3.62906 0.5184,-4.66607 -1e-4,-6.22132 -0.6914,-12.26992 -2.0738,-18.14584 -1.3827,-5.87566 -5.0118,-9.85046 -10.8875,-11.9244 -1.7283,-0.69113 -4.6662,-1.03677 -8.8137,-1.0369 -4.1477,1.3e-4 -7.0856,1.3e-4 -8.8137,0 -3.1108,1.3e-4 -6.74,1.03704 -10.8875,3.11071 -4.1477,1.72831 -6.5671,6.22156 -7.2583,13.47976 -0.6914,6.91281 -1.2098,12.27015 -1.5553,16.07202 -0.3458,3.45645 -0.5186,7.25843 -0.5185,11.40595 -1e-4,1.037 -1e-4,3.11081 0,6.22143 0.3455,2.76517 0.5183,5.87588 0.5185,9.33214 -2e-4,3.45643 -2e-4,6.73996 0,9.8506 0.3455,2.76514 0.5183,4.66613 0.5184,5.70297 -1e-4,1.03697 -0.1729,3.11078 -0.5184,6.22143 -2e-4,2.76514 -2e-4,5.87585 0,9.33214 -2e-4,3.4564 -0.173,6.73992 -0.5185,9.8506 -1e-4,2.76511 -1e-4,4.83892 0,6.22143 -1e-4,1.03693 0.1727,3.80201 0.5185,8.29523 0.3455,4.14764 0.5183,7.08553 0.5184,8.81369 -1e-4,4.8389 -1.7283,8.64088 -5.1845,11.40595 -3.4565,2.76508 -6.9128,4.14762 -10.3691,4.14762 -2.4195,0 -4.3205,-0.17282 -5.7029,-0.51845 -3.4565,-0.69127 -6.9128,-1.0369 -10.3691,-1.0369 -3.1108,0 -6.5671,0 -10.369,0 l -7.7768,0 c -0.6913,0 -2.2467,0.17281 -4.6661,0.51845 -2.4195,0 -5.0117,0 -7.7768,0 -2.7651,0.34563 -5.3574,0.51845 -7.7768,0.51845 -2.4194,0.34563 -4.1476,0.51845 -5.1845,0.51845 -4.8389,0 -8.6409,-0.86408 -11.4059,-2.59226 -2.7651,-1.72817 -4.8389,-3.62916 -6.2215,-5.70297 -1.0369,-2.41944 -1.7282,-4.83888 -2.0738,-7.25834 0,-2.41942 0,-4.32041 0,-5.70297 0,-1.38252 0.1728,-3.80196 0.5185,-7.25834 0.3456,-3.45631 0.5184,-7.08548 0.5184,-10.88749 0.3457,-4.14758 0.6913,-7.94956 1.0369,-11.40596 0.3457,-3.80193 0.5185,-6.567 0.5185,-8.29523 l 0,-14.51667"
         id="path3034"
         style="font-variant:normal;font-stretch:normal;letter-spacing:-7.8599987px;font-family:Block Berthold;-inkscape-font-specification:Block Berthold" />
      <path
         d="m -4392.6958,524.76878 c 1.0369,-7.94944 2.2466,-15.72621 3.6292,-23.33035 1.7281,-7.60378 3.1106,-15.20774 4.1476,-22.8119 0.6912,-4.83869 1.2097,-9.33194 1.5553,-13.47976 0.6913,-4.49304 1.3825,-9.15911 2.0738,-13.99822 1.0369,-6.56683 2.2466,-12.96106 3.6292,-19.18273 1.7281,-6.56681 3.2835,-13.30669 4.6661,-20.21964 2.0737,-10.02314 3.6291,-20.21936 4.6661,-30.58869 1.0368,-10.36874 2.5922,-20.56496 4.666,-30.58869 2.0738,-8.98617 3.9748,-16.07168 5.703,-21.25655 2.0737,-5.18416 4.3204,-8.98614 6.7399,-11.40595 2.765,-2.76471 5.8757,-4.49288 9.3321,-5.18452 3.4563,-0.6909 7.9495,-1.03654 13.4798,-1.0369 2.765,3.6e-4 5.53,0.17318 8.2952,0.51845 3.1106,3.6e-4 6.0485,0.17318 8.8137,0.51845 5.1844,0.346 10.3689,0.69164 15.5536,1.0369 5.1844,3.7e-4 10.3689,3.7e-4 15.5535,0 6.567,3.7e-4 12.9612,3.7e-4 19.1828,0 6.5669,-0.34526 13.1339,-0.6909 19.7012,-1.0369 10.0232,3.7e-4 16.7631,1.55572 20.2196,4.66607 3.8018,3.11107 6.5669,9.50531 8.2952,19.18274 0.3455,1.72851 0.8639,4.49359 1.5554,8.29523 1.0367,3.80232 1.9008,7.94993 2.5923,12.44286 1.0367,4.14794 1.9008,8.12273 2.5922,11.9244 0.6911,3.45666 1.0367,5.8761 1.0369,7.25834 0.3455,1.72847 0.6911,4.83918 1.0369,9.33214 0.6911,4.14791 1.3824,8.81397 2.0738,13.99821 0.6911,4.83916 1.2096,9.50523 1.5554,13.99821 0.6911,4.49352 1.2095,7.60423 1.5554,9.33215 0.3454,3.11096 1.2095,8.64112 2.5922,16.59047 1.728,7.94983 3.4561,16.5907 5.1845,25.92262 2.0736,8.98671 3.8018,17.62757 5.1846,25.92261 1.7279,7.94979 2.9376,13.65276 3.6291,17.10893 0.6911,3.45652 1.2095,6.39441 1.5554,8.81369 0.3454,2.4196 0.691,5.18468 1.0369,8.29524 0.3454,2.76523 0.691,6.04876 1.0369,9.85059 0.3454,3.80213 0.8639,8.98664 1.5554,15.55357 1.0366,11.06044 2.4192,21.94792 4.1476,32.6625 2.0735,10.71477 4.1473,21.60225 6.2214,32.6625 1.0367,4.14767 1.9007,8.46811 2.5923,12.9613 1.0366,4.14767 2.0735,8.29528 3.1107,12.44286 1.0366,5.18456 1.5551,10.36907 1.5553,15.55357 -2e-4,5.87581 -1.5556,11.06033 -4.666,15.55357 -2.7654,4.14762 -6.5673,6.22143 -11.406,6.22143 -1.3828,0 -3.8022,0 -7.2583,0 -3.111,-0.34564 -6.5673,-0.51845 -10.3691,-0.51845 -3.4565,-0.34564 -6.9129,-0.51846 -10.369,-0.51846 -3.4566,-0.34563 -5.876,-0.51845 -7.2583,-0.51845 -1.0372,0 -2.7653,0.17282 -5.1846,0.51845 -2.4196,0 -5.1847,0.17282 -8.2952,0.51846 -2.7653,0 -5.5303,0.17281 -8.2952,0.51845 -2.4197,0 -4.1478,0 -5.1846,0 -4.1478,0 -7.4313,-0.69127 -9.8506,-2.07381 -2.0739,-1.38254 -3.8021,-3.11071 -5.1845,-5.18452 -1.037,-2.0738 -1.7283,-4.14761 -2.0738,-6.22143 -2e-4,-2.0738 -2e-4,-3.80197 0,-5.18453 -2e-4,-3.80196 -0.173,-7.60394 -0.5184,-11.40595 -0.3458,-3.80195 -0.8643,-7.60393 -1.5554,-11.40595 -0.6914,-5.87574 -1.5555,-10.19618 -2.5923,-12.96131 -0.6914,-3.11065 -2.4196,-5.35728 -5.1845,-6.73988 -1.3827,-0.6912 -12.443,-1.03684 -33.1809,-1.0369 -5.5303,6e-5 -9.5051,0.3457 -11.9244,1.0369 -2.4196,0.69133 -4.3206,2.07387 -5.703,4.14762 -0.6914,1.03696 -1.3827,3.28359 -2.0738,6.73988 -0.3458,3.4564 -0.6914,7.25838 -1.0369,11.40595 -0.3458,4.14766 -0.6914,8.12245 -1.0369,11.92441 -0.3458,3.802 -0.5186,6.39426 -0.5185,7.77678 -0.3457,7.94962 -2.2467,13.13413 -5.703,15.55357 -3.4564,2.41945 -7.4312,3.62917 -11.9244,3.62917 -1.0369,0 -2.7651,0 -5.1845,0 -2.0739,-0.34564 -4.4933,-0.51845 -7.2583,-0.51845 -2.4195,-0.34564 -4.839,-0.51846 -7.2584,-0.51846 -2.4195,-0.34563 -4.1476,-0.51845 -5.1845,-0.51845 -1.0369,0 -3.1107,0 -6.2214,0 -2.7651,0 -5.8758,0.17282 -9.3321,0.51845 -3.4564,0 -6.74,0 -9.8506,0 -2.7651,0 -4.839,0 -6.2215,0 -2.0738,0 -4.1476,0 -6.2214,0 -2.0738,0 -4.1476,-0.34563 -6.2214,-1.0369 -3.4564,-1.0369 -5.8758,-2.93789 -7.2584,-5.70298 -1.0369,-3.1107 -1.5553,-5.53014 -1.5553,-7.25833 0,-0.69125 0.5184,-4.49323 1.5553,-11.40595 1.3826,-7.2583 2.7651,-15.20789 4.1477,-23.84881 1.3825,-8.64081 2.765,-16.59041 4.1476,-23.84881 1.3825,-7.25825 2.0738,-11.40586 2.0738,-12.44285 0.6912,-2.76499 1.2097,-5.70288 1.5553,-8.81369 0.6913,-3.11062 1.3826,-6.22133 2.0739,-9.33214 0.3456,-1.72807 0.864,-4.83878 1.5553,-9.33214 0.6913,-4.83877 1.3825,-9.85048 2.0738,-15.03512 0.6913,-5.53003 1.3825,-10.54173 2.0738,-15.03512 0.6913,-4.83874 1.2097,-8.29508 1.5554,-10.36905 m 89.6922,-37.84702 c -0.6913,3.80218 -1.3826,7.60416 -2.0738,11.40595 -0.6913,3.80217 -1.037,7.60415 -1.0369,11.40596 -1e-4,6.91286 1.0368,11.92456 3.1107,15.03511 2.4194,2.76523 6.567,4.14777 12.4429,4.14762 1.3824,1.5e-4 3.2834,1.5e-4 5.703,0 2.4193,-0.34548 4.6659,-1.03675 6.7399,-2.07381 2.0736,-1.03675 3.8018,-2.76492 5.1845,-5.18452 1.728,-2.41928 2.5921,-5.87563 2.5922,-10.36905 -1e-4,-4.14744 -0.1729,-8.29506 -0.5184,-12.44285 -0.3458,-3.8018 -0.6914,-7.94942 -1.0369,-12.44286 -0.3458,-4.83869 -0.8642,-9.67757 -1.5554,-14.51666 -0.6914,-4.14741 -1.3827,-8.29503 -2.0738,-12.44286 -0.6914,-4.1474 -1.3827,-8.29501 -2.0738,-12.44286 -0.6914,-3.45611 -1.2099,-6.73964 -1.5553,-9.85059 -2e-4,-3.11047 -0.3458,-6.22118 -1.037,-9.33214 -0.6914,-4.14737 -1.7283,-6.73962 -3.1107,-7.77679 -1.3826,-1.38228 -2.4195,-2.07355 -3.1107,-2.07381 -1.7283,2.6e-4 -3.1108,1.72844 -4.1476,5.18453 -1.037,3.11096 -1.7283,5.70322 -2.0738,7.77678 -0.6914,3.11096 -1.5555,6.74012 -2.5923,10.8875 -0.6914,4.14785 -1.3826,7.6042 -2.0738,10.36905 -1.7283,5.87601 -2.938,11.7518 -3.6291,17.62738 -0.3458,5.53036 -1.0371,11.23333 -2.0739,17.10892"
         id="path3036"
         style="font-variant:normal;font-stretch:normal;letter-spacing:-7.8599987px;font-family:Block Berthold;-inkscape-font-specification:Block Berthold" />
      <path
         d="m -4083.263,312.20333 c 2.4194,3.6e-4 6.567,3.6e-4 12.4429,0 6.2213,-0.34527 12.7883,-0.51809 19.7011,-0.51845 7.2583,-0.34527 13.9981,-0.51809 20.2197,-0.51846 6.2213,-0.34526 10.7145,-0.51808 13.4797,-0.51845 17.9729,3.7e-4 32.8352,2.07418 44.5869,6.22143 12.0971,4.14798 21.9476,9.50531 29.5518,16.07202 7.9494,6.22177 14.1708,13.48009 18.6643,21.775 4.493,7.94992 8.295,15.89951 11.406,23.84881 1.7279,4.49355 3.1104,10.36933 4.1476,17.62738 1.0366,6.91297 1.7279,13.82566 2.0738,20.73809 0.691,6.56732 1.0366,12.61592 1.0369,18.14583 0.3454,5.5304 0.5182,8.98674 0.5185,10.36905 -3e-4,11.7518 -1.0372,23.33056 -3.1108,34.7363 -2.074,11.06051 -6.2216,22.63926 -12.4428,34.73631 -1.0372,1.72834 -3.6294,5.87595 -7.7768,12.44285 -3.8022,6.22158 -9.1596,12.27018 -16.072,18.14584 -2.7653,2.41957 -4.8391,4.32056 -6.2215,5.70297 -1.0371,1.38267 -1.5555,3.11084 -1.5553,5.18453 -2e-4,2.07393 1.0367,5.53027 3.1107,10.36904 2.4192,4.49336 5.0115,9.33225 7.7768,14.51667 2.7648,5.18461 5.3571,10.0235 7.7768,14.51666 2.7648,4.49334 4.493,7.77686 5.1845,9.8506 1.0367,2.41951 1.9007,4.83895 2.5923,7.25833 1.0366,2.07387 1.9007,4.14768 2.5922,6.22143 l 6.2214,12.44285 c 3.4561,6.91274 6.2212,12.44289 8.2953,16.59048 2.0735,3.80201 3.6289,6.91272 4.6661,9.33214 1.0366,2.41946 1.7279,4.32045 2.0738,5.70298 0.3453,1.38255 0.5182,2.59227 0.5184,3.62916 -2e-4,3.11073 -1.21,5.70298 -3.6291,7.77679 -2.4198,2.07381 -5.5305,3.11071 -9.3322,3.11071 -1.0371,0 -2.9381,0 -5.703,0 -2.4197,-0.34563 -5.0119,-0.51845 -7.7768,-0.51845 -2.7653,0 -5.5303,0 -8.2952,0 -2.4197,-0.34563 -4.1478,-0.51845 -5.1845,-0.51845 -1.7284,0 -4.1478,0 -7.2583,0 -2.7653,0 -5.876,0.17282 -9.3322,0.51845 -3.1109,0 -6.2216,0.17282 -9.3321,0.51845 -3.1109,0 -5.3576,0 -6.7399,0 -1.7284,0 -3.4565,0.17282 -5.1845,0.51845 -1.3828,0 -2.9381,0 -4.6661,0 -4.8391,0 -8.2954,-0.69126 -10.369,-2.07381 -2.074,-1.38253 -3.975,-3.45634 -5.703,-6.22142 -0.3458,-0.69126 -1.0371,-2.0738 -2.0738,-4.14762 -1.0371,-2.41943 -2.074,-4.83887 -3.1107,-7.25834 -1.0371,-2.41942 -2.074,-4.66604 -3.1108,-6.73988 -0.6914,-2.41941 -1.2098,-4.14758 -1.5553,-5.18452 -2.074,-4.49322 -4.4934,-8.81365 -7.2584,-12.96131 -2.4195,-4.4932 -4.6662,-9.15927 -6.7398,-13.99821 l -4.6661,-10.8875 c -2.7652,-6.22135 -5.5303,-11.92432 -8.2952,-17.10893 -2.7652,-5.53006 -5.5303,-8.29514 -8.2953,-8.29523 -3.8021,9e-5 -6.0487,1.55545 -6.7399,4.66607 -0.3457,3.1108 -0.5185,5.53024 -0.5184,7.25833 -10e-5,1.03699 -10e-5,2.93798 0,5.70298 0.3455,2.41952 0.5183,5.18459 0.5184,8.29523 -10e-5,3.11078 -10e-5,6.04868 0,8.81369 0.3456,2.76514 0.5184,4.66613 0.5185,5.70298 -10e-5,0.69132 -10e-5,2.07386 0,4.14762 -10e-5,2.07386 -0.1729,4.32048 -0.5185,6.73988 -10e-5,2.07385 -10e-5,4.14766 0,6.22143 -10e-5,1.72821 -10e-5,3.11074 0,4.14761 -10e-5,1.38258 0.1727,4.83892 0.5185,10.36905 0.3455,5.18454 0.5183,8.64089 0.5184,10.36905 -10e-5,5.53016 -1.7282,9.15933 -5.1845,10.8875 -3.1108,1.38254 -5.5302,2.07381 -7.2583,2.07381 -1.037,0 -2.0739,0 -3.1107,0 -0.6914,-0.34564 -1.5555,-0.51846 -2.5923,-0.51846 -2.4195,-0.34563 -6.3943,-0.51845 -11.9244,-0.51845 -5.5302,-0.34563 -9.6778,-0.51845 -12.4428,-0.51845 -1.037,0 -3.2836,0.17282 -6.7399,0.51845 -3.4564,0 -7.2584,0.17282 -11.406,0.51845 -3.802,0.34564 -7.4312,0.69127 -10.8875,1.03691 -3.4564,0 -5.8758,0 -7.2583,0 -5.1846,0 -9.3322,-1.72817 -12.4429,-5.18453 -2.7651,-3.45634 -4.1476,-7.60395 -4.1476,-12.44285 0,-2.41943 0.1728,-4.1476 0.5185,-5.18452 0.6912,-13.13409 1.2097,-23.67595 1.5553,-31.6256 0.3456,-7.94954 0.5185,-14.17096 0.5185,-18.66428 0,-2.41937 -0.1729,-6.91262 -0.5185,-13.47976 0,-6.91261 -0.1728,-14.17093 -0.5184,-21.775 -0.3457,-7.60385 -0.6913,-14.86218 -1.0369,-21.775 0,-6.91256 0,-11.75144 0,-14.51666 0,-2.4193 0,-6.91255 0,-13.47976 0.3456,-6.91254 0.5184,-14.17086 0.5184,-21.775 0.3456,-7.60378 0.5185,-14.68929 0.5185,-21.25655 0.3456,-6.91249 0.5184,-11.75137 0.5184,-14.51666 0,-1.72796 -0.1728,-4.66585 -0.5184,-8.81369 0,-4.49303 0,-9.15909 0,-13.99821 0,-4.83865 -0.1729,-9.50472 -0.5185,-13.99822 0,-4.49299 0,-7.6037 0,-9.33214 0,-1.72791 0,-5.01144 0,-9.85059 0.3456,-4.83862 0.5185,-9.85032 0.5185,-15.03512 0,-5.52987 0,-10.54157 0,-15.03512 0.3456,-4.83858 0.5184,-8.29493 0.5184,-10.36905 0,-1.03659 -0.1728,-2.93758 -0.5184,-5.70297 0,-3.11039 0,-6.22111 0,-9.33214 0,-3.11039 -0.1729,-6.04828 -0.5185,-8.81369 0,-3.11038 0,-5.18418 0,-6.22143 0,-8.98616 2.5923,-15.3804 7.7768,-19.18274 5.1845,-4.14725 11.9244,-6.22106 20.2196,-6.22142 1.0369,3.6e-4 3.1107,3.6e-4 6.2215,0 3.4563,3.6e-4 6.9126,0.17318 10.369,0.51845 3.8019,3.6e-4 7.2583,3.6e-4 10.3691,0 3.4562,3.6e-4 5.8757,3.6e-4 7.2583,0 m 51.3268,85.02618 c -5.1847,2.8e-4 -9.1595,1.03719 -11.9244,3.11071 -2.7652,1.72846 -4.839,4.1479 -6.2214,7.25834 -1.0371,2.76534 -1.7283,5.70324 -2.0739,8.81369 -0.3457,2.76534 -0.5185,5.18478 -0.5184,7.25833 -10e-5,1.03716 -0.1729,3.28378 -0.5185,6.73988 -1e-4,3.45659 -1e-4,7.08576 0,10.8875 -1e-4,3.80222 -0.1729,7.43138 -0.5184,10.8875 -10e-5,3.45657 -10e-5,5.87601 0,7.25833 -10e-5,5.53037 1.728,11.06052 5.1845,16.59047 3.8019,5.18473 9.332,7.77698 16.5905,7.77679 7.6038,1.9e-4 13.3068,-1.72798 17.1089,-5.18452 3.8018,-3.80178 6.3941,-8.46785 7.7768,-13.99822 0.3455,-1.03669 0.5183,-2.93768 0.5184,-5.70297 0.3455,-3.11049 0.5183,-6.2212 0.5185,-9.33214 0.3455,-3.11049 0.5183,-6.04838 0.5185,-8.81369 0.3454,-2.76484 0.5182,-4.83865 0.5184,-6.22143 -2e-4,-9.67752 -2.2468,-18.31839 -6.7399,-25.92262 -4.4934,-7.60369 -11.2333,-11.40567 -20.2196,-11.40595"
         id="path3038"
         style="font-variant:normal;font-stretch:normal;letter-spacing:-7.8599987px;font-family:Block Berthold;-inkscape-font-specification:Block Berthold" />
      <path
         d="m -3871.3276,335.01523 c 0,-2.07346 0,-4.4929 0,-7.25833 0.3457,-2.76473 1.0369,-5.18417 2.0739,-7.25834 1.0368,-2.41908 2.765,-4.49289 5.1845,-6.22142 2.4194,-1.72781 5.8757,-2.5919 10.369,-2.59226 1.0369,3.6e-4 2.7651,0.17318 5.1845,0.51845 2.4194,3.6e-4 5.0117,0.17318 7.7768,0.51845 3.1107,3.7e-4 6.0486,0.17318 8.8137,0.51845 2.765,3.7e-4 4.666,3.7e-4 5.703,0 2.765,3.7e-4 5.1844,3.7e-4 7.2583,0 2.4194,-0.34527 4.8388,-0.51808 7.2584,-0.51845 2.765,-0.34527 5.1844,-0.51809 7.2583,-0.51845 2.4193,3.6e-4 4.8388,3.6e-4 7.2583,0 2.0737,3.6e-4 4.3204,0.17318 6.7399,0.51845 2.4193,3.7e-4 4.666,0.51882 6.7399,1.55536 2.0737,0.69163 3.8019,2.07417 5.1845,4.14762 1.3824,2.07416 2.0737,5.01206 2.0738,8.81369 -10e-5,1.72852 -0.1729,3.28388 -0.5184,4.66607 -1e-4,1.03725 -1e-4,2.41979 0,4.14761 -0.3458,2.76542 -0.6914,6.22177 -1.0369,10.36905 -0.3458,3.80231 -0.6914,7.94993 -1.0369,12.44286 -2e-4,4.49357 -0.173,8.98682 -0.5185,13.47976 -1e-4,4.14792 -1e-4,7.9499 0,11.40595 -1e-4,1.38283 -1e-4,3.80227 0,7.25833 0.3455,3.111 0.5183,6.74016 0.5185,10.8875 -2e-4,3.80226 -2e-4,7.43142 0,10.8875 0.3455,3.45661 0.5183,5.87605 0.5184,7.25833 -10e-5,1.03717 -0.1729,2.93816 -0.5184,5.70298 -2e-4,2.76533 -2e-4,5.87604 0,9.33214 -2e-4,3.11096 -0.173,6.22167 -0.5185,9.33214 -1e-4,2.76531 -1e-4,4.6663 0,5.70298 -1e-4,1.03713 -1e-4,2.93812 0,5.70297 0.3455,2.41967 0.5183,5.18474 0.5185,8.29524 0.3455,3.11093 0.5183,6.04882 0.5184,8.81369 0.3455,2.76528 0.5183,4.66627 0.5185,5.70298 -2e-4,1.0371 -0.173,2.59246 -0.5185,4.66607 -10e-5,1.72837 -10e-5,4.49344 0,8.29523 -0.3457,4.14781 -0.5186,8.81387 -0.5184,13.99822 -2e-4,4.83905 -2e-4,9.50512 0,13.99821 -2e-4,1.03706 -2e-4,2.76524 0,5.18452 0.3455,2.07397 0.5183,4.49341 0.5184,7.25834 -10e-5,2.76522 -10e-5,5.35748 0,7.77678 0.3455,2.41958 0.5183,4.14775 0.5185,5.18452 -2e-4,0.69141 -0.173,2.93803 -0.5185,6.73988 -10e-5,3.80211 -10e-5,6.22155 0,7.25834 -10e-5,6.91281 1.5553,13.30705 4.6661,19.18273 3.1106,5.87589 9.1592,9.33224 18.1458,10.36905 1.0368,9e-5 2.5921,0.17291 4.6661,0.51845 2.0736,9e-5 4.1475,9e-5 6.2214,0 2.4193,9e-5 4.6659,9e-5 6.7399,0 2.4193,9e-5 4.3203,9e-5 5.703,0 1.3823,9e-5 4.3202,-0.17272 8.8137,-0.51845 4.493,-0.34554 7.6037,-0.51836 9.3321,-0.51845 5.1843,9e-5 9.1591,0.86418 11.9244,2.59226 2.7649,1.38263 4.8387,3.97489 6.2214,7.77678 1.3824,3.45643 2.0736,8.29531 2.0738,14.51667 0.3455,5.87585 0.5183,13.307 0.5185,22.29345 -2e-4,1.03695 -0.173,2.93794 -0.5185,5.70298 -2e-4,2.41948 -2e-4,5.18455 0,8.29523 -2e-4,3.11074 -0.173,6.04864 -0.5184,8.81369 -2e-4,2.7651 -2e-4,4.66609 0,5.70298 -2e-4,4.14763 -0.8643,7.43116 -2.5923,9.85059 -1.7283,2.07382 -3.6293,3.45635 -5.703,4.14762 -1.037,0.69127 -2.2468,1.20972 -3.6291,1.55536 -1.0371,0 -2.9381,0 -5.703,0 -1.7283,0 -5.3575,-0.17282 -10.8875,-0.51845 -5.1847,-0.34564 -8.641,-0.51846 -10.369,-0.51846 -1.0371,0 -2.7653,0 -5.1846,0 -2.0739,0 -4.3205,0 -6.7398,0 -2.4196,0 -4.8391,0 -7.2584,0 -2.0739,0 -3.6293,0 -4.666,0 -2.4196,0 -6.7401,0 -12.9614,0 -6.2215,0 -12.7886,0 -19.7011,0 -6.9128,0 -13.6527,0 -20.2197,0 -6.2215,0 -10.5419,0 -12.9613,0 -1.037,0 -2.938,0.17282 -5.703,0.51846 -2.7651,0 -5.8758,0 -9.3321,0 -3.1108,0 -6.2215,0.17281 -9.3322,0.51845 -2.7651,0 -4.6661,0 -5.7029,0 -7.9497,0 -13.307,-1.90099 -16.072,-5.70298 -2.7651,-4.14761 -4.1477,-8.1224 -4.1477,-11.9244 0,-1.38252 0,-4.32042 0,-8.81369 0.3456,-4.83886 0.5185,-7.94957 0.5185,-9.33214 0,-6.56702 0.1728,-13.13408 0.5184,-19.70119 0.3457,-6.567 0.5185,-13.13406 0.5185,-19.70119 0,-0.34556 -0.1728,-3.11064 -0.5185,-8.29524 0,-5.18443 -0.1728,-10.8874 -0.5184,-17.10892 0,-6.56696 -0.1729,-12.9612 -0.5185,-19.18274 0,-6.2213 0,-10.36892 0,-12.44286 0,-1.03677 0,-3.11058 0,-6.22142 0.3456,-3.11058 0.5185,-6.22129 0.5185,-9.33215 0.3456,-3.45619 0.6912,-6.73972 1.0369,-9.85059 0.3456,-3.11055 0.5184,-5.35718 0.5184,-6.73988 0.3457,-2.07364 0.5185,-3.97463 0.5185,-5.70298 0,-2.07363 0,-4.14744 0,-6.22142 0,-1.03673 -0.1728,-3.11054 -0.5185,-6.22143 0,-3.45617 0,-6.91251 0,-10.36905 0,-3.80179 -0.1728,-7.25813 -0.5184,-10.36905 0,-3.1105 0,-5.35713 0,-6.73988 0,-1.03669 0,-2.76486 0,-5.18452 0,-2.41923 0,-5.01149 0,-7.77678 0.3456,-3.11049 0.5184,-5.87557 0.5184,-8.29524 0,-2.41921 0,-4.14739 0,-5.18453 0,-4.83864 -0.1728,-9.50471 -0.5184,-13.99821 0,-4.83863 0,-9.67751 0,-14.51666 0,-1.38228 0,-3.80172 0,-7.25834 0.3456,-3.8017 0.5184,-7.7765 0.5184,-11.9244 0,-4.14733 0,-7.94931 0,-11.40595 0.3457,-3.80169 0.5185,-6.56676 0.5185,-8.29524 0,-6.91239 -0.1728,-13.65226 -0.5185,-20.21964 0,-6.56673 0,-13.3066 0,-20.21964"
         id="path3040"
         style="font-variant:normal;font-stretch:normal;letter-spacing:-7.8599987px;font-family:Block Berthold;-inkscape-font-specification:Block Berthold" />
      <path
         d="m -3580.8385,527.36104 c -1e-4,2.07396 -1e-4,5.70313 0,10.8875 0.3455,4.83903 0.6911,10.19636 1.0369,16.07203 0.3455,5.53027 0.5183,11.06043 0.5184,16.59047 0.3456,5.18463 0.5184,8.81379 0.5185,10.8875 -10e-5,1.38264 -0.1729,3.97489 -0.5185,7.77678 -1e-4,3.80207 -0.1729,7.77687 -0.5184,11.92441 -1e-4,4.14769 -0.1729,8.12249 -0.5185,11.9244 -1e-4,3.80205 -1e-4,6.39431 0,7.77679 -1e-4,1.72823 -1e-4,4.66612 0,8.81369 0.3456,3.80203 0.6912,8.12246 1.0369,12.9613 0.3456,4.49329 0.5184,8.81372 0.5185,12.96131 0.3455,4.14764 0.5183,7.08553 0.5184,8.81369 -1e-4,3.11073 -1.2098,6.22144 -3.6291,9.33214 -2.0739,2.76509 -6.2216,4.14762 -12.4429,4.14762 -0.6913,0 -2.0739,0 -4.1476,0 -2.0739,-0.34563 -4.3205,-0.51845 -6.7399,-0.51845 -2.0739,0 -4.1477,0 -6.2214,0 -2.0739,-0.34563 -3.6292,-0.51845 -4.6661,-0.51845 -1.3826,0 -3.802,0.17282 -7.2583,0.51845 -3.1108,0 -6.5671,0.17282 -10.3691,0.51845 -3.802,0 -7.4312,0.17282 -10.8875,0.51846 -3.1107,0 -5.3573,0 -6.7398,0 l -3.1107,0 c -0.6914,0 -2.0739,0 -4.1477,0 -1.7282,-0.34564 -3.6292,-0.86409 -5.7029,-1.55536 -2.0739,-0.69127 -3.9749,-1.72817 -5.703,-3.11072 -1.7282,-1.72816 -2.9379,-3.97479 -3.6292,-6.73988 0,-0.34562 -0.1728,-2.07379 -0.5184,-5.18452 -10e-5,-3.45633 -10e-5,-7.08549 0,-10.8875 -10e-5,-3.80195 -10e-5,-7.43111 0,-10.8875 -10e-5,-3.4563 -10e-5,-5.70293 0,-6.73988 -10e-5,-1.03686 -10e-5,-3.11066 0,-6.22143 0.3456,-3.11065 0.5184,-6.39418 0.5184,-9.85059 0.3456,-3.45628 0.5185,-6.73981 0.5185,-9.85059 0.3456,-3.11064 0.5184,-5.35727 0.5184,-6.73988 l 0,-37.84702 c 0,-2.0737 -0.1728,-5.53004 -0.5184,-10.36905 0,-5.18439 -0.1729,-10.54173 -0.5185,-16.07202 0,-5.87565 -0.1728,-11.23298 -0.5184,-16.07203 -10e-5,-5.18435 -10e-5,-8.81352 0,-10.88749 l 0,-64.80655 c -10e-5,-2.07357 -10e-5,-5.70273 0,-10.88749 0.3456,-5.18428 0.5184,-10.71443 0.5184,-16.59048 0.3456,-5.87552 0.5185,-11.40568 0.5185,-16.59047 0.3456,-5.52988 0.5184,-9.33186 0.5184,-11.40596 l 0,-35.25475 c 0,-1.03658 -0.1728,-2.59194 -0.5184,-4.66607 0,-2.41912 -0.1729,-5.01138 -0.5185,-7.77679 0,-2.76474 -0.1728,-5.18418 -0.5184,-7.25833 -10e-5,-2.4191 -10e-5,-4.14727 0,-5.18453 -10e-5,-4.83853 1.0369,-8.29487 3.1107,-10.36904 2.0738,-2.41908 3.8019,-3.97444 5.1845,-4.66607 1.7281,-0.69091 3.4563,-1.03654 5.1845,-1.03691 2.0738,-0.34527 5.5301,-0.51808 10.3691,-0.51845 1.0368,3.7e-4 3.1106,3.7e-4 6.2214,0 3.1107,3.7e-4 6.2214,0.17318 9.3321,0.51845 3.4563,3.7e-4 6.7399,3.7e-4 9.8506,0 3.1107,3.7e-4 5.3573,3.7e-4 6.7399,0 3.1107,3.7e-4 6.2214,3.7e-4 9.3322,0 3.1106,3.7e-4 6.2213,-0.17245 9.3321,-0.51845 0.6912,3.7e-4 2.0737,3.7e-4 4.1476,0 2.4194,-0.34527 3.9747,-0.51809 4.6661,-0.51845 3.1106,3.6e-4 5.53,0.86445 7.2583,2.59226 1.7281,1.72854 2.9378,3.80234 3.6292,6.22143 0.6911,2.07416 1.0368,4.14797 1.0369,6.22143 0.3455,2.07415 0.5183,3.45669 0.5184,4.14761 -1e-4,1.03726 -0.1729,2.93825 -0.5184,5.70298 -10e-5,2.41978 -0.1729,5.18486 -0.5185,8.29524 -1e-4,3.11104 -0.1729,6.04893 -0.5184,8.81369 -1e-4,2.7654 -1e-4,4.66639 0,5.70297 -1e-4,3.11103 -0.1729,6.04893 -0.5185,8.81369 -1e-4,2.76539 -1e-4,6.56737 0,11.40595 -1e-4,4.83919 -1e-4,11.23342 0,19.18274 -1e-4,7.94987 -1e-4,18.66454 0,32.14404 -1e-4,1.38279 -1e-4,3.97505 0,7.77679 -1e-4,3.45658 -1e-4,7.25856 0,11.40595 0.3456,4.14784 0.5184,8.12264 0.5185,11.9244 -1e-4,3.8022 -1e-4,6.39446 0,7.77679 -1e-4,1.03711 -0.1729,3.11092 -0.5185,6.22143 -1e-4,2.76528 -1e-4,5.87599 0,9.33214 -1e-4,3.45654 -0.1729,6.74007 -0.5184,9.85059 -1e-4,2.76526 -1e-4,4.83907 0,6.22143 l 0,25.40416"
         id="path3042"
         style="font-variant:normal;font-stretch:normal;letter-spacing:-7.8599987px;font-family:Block Berthold;-inkscape-font-specification:Block Berthold" />
      <path
         d="m -3381.597,312.72178 c 1.3824,3.7e-4 4.1474,3.7e-4 8.2952,0 4.1475,-0.34527 6.9125,-0.51809 8.2953,-0.51845 4.8387,3.6e-4 8.6406,1.55572 11.4059,4.66607 2.7649,2.76544 4.1474,6.56742 4.1476,11.40595 -2e-4,1.03725 -0.173,2.93824 -0.5184,5.70298 -2e-4,2.41978 -0.173,5.18486 -0.5185,8.29523 -2e-4,3.11105 -0.173,6.04894 -0.5184,8.81369 -2e-4,2.76541 -2e-4,4.6664 0,5.70298 -2e-4,1.03722 -2e-4,3.8023 0,8.29524 0.3454,4.49356 0.5182,7.60427 0.5184,9.33214 -2e-4,3.80228 -1.0371,8.12271 -3.1107,12.96131 -1.7284,4.49354 -6.9129,7.0858 -15.5535,7.77678 -0.6915,0.34592 -2.2469,0.51874 -4.6661,0.51845 -2.074,-0.34535 -3.4565,-0.51817 -4.1476,-0.51845 -1.0371,2.8e-4 -3.6294,0.1731 -7.7768,0.51845 -4.1478,0.34592 -6.9129,0.51874 -8.2953,0.51846 -0.6914,2.8e-4 -2.0739,2.8e-4 -4.1476,0 -2.0739,-0.34536 -4.3206,-0.51817 -6.7399,-0.51846 -2.0739,-0.34535 -4.1477,-0.51817 -6.2214,-0.51845 -2.0739,-0.34535 -3.6293,-0.51817 -4.6661,-0.51845 -10.0235,2.8e-4 -16.9362,0.86437 -20.738,2.59226 -3.4565,1.72845 -6.0488,3.80226 -7.7768,6.22143 -1.037,1.72845 -1.7283,3.62944 -2.0738,5.70297 -2e-4,1.72845 -2e-4,6.2217 0,13.47976 -2e-4,1.3828 -2e-4,3.45661 0,6.22143 0.3455,2.76533 1.0368,5.70322 2.0738,8.81369 1.3824,2.76532 3.2834,5.18476 5.7029,7.25833 2.4194,2.07405 5.8757,3.11095 10.3691,3.11072 1.0368,2.3e-4 3.4562,-0.17259 7.2583,-0.51845 4.1475,-0.34541 6.9126,-0.51822 8.2953,-0.51846 0.6911,2.4e-4 2.0736,0.17305 4.1476,0.51846 2.0736,2.3e-4 4.1474,2.3e-4 6.2214,0 2.4193,2.3e-4 4.4931,0.17304 6.2214,0.51845 2.0737,2.3e-4 3.629,2.3e-4 4.6661,0 1.0367,2.3e-4 3.629,2.3e-4 7.7768,0 4.4931,-0.34541 7.431,-0.51822 8.8137,-0.51845 7.9494,2.3e-4 13.3067,1.7284 16.072,5.18452 2.7649,3.11094 4.1474,8.29545 4.1476,15.55357 -2e-4,0.69148 -0.173,2.07402 -0.5184,4.14762 -2e-4,2.07401 -2e-4,4.32064 0,6.73988 -2e-4,2.07401 -0.1731,4.14781 -0.5185,6.22143 -2e-4,2.074 -2e-4,3.62935 0,4.66607 -2e-4,0.69146 -2e-4,2.07399 0,4.14762 0.3454,2.07399 0.5183,4.32061 0.5185,6.73988 -2e-4,2.07398 -2e-4,4.14779 0,6.22142 0.3454,2.07398 0.5182,3.62934 0.5184,4.66608 -2e-4,4.14778 -0.5186,7.25849 -1.5553,9.33214 -2.7653,5.87594 -6.0488,9.33229 -9.8506,10.36904 -3.4566,1.03706 -7.0857,1.55551 -10.8875,1.55536 -1.3827,1.5e-4 -4.1478,1.5e-4 -8.2953,0 -3.8021,-0.34549 -7.9497,-0.69112 -12.4428,-1.0369 -4.4934,-0.34549 -8.8139,-0.51831 -12.9613,-0.51846 -4.1478,-0.34548 -6.9129,-0.5183 -8.2953,-0.51845 -4.1477,1.5e-4 -8.641,0.5186 -13.4797,1.55536 -4.4934,0.69141 -8.1226,3.45649 -10.8875,8.29524 -1.3827,2.41958 -2.2468,5.7031 -2.5923,9.85059 -1e-4,4.14774 -1e-4,9.85071 0,17.10893 -1e-4,5.18463 0.5184,10.02351 1.5554,14.51666 1.0368,4.14771 4.8387,7.08561 11.4059,8.81369 2.765,0.69136 6.0485,1.20981 9.8506,1.55536 3.8019,9e-5 7.431,9e-5 10.8875,0 2.7649,0.34572 5.3572,0.69135 7.7768,1.0369 2.4193,0.34572 4.8387,0.69136 7.2583,1.03691 1.728,0.34572 3.4562,0.51853 5.1846,0.51845 2.0736,8e-5 3.9746,8e-5 5.7029,0 2.0737,8e-5 4.1475,8e-5 6.2215,0 2.0736,8e-5 3.9746,-0.17273 5.7029,-0.51845 1.728,-0.34555 3.4562,-0.51837 5.1846,-0.51845 1.7279,-0.34555 3.4561,-0.51837 5.1845,-0.51846 3.4561,9e-5 7.4309,1.38263 11.9244,4.14762 4.8387,2.41953 7.2581,7.25841 7.2583,14.51667 -2e-4,1.72824 -2e-4,3.28359 0,4.66607 -2e-4,1.3826 -0.173,2.93795 -0.5184,4.66607 -0.3459,2.76513 -0.5187,5.53021 -0.5185,8.29524 -2e-4,2.76512 -2e-4,5.01175 0,6.73988 -2e-4,0.69131 -2e-4,2.07385 0,4.14762 -2e-4,2.07384 -2e-4,4.32047 0,6.73988 0.3454,2.41947 0.5183,4.66609 0.5185,6.73988 -2e-4,2.07383 -2e-4,3.62918 0,4.66607 -2e-4,8.64088 -2.4197,14.34385 -7.2584,17.10892 -4.4934,2.41945 -8.2954,3.62917 -11.4059,3.62917 -1.3828,0 -4.4935,-0.17282 -9.3322,-0.51845 -4.4934,-0.34564 -7.4313,-0.51845 -8.8137,-0.51845 -1.3827,0 -4.3206,0.17281 -8.8136,0.51845 -4.1478,0 -7.0857,0 -8.8137,0 -5.5303,0 -11.0605,-0.17282 -16.5905,-0.51845 -5.1847,-0.34564 -10.542,-0.51846 -16.072,-0.51846 -1.3827,0 -4.4934,0.17282 -9.3322,0.51846 -4.4933,0 -7.604,0 -9.3321,0 -1.3827,0 -4.3206,0 -8.8137,0 -4.4933,-0.34564 -7.4312,-0.51846 -8.8137,-0.51846 -1.037,0 -3.1108,0 -6.2214,0 -3.1108,0 -6.3943,0.17282 -9.8506,0.51846 -3.4564,0 -6.74,0 -9.8506,0 -3.1108,0 -5.1846,0 -6.2214,0 -1.7283,0 -5.0118,0.17281 -9.8506,0.51845 -4.839,0 -8.1225,0 -9.8506,0 -6.2215,0 -11.406,-1.90099 -15.5536,-5.70298 -3.802,-4.14761 -5.703,-8.98649 -5.703,-14.51666 0,-1.03689 0,-2.07379 0,-3.11072 0.3456,-1.03688 0.5185,-2.07378 0.5185,-3.11071 0.6912,-5.53013 1.0369,-11.2331 1.0369,-17.10893 0,-5.87574 0,-11.06026 0,-15.55357 0,-1.03684 0,-3.11065 0,-6.22143 0,-3.11064 -0.1728,-6.39417 -0.5185,-9.85059 0,-3.45627 0,-6.7398 0,-9.85059 0,-3.11063 0,-5.18444 0,-6.22143 0,-1.03681 0,-2.59217 0,-4.66607 0.3457,-2.41935 0.5185,-4.83879 0.5185,-7.25834 0.3456,-2.76497 0.5184,-5.18441 0.5184,-7.25833 0.3457,-2.41933 0.5185,-4.1475 0.5185,-5.18452 0,-1.03679 0,-2.59215 0,-4.66607 0,-2.41932 -0.1728,-4.83877 -0.5185,-7.25834 0,-2.41931 0,-4.66593 0,-6.73988 0,-2.4193 0,-4.14748 0,-5.18452 0,-1.3824 0,-4.14747 0,-8.29524 0,-4.4931 0,-8.98635 0,-13.47976 0.3457,-4.83872 0.5185,-9.33197 0.5185,-13.47976 0,-4.49307 0,-7.60378 0,-9.33214 0,-1.72799 -0.1728,-4.8387 -0.5185,-9.33214 0,-4.83869 0,-9.85039 0,-15.03512 0,-5.52994 -0.1728,-10.54164 -0.5184,-15.03512 0,-4.83866 0,-8.295 0,-10.36904 0,-8.98627 0.1728,-18.14558 0.5184,-27.47798 0.3457,-9.33187 0.5185,-18.49118 0.5185,-27.47797 0,-1.38225 0,-3.97451 0,-7.77679 0,-3.80168 -0.1728,-7.77648 -0.5185,-11.9244 0,-4.14731 0,-7.94929 0,-11.40595 0,-3.80166 0,-6.56674 0,-8.29524 0,-6.22109 0.1728,-11.75124 0.5185,-16.59047 0.3456,-5.18418 1.2097,-9.50461 2.5923,-12.96131 1.7281,-3.45599 4.3204,-6.04825 7.7767,-7.77679 3.802,-1.7278 8.9865,-2.59189 15.5536,-2.59226 1.3825,3.7e-4 3.4563,0.17319 6.2214,0.51846 2.7651,3.6e-4 5.8758,3.6e-4 9.3322,0 3.1106,0.346 6.0485,0.69163 8.8137,1.0369 3.1106,3.7e-4 5.1844,3.7e-4 6.2214,0 l 26.9595,0 c 1.3825,3.7e-4 4.1475,0.17318 8.2953,0.51845 4.1475,3.7e-4 8.4679,3.7e-4 12.9613,0 4.8387,3.7e-4 9.332,0.17319 13.4797,0.51845 4.1475,3.7e-4 7.0854,3.7e-4 8.8137,0 1.3824,3.7e-4 4.4931,-0.17245 9.3322,-0.51845 5.1843,-0.34527 8.6407,-0.51808 10.369,-0.51845 l 10.8875,0"
         id="path3044"
         style="font-variant:normal;font-stretch:normal;letter-spacing:-7.8599987px;font-family:Block Berthold;-inkscape-font-specification:Block Berthold" />
      <path
         d="m -3187.3641,606.68425 c 0,-1.03683 0,-2.93782 0,-5.70297 0.3456,-2.765 0.5184,-5.7029 0.5184,-8.81369 0,-3.45626 0,-6.56697 0,-9.33215 0.3456,-3.11061 0.5185,-5.18442 0.5185,-6.22142 0,-2.07371 -0.1729,-5.87569 -0.5185,-11.40595 0,-5.87568 -0.1728,-12.0971 -0.5184,-18.66429 -0.3457,-6.56692 -0.6913,-12.78834 -1.0369,-18.66428 0,-5.87564 0,-10.02325 0,-12.44286 0,-1.72801 0,-4.83872 0,-9.33214 0.3456,-4.83871 0.6912,-9.85041 1.0369,-15.03512 0.3456,-5.52996 0.5184,-10.54166 0.5184,-15.03512 0.3456,-4.83868 0.5185,-8.29502 0.5185,-10.36904 0,-2.41923 -0.1729,-5.70276 -0.5185,-9.8506 0,-4.14739 -0.1728,-8.12219 -0.5184,-11.9244 -0.6913,-10.02317 -1.0369,-19.52812 -1.0369,-28.51488 0,-9.33187 0,-15.03484 0,-17.10893 0,-1.38225 0,-3.62888 0,-6.73988 0.3456,-3.45605 0.5184,-6.9124 0.5184,-10.36904 0,-3.80168 0,-7.25803 0,-10.36905 0.3456,-3.45604 0.5185,-5.87548 0.5185,-7.25833 0,-1.03659 -0.1729,-3.1104 -0.5185,-6.22143 0,-3.11039 -0.1728,-6.39392 -0.5184,-9.85059 0,-3.80165 -0.1729,-7.258 -0.5185,-10.36905 0,-3.11037 0,-5.35699 0,-6.73988 0,-0.69092 0,-1.90064 0,-3.62917 0.3456,-2.07345 1.0369,-3.97444 2.0738,-5.70297 1.3826,-2.07345 3.1107,-3.80162 5.1846,-5.18453 2.4194,-1.38217 5.7029,-2.07344 9.8506,-2.07381 1.0368,3.7e-4 2.9378,3.7e-4 5.7029,0 2.7651,3.7e-4 5.703,0.17319 8.8137,0.51846 3.1107,3.6e-4 6.0486,0.17318 8.8137,0.51845 2.765,3.6e-4 4.666,3.6e-4 5.703,0 2.765,3.6e-4 5.3573,3.6e-4 7.7768,0 2.4193,3.6e-4 5.0116,-0.17245 7.7768,-0.51845 5.1844,-0.69091 8.4679,-1.03654 9.8505,-1.03691 1.7281,3.7e-4 3.1107,3.7e-4 4.1477,0 8.2951,3.7e-4 13.4796,2.07418 15.5535,6.22143 2.0737,4.14797 3.1106,8.12277 3.1107,11.9244 -10e-5,1.03726 -0.1729,2.93825 -0.5184,5.70298 -0.3458,2.76542 -0.6914,5.70331 -1.0369,8.81369 -10e-5,2.76541 -0.1729,5.53048 -0.5185,8.29524 -0.3457,2.7654 -0.5185,4.66639 -0.5184,5.70297 -10e-5,1.03722 -10e-5,3.11103 0,6.22143 0.3455,3.11102 0.5183,6.56737 0.5184,10.36905 -10e-5,3.45664 -10e-5,6.74017 0,9.85059 0.3456,3.111 0.5184,5.35763 0.5185,6.73988 -10e-5,1.38283 -10e-5,3.80227 0,7.25833 -10e-5,3.45663 -0.1729,7.08579 -0.5185,10.8875 -10e-5,3.80225 -10e-5,7.60423 0,11.40595 -10e-5,3.45661 -10e-5,5.87605 0,7.25834 -10e-5,8.98674 2.4194,14.5169 7.2584,16.59047 4.8387,1.72841 10.8873,2.59249 18.1458,2.59226 4.4931,2.3e-4 8.8135,-0.69104 12.9613,-2.07381 4.4931,-1.3823 7.2582,-5.52992 8.2952,-12.44285 0.6912,-2.76483 1.2096,-7.08527 1.5554,-12.96131 0.3455,-6.22116 0.5183,-10.71441 0.5185,-13.47976 -2e-4,-1.03663 -0.173,-2.93762 -0.5185,-5.70298 -2e-4,-3.11043 -0.173,-6.22114 -0.5184,-9.33214 -2e-4,-3.45606 -0.173,-6.73959 -0.5185,-9.85059 -2e-4,-3.11042 -2e-4,-5.35704 0,-6.73988 -2e-4,-3.45605 -2e-4,-6.73957 0,-9.8506 0.3455,-3.45603 0.5183,-6.91238 0.5185,-10.36904 l 0,-3.62917 c -2e-4,-0.69094 -0.173,-2.07348 -0.5185,-4.14762 -2e-4,-2.07348 -0.173,-4.3201 -0.5185,-6.73988 -1e-4,-2.4191 -0.1729,-4.66573 -0.5184,-6.73988 -2e-4,-2.07346 -2e-4,-3.62882 0,-4.66607 -2e-4,-3.80163 1.2096,-7.60361 3.6292,-11.40595 2.4192,-3.80162 7.4309,-5.70261 15.0351,-5.70298 3.8018,3.7e-4 6.5669,0.17319 8.2952,0.51845 3.8018,0.346 7.6038,0.69164 11.406,1.03691 3.8018,3.6e-4 7.6037,3.6e-4 11.4059,0 1.0367,3.6e-4 2.5921,3.6e-4 4.6661,0 2.4192,-0.34527 5.0115,-0.69091 7.7768,-1.03691 2.7648,3.7e-4 5.3571,3.7e-4 7.7768,0 2.4192,-0.34526 3.9745,-0.51808 4.666,-0.51845 7.6038,3.7e-4 12.7883,1.72854 15.5536,5.18453 2.7648,3.4567 4.1474,5.35769 4.1476,5.70297 0.691,1.03726 1.0367,2.4198 1.0369,4.14762 -2e-4,1.72852 -2e-4,4.66642 0,8.81369 -2e-4,2.76542 -0.173,5.70331 -0.5184,8.81369 -3e-4,2.76541 -0.1731,5.7033 -0.5185,8.81369 -2e-4,2.07413 -0.173,4.83921 -0.5184,8.29524 -3e-4,3.45666 -3e-4,7.08582 0,10.88749 -3e-4,3.45666 -0.1731,6.74018 -0.5185,9.8506 -2e-4,3.11101 -2e-4,5.35763 0,6.73988 -2e-4,1.03719 -2e-4,3.28382 0,6.73988 0.3454,3.45663 0.5182,5.87607 0.5185,7.25833 -3e-4,1.03718 -0.1731,2.76535 -0.5185,5.18453 -2e-4,2.41971 -0.1731,5.18478 -0.5184,8.29523 -3e-4,2.76534 -0.1731,5.53042 -0.5185,8.29524 -2e-4,2.4197 -2e-4,4.14787 0,5.18452 -2e-4,1.72842 -2e-4,4.66632 0,8.81369 0.3454,4.14786 0.5182,8.64111 0.5185,13.47976 -3e-4,4.83911 -3e-4,9.50518 0,13.99822 0.3453,4.14782 0.5182,7.08572 0.5184,8.81369 -2e-4,2.07401 -0.1731,5.70317 -0.5184,10.8875 -3e-4,4.83907 -3e-4,10.19641 0,16.07202 -3e-4,5.87596 -0.1731,11.40611 -0.5185,16.59047 -2e-4,5.18468 -2e-4,8.81384 0,10.8875 -2e-4,4.14776 -2e-4,8.29538 0,12.44286 -2e-4,4.14775 0.1726,8.12254 0.5185,11.9244 0.3453,5.18464 0.691,10.36916 1.0369,15.55357 0.3454,4.83899 0.691,9.85069 1.0369,15.03512 l 0,9.33214 c -3e-4,1.03699 -3e-4,3.1108 0,6.22143 -3e-4,3.11079 -0.1731,6.39432 -0.5185,9.85059 -2e-4,3.11078 -2e-4,6.22149 0,9.33214 -2e-4,3.11077 -2e-4,5.3574 0,6.73988 l 0,8.29524 c -2e-4,0.69131 0.1726,2.07385 0.5185,4.14762 0.3454,2.07385 0.5182,4.32047 0.5184,6.73988 0.3454,2.41948 0.5182,4.6661 0.5185,6.73988 0.3454,2.07383 0.5182,3.62919 0.5184,4.66607 -2e-4,4.49327 -1.2099,9.15934 -3.6291,13.99822 -2.0741,4.83889 -6.7402,7.25833 -13.9982,7.25833 -1.0372,0 -2.2469,0 -3.6292,0 -1.0372,-0.34564 -2.0741,-0.51845 -3.1107,-0.51845 -2.7653,-0.34564 -5.5304,-0.51846 -8.2953,-0.51846 -2.7653,-0.34563 -5.5303,-0.51845 -8.2952,-0.51845 -1.3828,0 -3.975,0.17282 -7.7768,0.51845 -3.4565,0 -7.0857,0.17282 -10.8875,0.51846 -3.8022,0.34563 -7.4313,0.51845 -10.8875,0.51845 -3.4565,0.34563 -5.7031,0.51845 -6.7399,0.51845 -3.1109,0 -6.74,-1.0369 -10.8875,-3.11071 -4.1477,-2.41944 -6.2216,-7.60396 -6.2214,-15.55357 -2e-4,-0.69125 -2e-4,-1.90098 0,-3.62917 0.3455,-2.07379 0.5183,-4.14759 0.5185,-6.22143 0.3454,-2.41941 0.6911,-4.66604 1.0369,-6.73988 0.3454,-2.07377 0.5183,-3.62913 0.5184,-4.66607 -1e-4,-1.03686 -0.173,-3.45631 -0.5184,-7.25833 -2e-4,-3.80194 -2e-4,-6.39419 0,-7.77679 -2e-4,-4.14756 -2e-4,-9.50489 0,-16.07202 -2e-4,-6.56698 0.1726,-11.7515 0.5184,-15.55357 -1e-4,-0.69118 -1e-4,-2.07372 0,-4.14762 0.3455,-2.07371 0.5183,-4.14752 0.5185,-6.22143 -2e-4,-2.41934 -2e-4,-4.49315 0,-6.22142 0.3454,-2.07371 0.5183,-3.62906 0.5184,-4.66607 -1e-4,-6.22132 -0.6914,-12.26992 -2.0738,-18.14584 -1.3827,-5.87566 -5.0119,-9.85046 -10.8875,-11.9244 -1.7283,-0.69113 -4.6662,-1.03677 -8.8137,-1.0369 -4.1477,1.3e-4 -7.0856,1.3e-4 -8.8137,0 -3.1108,1.3e-4 -6.74,1.03704 -10.8875,3.11071 -4.1477,1.72831 -6.5671,6.22156 -7.2583,13.47976 -0.6914,6.91281 -1.2098,12.27015 -1.5554,16.07202 -0.3457,3.45645 -0.5185,7.25843 -0.5184,11.40595 -10e-5,1.037 -10e-5,3.11081 0,6.22143 0.3455,2.76517 0.5183,5.87588 0.5184,9.33214 -10e-5,3.45643 -10e-5,6.73996 0,9.8506 0.3456,2.76514 0.5184,4.66613 0.5185,5.70297 -10e-5,1.03697 -0.1729,3.11078 -0.5185,6.22143 -10e-5,2.76514 -10e-5,5.87585 0,9.33214 -10e-5,3.4564 -0.1729,6.73992 -0.5184,9.8506 -10e-5,2.76511 -10e-5,4.83892 0,6.22143 -10e-5,1.03693 0.1727,3.80201 0.5184,8.29523 0.3456,4.14764 0.5184,7.08553 0.5185,8.81369 -10e-5,4.8389 -1.7283,8.64088 -5.1845,11.40595 -3.4565,2.76508 -6.9128,4.14762 -10.3691,4.14762 -2.4195,0 -4.3205,-0.17282 -5.7029,-0.51845 -3.4565,-0.69127 -6.9128,-1.0369 -10.3691,-1.0369 -3.1108,0 -6.5671,0 -10.369,0 l -7.7768,0 c -0.6914,0 -2.2467,0.17281 -4.6661,0.51845 -2.4195,0 -5.0118,0 -7.7768,0 -2.7651,0.34563 -5.3574,0.51845 -7.7768,0.51845 -2.4195,0.34563 -4.1476,0.51845 -5.1845,0.51845 -4.8389,0 -8.6409,-0.86408 -11.4059,-2.59226 -2.7651,-1.72817 -4.839,-3.62916 -6.2215,-5.70297 -1.0369,-2.41944 -1.7282,-4.83888 -2.0738,-7.25834 0,-2.41942 0,-4.32041 0,-5.70297 0,-1.38252 0.1728,-3.80196 0.5185,-7.25834 0.3456,-3.45631 0.5184,-7.08548 0.5184,-10.88749 0.3456,-4.14758 0.6913,-7.94956 1.0369,-11.40596 0.3456,-3.80193 0.5185,-6.567 0.5185,-8.29523 l 0,-14.51667"
         id="path3046"
         style="font-variant:normal;font-stretch:normal;letter-spacing:-7.8599987px;font-family:Block Berthold;-inkscape-font-specification:Block Berthold" />
      <path
         d="m -2755.0864,312.72178 c 1.3824,3.7e-4 4.1475,3.7e-4 8.2953,0 4.1474,-0.34527 6.9125,-0.51809 8.2952,-0.51845 4.8387,3.6e-4 8.6407,1.55572 11.4059,4.66607 2.7649,2.76544 4.1475,6.56742 4.1477,11.40595 -2e-4,1.03725 -0.1731,2.93824 -0.5185,5.70298 -2e-4,2.41978 -0.173,5.18486 -0.5184,8.29523 -2e-4,3.11105 -0.1731,6.04894 -0.5185,8.81369 -2e-4,2.76541 -2e-4,4.6664 0,5.70298 -2e-4,1.03722 -2e-4,3.8023 0,8.29524 0.3454,4.49356 0.5183,7.60427 0.5185,9.33214 -2e-4,3.80228 -1.0372,8.12271 -3.1108,12.96131 -1.7283,4.49354 -6.9128,7.0858 -15.5535,7.77678 -0.6915,0.34592 -2.2468,0.51874 -4.6661,0.51845 -2.074,-0.34535 -3.4565,-0.51817 -4.1476,-0.51845 -1.0371,2.8e-4 -3.6294,0.1731 -7.7768,0.51845 -4.1478,0.34592 -6.9129,0.51874 -8.2952,0.51846 -0.6915,2.8e-4 -2.074,2.8e-4 -4.1477,0 -2.0739,-0.34536 -4.3205,-0.51817 -6.7398,-0.51846 -2.074,-0.34535 -4.1478,-0.51817 -6.2215,-0.51845 -2.0739,-0.34535 -3.6293,-0.51817 -4.666,-0.51845 -10.0236,2.8e-4 -16.9363,0.86437 -20.7381,2.59226 -3.4565,1.72845 -6.0488,3.80226 -7.7768,6.22143 -1.037,1.72845 -1.7283,3.62944 -2.0738,5.70297 -1e-4,1.72845 -1e-4,6.2217 0,13.47976 -1e-4,1.3828 -1e-4,3.45661 0,6.22143 0.3455,2.76533 1.0368,5.70322 2.0738,8.81369 1.3824,2.76532 3.2834,5.18476 5.703,7.25833 2.4193,2.07405 5.8756,3.11095 10.369,3.11072 1.0368,2.3e-4 3.4562,-0.17259 7.2583,-0.51845 4.1475,-0.34541 6.9126,-0.51822 8.2953,-0.51846 0.6911,2.4e-4 2.0736,0.17305 4.1476,0.51846 2.0737,2.3e-4 4.1475,2.3e-4 6.2214,0 2.4193,2.3e-4 4.4931,0.17304 6.2215,0.51845 2.0736,2.3e-4 3.629,2.3e-4 4.666,0 1.0368,2.3e-4 3.629,2.3e-4 7.7768,0 4.4931,-0.34541 7.431,-0.51822 8.8137,-0.51845 7.9494,2.3e-4 13.3067,1.7284 16.072,5.18452 2.7649,3.11094 4.1474,8.29545 4.1476,15.55357 -2e-4,0.69148 -0.173,2.07402 -0.5184,4.14762 -2e-4,2.07401 -2e-4,4.32064 0,6.73988 -2e-4,2.07401 -0.173,4.14781 -0.5185,6.22143 -2e-4,2.074 -2e-4,3.62935 0,4.66607 -2e-4,0.69146 -2e-4,2.07399 0,4.14762 0.3455,2.07399 0.5183,4.32061 0.5185,6.73988 -2e-4,2.07398 -2e-4,4.14779 0,6.22142 0.3454,2.07398 0.5182,3.62934 0.5184,4.66608 -2e-4,4.14778 -0.5186,7.25849 -1.5553,9.33214 -2.7653,5.87594 -6.0488,9.33229 -9.8506,10.36904 -3.4565,1.03706 -7.0857,1.55551 -10.8875,1.55536 -1.3827,1.5e-4 -4.1478,1.5e-4 -8.2952,0 -3.8022,-0.34549 -7.9498,-0.69112 -12.4429,-1.0369 -4.4934,-0.34549 -8.8138,-0.51831 -12.9613,-0.51846 -4.1478,-0.34548 -6.9128,-0.5183 -8.2952,-0.51845 -4.1478,1.5e-4 -8.641,0.5186 -13.4798,1.55536 -4.4934,0.69141 -8.1225,3.45649 -10.8875,8.29524 -1.3827,2.41958 -2.2467,5.7031 -2.5923,9.85059 -1e-4,4.14774 -1e-4,9.85071 0,17.10893 -1e-4,5.18463 0.5184,10.02351 1.5554,14.51666 1.0368,4.14771 4.8388,7.08561 11.4059,8.81369 2.765,0.69136 6.0485,1.20981 9.8506,1.55536 3.8019,9e-5 7.431,9e-5 10.8875,0 2.765,0.34572 5.3572,0.69135 7.7768,1.0369 2.4193,0.34572 4.8387,0.69136 7.2584,1.03691 1.728,0.34572 3.4561,0.51853 5.1845,0.51845 2.0736,8e-5 3.9746,8e-5 5.703,0 2.0736,8e-5 4.1474,8e-5 6.2214,0 2.0736,8e-5 3.9746,-0.17273 5.703,-0.51845 1.7279,-0.34555 3.4561,-0.51837 5.1845,-0.51845 1.728,-0.34555 3.4561,-0.51837 5.1845,-0.51846 3.4562,9e-5 7.4309,1.38263 11.9244,4.14762 4.8387,2.41953 7.2581,7.25841 7.2583,14.51667 -2e-4,1.72824 -2e-4,3.28359 0,4.66607 -2e-4,1.3826 -0.173,2.93795 -0.5184,4.66607 -0.3459,2.76513 -0.5187,5.53021 -0.5185,8.29524 -2e-4,2.76512 -2e-4,5.01175 0,6.73988 -2e-4,0.69131 -2e-4,2.07385 0,4.14762 -2e-4,2.07384 -2e-4,4.32047 0,6.73988 0.3455,2.41947 0.5183,4.66609 0.5185,6.73988 -2e-4,2.07383 -2e-4,3.62918 0,4.66607 -2e-4,8.64088 -2.4197,14.34385 -7.2583,17.10892 -4.4935,2.41945 -8.2955,3.62917 -11.406,3.62917 -1.3827,0 -4.4934,-0.17282 -9.3321,-0.51845 -4.4935,-0.34564 -7.4314,-0.51845 -8.8137,-0.51845 -1.3827,0 -4.3206,0.17281 -8.8137,0.51845 -4.1478,0 -7.0857,0 -8.8137,0 -5.5303,0 -11.0605,-0.17282 -16.5905,-0.51845 -5.1846,-0.34564 -10.542,-0.51846 -16.072,-0.51846 -1.3827,0 -4.4934,0.17282 -9.3321,0.51846 -4.4934,0 -7.6041,0 -9.3322,0 -1.3826,0 -4.3205,0 -8.8137,0 -4.4933,-0.34564 -7.4312,-0.51846 -8.8137,-0.51846 -1.037,0 -3.1108,0 -6.2214,0 -3.1108,0 -6.3943,0.17282 -9.8506,0.51846 -3.4564,0 -6.7399,0 -9.8506,0 -3.1108,0 -5.1846,0 -6.2214,0 -1.7282,0 -5.0118,0.17281 -9.8506,0.51845 -4.8389,0 -8.1225,0 -9.8506,0 -6.2215,0 -11.406,-1.90099 -15.5536,-5.70298 -3.802,-4.14761 -5.703,-8.98649 -5.7029,-14.51666 -10e-5,-1.03689 -10e-5,-2.07379 0,-3.11072 0.3456,-1.03688 0.5184,-2.07378 0.5184,-3.11071 0.6913,-5.53013 1.0369,-11.2331 1.0369,-17.10893 0,-5.87574 0,-11.06026 0,-15.55357 0,-1.03684 0,-3.11065 0,-6.22143 0,-3.11064 -0.1728,-6.39417 -0.5184,-9.85059 -10e-5,-3.45627 -10e-5,-6.7398 0,-9.85059 -10e-5,-3.11063 -10e-5,-5.18444 0,-6.22143 -10e-5,-1.03681 -10e-5,-2.59217 0,-4.66607 0.3456,-2.41935 0.5184,-4.83879 0.5184,-7.25834 0.3456,-2.76497 0.5184,-5.18441 0.5185,-7.25833 0.3456,-2.41933 0.5184,-4.1475 0.5184,-5.18452 0,-1.03679 0,-2.59215 0,-4.66607 0,-2.41932 -0.1728,-4.83877 -0.5184,-7.25834 -10e-5,-2.41931 -10e-5,-4.66593 0,-6.73988 -10e-5,-2.4193 -10e-5,-4.14748 0,-5.18452 -10e-5,-1.3824 -10e-5,-4.14747 0,-8.29524 -10e-5,-4.4931 -10e-5,-8.98635 0,-13.47976 0.3456,-4.83872 0.5184,-9.33197 0.5184,-13.47976 0,-4.49307 0,-7.60378 0,-9.33214 0,-1.72799 -0.1728,-4.8387 -0.5184,-9.33214 -10e-5,-4.83869 -10e-5,-9.85039 0,-15.03512 -10e-5,-5.52994 -0.1729,-10.54164 -0.5185,-15.03512 0,-4.83866 0,-8.295 0,-10.36904 0,-8.98627 0.1728,-18.14558 0.5185,-27.47798 0.3456,-9.33187 0.5184,-18.49118 0.5184,-27.47797 0,-1.38225 0,-3.97451 0,-7.77679 0,-3.80168 -0.1728,-7.77648 -0.5184,-11.9244 -10e-5,-4.14731 -10e-5,-7.94929 0,-11.40595 -10e-5,-3.80166 -10e-5,-6.56674 0,-8.29524 -10e-5,-6.22109 0.1728,-11.75124 0.5184,-16.59047 0.3456,-5.18418 1.2097,-9.50461 2.5923,-12.96131 1.7281,-3.45599 4.3204,-6.04825 7.7768,-7.77679 3.8019,-1.7278 8.9864,-2.59189 15.5535,-2.59226 1.3825,3.7e-4 3.4563,0.17319 6.2215,0.51846 2.765,3.6e-4 5.8757,3.6e-4 9.3321,0 3.1106,0.346 6.0485,0.69163 8.8137,1.0369 3.1106,3.7e-4 5.1844,3.7e-4 6.2214,0 l 26.9595,0 c 1.3825,3.7e-4 4.1475,0.17318 8.2953,0.51845 4.1475,3.7e-4 8.4679,3.7e-4 12.9613,0 4.8387,3.7e-4 9.332,0.17319 13.4797,0.51845 4.1475,3.7e-4 7.0854,3.7e-4 8.8137,0 1.3824,3.7e-4 4.4931,-0.17245 9.3322,-0.51845 5.1843,-0.34527 8.6407,-0.51808 10.369,-0.51845 l 10.8875,0"
         id="path3048"
         style="font-variant:normal;font-stretch:normal;letter-spacing:-7.8599987px;font-family:Block Berthold;-inkscape-font-specification:Block Berthold" />
      <path
         d="m -2683.1128,560.02354 c 0,-1.03678 0,-2.76496 0,-5.18452 0,-2.41932 -0.1728,-5.01158 -0.5184,-7.77679 0,-3.11058 0,-6.04847 0,-8.81369 0,-2.76493 0,-4.66592 0,-5.70297 0,-1.38239 0,-4.14747 0,-8.29524 0.3456,-4.49309 0.5184,-9.15916 0.5184,-13.99821 0.3456,-4.83872 0.5185,-9.33197 0.5185,-13.47976 0.3456,-4.49307 0.5184,-7.60378 0.5184,-9.33214 0,-8.98631 -0.3456,-17.97281 -1.0369,-26.95953 -0.3456,-8.98628 -0.5184,-17.97277 -0.5184,-26.95952 0,-1.72792 0,-4.66582 0,-8.81369 0.3456,-4.49299 0.6912,-9.15906 1.0369,-13.99821 0.3456,-4.83861 0.5184,-9.50468 0.5184,-13.99821 0.3456,-4.49297 0.5185,-7.60368 0.5185,-9.33214 0,-1.38225 -0.1729,-4.14733 -0.5185,-8.29524 0,-4.49295 -0.1728,-9.15902 -0.5184,-13.99821 -0.3457,-4.83857 -0.6913,-9.33182 -1.0369,-13.47977 0,-4.49292 0,-7.60363 0,-9.33214 0,-13.13377 2.4194,-21.429 7.2583,-24.88571 4.8389,-3.80162 12.27,-5.70261 22.2935,-5.70297 1.7281,3.6e-4 5.3572,0.17318 10.8875,0.51845 5.8757,0.346 9.6777,0.51882 11.4059,0.51845 4.4932,3.7e-4 8.8136,-0.17245 12.9613,-0.51845 4.4932,-0.34527 8.9864,-0.51809 13.4798,-0.51845 1.0368,3.6e-4 2.765,0.17318 5.1845,0.51845 2.765,3.6e-4 5.7029,3.6e-4 8.8137,0 3.1106,3.6e-4 6.0485,0.17318 8.8137,0.51845 2.7649,3.7e-4 4.6659,3.7e-4 5.703,0 l 19.1827,0 c 1.3824,3.7e-4 4.4931,-0.17245 9.3321,-0.51845 5.1844,-0.34527 8.6407,-0.51809 10.3691,-0.51845 1.0367,3.6e-4 2.7649,0.17318 5.1845,0.51845 2.7649,0.346 5.53,0.69163 8.2952,1.0369 2.7649,0.346 5.3572,0.69164 7.7768,1.03691 2.4193,0.346 4.1475,0.51881 5.1845,0.51845 5.53,1.03727 10.0233,2.24699 13.4798,3.62917 3.8018,1.38289 6.9125,2.93825 9.3321,4.66607 2.7649,1.38289 5.1844,3.28388 7.2584,5.70297 2.4192,2.07416 5.1843,4.66642 8.2952,7.77679 3.1105,3.45669 5.8756,6.91303 8.2953,10.36904 2.7648,3.11105 5.1842,7.94993 7.2583,14.51667 -3e-4,0.69159 0.3454,2.76539 1.0369,6.22143 1.0367,3.11102 1.9007,6.56736 2.5923,10.36904 1.0366,3.80228 1.9007,7.43145 2.5922,10.8875 1.0367,3.111 1.5551,5.01199 1.5554,5.70298 -3e-4,1.72846 -0.1731,5.1848 -0.5185,10.36904 -2e-4,4.83916 -2e-4,8.12269 0,9.8506 l 0,7.25833 c -2e-4,5.53041 -2.2469,13.65282 -6.7399,24.36726 -4.4935,10.36927 -12.0974,19.7014 -22.8119,27.99643 -3.8022,3.11091 -6.2216,5.0119 -7.2583,5.70297 -0.6915,0.69147 -1.0371,1.38274 -1.0369,2.07381 -2e-4,0.69147 0.5182,1.38274 1.5554,2.07381 1.0366,0.69147 2.0735,1.38273 3.1107,2.07381 1.3823,0.69146 2.592,1.55555 3.6291,2.59226 1.0367,0.69146 2.0736,1.38273 3.1108,2.07381 10.7144,7.60415 18.8368,16.93628 24.3672,27.99643 5.5299,10.71483 8.9863,21.25668 10.3691,31.62559 -3e-4,1.03703 0.1725,2.93802 0.5184,5.70298 0.3454,2.41956 0.5182,5.18464 0.5185,8.29523 0.3453,3.11083 0.5182,5.8759 0.5184,8.29524 0.3454,2.41955 0.5182,3.80209 0.5185,4.14762 -3e-4,5.53025 -0.5187,10.54195 -1.5554,15.03512 -0.6915,1.72826 -1.3828,3.62925 -2.0738,5.70297 -0.3459,1.72826 -1.7284,5.70305 -4.1476,11.92441 -1.7284,3.80205 -3.111,7.43121 -4.1476,10.88749 -0.6916,3.11077 -1.9013,6.3943 -3.6292,9.8506 -3.8022,7.94964 -9.678,15.20797 -17.6274,21.775 -7.9498,6.22145 -15.3809,11.06033 -22.2934,14.51666 -11.4062,5.53017 -21.0839,8.8137 -29.0334,9.8506 -7.9497,0.69127 -15.3809,1.0369 -22.2934,1.0369 l -89.6923,0 c -1.0369,0 -2.9379,0.17282 -5.7029,0.51845 -2.4195,0 -5.0118,0 -7.7768,0 -2.7652,0 -5.5302,0.17282 -8.2953,0.51846 -2.4195,0 -4.1476,0 -5.1845,0 -4.1476,0 -7.604,-0.69127 -10.369,-2.07381 -2.7651,-1.72817 -4.8389,-3.62916 -6.2215,-5.70298 -1.3825,-2.41943 -2.4194,-4.83887 -3.1107,-7.25833 -0.3456,-2.41943 -0.5184,-4.49324 -0.5184,-6.22143 0,-1.03688 0.1728,-3.45632 0.5184,-7.25833 0.3456,-3.80195 0.6913,-7.43112 1.0369,-10.8875 0,-3.11067 0,-6.22138 0,-9.33214 0.3456,-3.11066 0.5185,-6.22138 0.5185,-9.33215 0,-1.38247 -0.1729,-3.97473 -0.5185,-7.77678 0,-4.14755 -0.1728,-8.46798 -0.5184,-12.96131 0,-4.49317 -0.1729,-8.64078 -0.5185,-12.44285 0,-4.14753 0,-7.08542 0,-8.81369 l 0,-18.66429 m 108.3566,-176.79224 c -4.4934,2.9e-4 -8.1226,0.69156 -10.8875,2.07381 -2.4196,1.38283 -4.3206,3.111 -5.703,5.18452 -1.3827,2.0741 -2.2467,4.32072 -2.5923,6.73988 -0.3457,2.41972 -0.5185,4.66635 -0.5184,6.73988 -1e-4,9.33241 0.1727,15.55383 0.5184,18.66428 0.6912,3.11097 1.3825,5.53041 2.0738,7.25834 2.4194,5.87603 6.0485,9.5052 10.8875,10.8875 4.8388,1.03714 8.1223,1.55559 9.8506,1.55535 8.9864,2.4e-4 15.8991,-2.59202 20.7381,-7.77678 5.1844,-5.18428 7.7766,-12.61542 7.7768,-22.29345 -2e-4,-1.72791 -0.173,-4.14735 -0.5184,-7.25834 -0.3458,-3.45607 -1.7284,-6.91241 -4.1477,-10.36904 -3.8021,-5.8755 -8.1225,-9.15903 -12.9613,-9.8506 -4.839,-1.03661 -9.6779,-1.55506 -14.5166,-1.55535 m 3.6291,144.12974 c -1.7283,1.6e-4 -5.0118,0.51861 -9.8506,1.55536 -4.4933,0.69142 -7.9497,3.80213 -10.369,9.33214 -0.6914,1.38268 -1.2098,2.76522 -1.5554,4.14762 -1e-4,1.03704 -1e-4,3.6293 0,7.77679 -1e-4,1.7283 -0.1729,5.18464 -0.5184,10.36904 -10e-5,5.18464 -10e-5,8.64099 0,10.36905 -10e-5,5.8759 0.1727,9.85069 0.5184,11.9244 0.3456,2.07391 0.864,3.9749 1.5554,5.70298 2.0737,3.80207 5.3572,6.39433 9.8506,7.77679 4.8387,1.38262 9.1592,2.07389 12.9613,2.0738 2.4193,9e-5 5.3572,-0.51837 8.8137,-1.55535 3.4562,-1.03682 6.7397,-2.765 9.8506,-5.18453 3.1105,-2.76498 5.7028,-6.39415 7.7768,-10.88749 2.0736,-4.49316 3.1105,-10.19613 3.1107,-17.10893 -2e-4,-13.134 -3.6294,-22.46613 -10.8875,-27.99643 -6.9129,-5.53001 -13.9984,-8.29508 -21.2566,-8.29524"
         id="path3050"
         style="font-variant:normal;font-stretch:normal;letter-spacing:-7.8599987px;font-family:Block Berthold;-inkscape-font-specification:Block Berthold" />
      <path
         d="m -2349.8474,313.75868 c 1.728,3.7e-4 4.6659,3.7e-4 8.8136,0 4.4932,-0.34526 9.1593,-0.51808 13.9983,-0.51845 5.1844,-0.34527 10.0233,-0.51808 14.5166,-0.51845 4.4932,-0.34527 7.6039,-0.51809 9.3322,-0.51845 11.0601,3.6e-4 22.1204,0.86445 33.1809,2.59226 11.0602,1.3829 21.4292,5.01206 31.1072,10.8875 1.3823,1.03726 4.1474,3.11106 8.2952,6.22143 4.493,2.76542 9.5047,6.91303 15.0351,12.44285 5.5299,5.18485 11.0601,11.57909 16.5905,19.18274 5.5299,7.60427 10.3688,16.24514 14.5166,25.92261 3.8018,9.33243 6.7397,19.35583 8.8137,30.07024 2.4192,10.71493 4.3202,21.25678 5.703,31.62559 1.3823,10.02363 2.2464,19.52858 2.5923,28.51488 0.3453,8.64106 0.5182,15.55375 0.5184,20.73809 -2e-4,5.53034 -0.3459,13.30711 -1.0369,23.33036 -0.6915,10.02356 -2.7653,21.94795 -6.2214,35.77321 -4.8391,19.70129 -12.0975,38.36555 -21.775,55.99285 -8.9867,15.20798 -18.4917,26.95956 -28.5149,35.25476 -10.0236,8.29526 -20.047,14.51668 -30.0702,18.66428 -10.0236,3.80199 -19.8742,6.22144 -29.5518,7.25834 -9.3323,0.69127 -17.9731,1.0369 -25.9226,1.0369 -1.037,0 -2.938,0 -5.703,0 -2.4195,-0.34563 -5.1846,-0.51845 -8.2952,-0.51845 -2.7652,-0.34563 -5.5303,-0.51845 -8.2953,-0.51845 -2.7651,-0.34564 -4.6661,-0.51845 -5.7029,-0.51846 -1.3827,10e-6 -3.9749,0.17282 -7.7768,0.51846 -3.8021,0.34563 -7.7769,0.69127 -11.9244,1.0369 -4.1477,0 -8.1225,0.17282 -11.9244,0.51845 -3.8021,0.34564 -6.3943,0.51846 -7.7768,0.51846 -3.8021,0 -7.604,0 -11.406,0 -3.802,-0.34564 -7.2583,-1.20972 -10.369,-2.59227 -3.1108,-1.72817 -5.703,-4.14761 -7.7768,-7.25833 -1.7282,-3.45633 -2.5923,-8.1224 -2.5923,-13.99821 0,-1.72815 0,-3.45632 0,-5.18452 0.3456,-2.07378 0.5185,-3.97477 0.5185,-5.70298 0.3456,-2.07377 0.3456,-4.14758 0,-6.22143 0,-2.4194 0.1728,-4.66602 0.5184,-6.73988 0,-1.03685 0,-2.76503 0,-5.18452 0.3457,-2.41939 0.5185,-5.01165 0.5185,-7.77679 0.3456,-2.76501 0.5184,-5.35727 0.5184,-7.77678 0.3457,-2.76501 0.5185,-4.666 0.5185,-5.70298 0,-4.83881 -0.1728,-9.67769 -0.5185,-14.51666 -0.3456,-4.8388 -0.5184,-9.67768 -0.5184,-14.51667 -0.3457,-3.80187 -0.6913,-8.12231 -1.0369,-12.96131 0,-5.1844 -0.1729,-10.36892 -0.5185,-15.55357 0,-5.18438 0,-9.85045 0,-13.99821 0,-4.4931 0,-7.77663 0,-9.85059 0,-1.38239 0,-3.62901 0,-6.73988 0.3456,-3.45619 0.5185,-7.08535 0.5185,-10.8875 0,-4.14744 0,-7.94942 0,-11.40595 0.3456,-3.45616 0.5184,-5.87561 0.5184,-7.25834 0,-1.72798 -0.1728,-5.01151 -0.5184,-9.85059 0,-4.83868 -0.1729,-10.0232 -0.5185,-15.55357 0,-5.52994 -0.1728,-10.71445 -0.5184,-15.55357 0,-5.18429 0,-8.81345 0,-10.8875 0,-1.72793 0,-4.83864 0,-9.33214 0.3456,-4.83863 0.5184,-9.85033 0.5184,-15.03512 0,-5.18425 0,-10.02313 0,-14.51666 0.3456,-4.83861 0.5185,-8.29495 0.5185,-10.36905 0,-1.38225 -0.1729,-4.14732 -0.5185,-8.29524 0,-4.14731 -0.1728,-8.46774 -0.5184,-12.96131 0,-4.49293 -0.1729,-8.81336 -0.5185,-12.96131 0,-4.14728 0,-7.08518 0,-8.81369 0,-2.4191 0,-5.35699 0,-8.81368 0.3456,-3.456 1.2097,-6.73953 2.5923,-9.8506 1.7281,-3.11035 3.9748,-5.70261 6.7399,-7.77678 3.1107,-2.07345 7.6039,-3.11035 13.4797,-3.11072 1.3825,3.7e-4 3.802,3.7e-4 7.2584,0 3.8019,3.7e-4 7.6039,0.17319 11.4059,0.51845 4.1476,3.7e-4 7.9496,3.7e-4 11.406,0 3.4562,3.7e-4 6.0485,3.7e-4 7.7768,0 m 48.7345,87.61845 c -4.4934,2.8e-4 -7.9498,1.03718 -10.3691,3.11071 -2.4195,1.72845 -4.1477,3.97507 -5.1845,6.73988 -1.037,2.76535 -1.7283,5.53042 -2.0738,8.29524 -1e-4,2.76534 -1e-4,5.01196 0,6.73988 -1e-4,2.76533 -1e-4,5.53041 0,8.29524 0.3455,2.41968 0.5183,5.01194 0.5184,7.77678 0.3456,4.83912 0.5184,10.71491 0.5185,17.62738 0.3455,6.56728 0.5183,13.30715 0.5184,20.21964 -1e-4,1.38274 -1e-4,3.80218 0,7.25834 -1e-4,3.1109 -0.1729,6.74006 -0.5184,10.88749 -1e-4,3.80217 -1e-4,7.43133 0,10.8875 -1e-4,3.45652 -1e-4,5.87596 0,7.25834 -1e-4,1.03706 -1e-4,2.76524 0,5.18452 0.3455,2.4196 0.5183,5.01186 0.5184,7.77678 0.3456,2.76523 0.5184,5.35749 0.5185,7.77679 0.3455,2.41958 0.5183,4.14776 0.5185,5.18452 -2e-4,0.69141 -2e-4,2.07395 0,4.14762 -2e-4,2.07394 -0.173,4.32057 -0.5185,6.73988 -1e-4,2.41957 -1e-4,4.66619 0,6.73988 -1e-4,2.07393 -1e-4,3.62928 0,4.66607 -1e-4,4.49337 -1e-4,7.94971 0,10.36905 0.3455,2.41955 0.864,4.83899 1.5554,7.25833 1.728,6.22152 4.6659,9.85068 8.8136,10.8875 4.1475,1.03699 6.7398,1.55544 7.7768,1.55536 0.3455,8e-5 1.5553,-0.17273 3.6292,-0.51845 2.4193,-0.34555 5.0116,-1.38246 7.7768,-3.11072 2.7649,-2.07372 5.53,-5.01161 8.2952,-8.81369 2.7649,-4.14752 4.6659,-10.0233 5.703,-17.62738 1.728,-12.78836 3.1106,-22.81176 4.1476,-30.07023 1.0368,-7.25818 1.728,-12.96115 2.0738,-17.10893 0.6911,-4.14745 1.0368,-7.25816 1.0369,-9.33214 -10e-5,-2.07364 -10e-5,-4.49308 0,-7.25833 -10e-5,-5.87561 -0.173,-11.7514 -0.5184,-17.62738 -0.3458,-5.87559 -0.8643,-11.75138 -1.5554,-17.62738 -0.3458,-4.83867 -1.037,-10.88728 -2.0738,-18.14583 -1.0371,-7.60373 -2.7652,-14.68924 -5.1845,-21.25655 -2.074,-6.91244 -5.1847,-12.78822 -9.3322,-17.62738 -4.1477,-4.83861 -9.6779,-7.25805 -16.5904,-7.25833"
         id="path3052"
         style="font-variant:normal;font-stretch:normal;letter-spacing:-7.8599987px;font-family:Block Berthold;-inkscape-font-specification:Block Berthold" />
      <path
         d="m -2142.0473,470.33129 c -10e-5,-21.77477 0.6912,-40.26622 2.0738,-55.4744 1.3825,-15.20766 3.9748,-28.34177 7.7768,-39.40238 3.8019,-11.06 8.8136,-20.56495 15.0351,-28.51488 6.567,-7.94926 15.035,-15.3804 25.4041,-22.29345 3.4563,-2.41908 6.9127,-4.66571 10.3691,-6.73988 3.4563,-2.07344 7.7767,-3.80162 12.9613,-5.18452 5.1844,-1.38217 11.5787,-2.41908 19.1827,-3.11071 7.6039,-0.6909 17.6273,-1.03654 30.0703,-1.03691 8.6407,3.7e-4 16.2447,0.51882 22.8119,1.55536 6.5669,0.69164 12.4427,2.07417 17.6273,4.14762 5.1844,2.07417 10.1961,4.66643 15.0352,7.77678 4.8387,2.76544 10.196,6.22178 16.072,10.36905 1.728,1.38288 4.6658,3.62951 8.8137,6.73988 4.1474,3.11105 7.0853,5.70331 8.8137,7.77678 10.0231,11.40628 17.1086,27.47828 21.2565,48.21607 4.493,20.39272 6.7396,43.89587 6.7399,70.50952 -3e-4,5.876 -0.1731,11.9246 -0.5185,18.14583 -2e-4,5.87598 -2e-4,11.75177 0,17.62738 -2e-4,12.44302 -0.173,22.46642 -0.5184,30.07023 -3e-4,7.25848 -0.1731,13.65272 -0.5185,19.18274 -0.3459,5.18465 -0.8643,10.36916 -1.5553,15.55357 -0.6915,4.839 -1.7284,10.8876 -3.1107,18.14583 -1.7285,8.98659 -3.2838,16.76337 -4.6661,23.33036 -1.3828,6.22149 -2.9381,11.92446 -4.6661,17.10892 -1.7284,4.83894 -3.8022,9.15937 -6.2214,12.96131 -2.4197,3.80202 -5.1848,7.604 -8.2952,11.40595 -8.2955,10.02343 -15.8995,16.93613 -22.8119,20.7381 -6.5673,3.45635 -13.6528,6.39424 -21.2566,8.81369 -5.5303,1.72817 -11.4061,3.11071 -17.6274,4.14761 -5.8759,1.38254 -13.6527,2.07381 -23.3303,2.07381 -26.614,0 -48.7346,-4.32043 -66.3619,-12.9613 -17.6275,-8.64086 -30.4159,-20.0468 -38.3655,-34.21786 -1.7282,-3.11067 -3.4564,-6.91265 -5.1845,-11.40595 -1.7282,-4.4932 -3.4564,-8.81363 -5.1845,-12.96131 -1.3826,-4.49318 -2.5923,-8.46798 -3.6292,-11.9244 -0.6913,-3.45627 -1.2098,-5.87571 -1.5554,-7.25833 -0.6913,-3.11063 -1.3825,-7.08543 -2.0738,-11.92441 -0.3456,-5.18442 -0.6913,-10.19612 -1.0369,-15.03512 -0.3456,-5.1844 -0.6913,-9.67765 -1.0369,-13.47976 0,-4.14749 0,-6.56693 0,-7.25833 0,-1.3824 0,-3.80185 0,-7.25833 0,-3.45621 0,-7.25819 0,-11.40595 0.3456,-4.14747 0.5185,-7.94945 0.5185,-11.40595 0,-3.80182 0,-6.39408 0,-7.77679 0,-1.38237 -0.1729,-3.80181 -0.5185,-7.25833 0,-3.8018 0,-7.60378 0,-11.40595 0,-4.14743 -0.1728,-7.94941 -0.5184,-11.40595 -10e-5,-3.80178 -10e-5,-6.56686 0,-8.29524 m 119.7624,-73.62023 c -6.2215,2.8e-4 -11.0604,1.55564 -14.5166,4.66607 -3.4565,3.11099 -6.0487,6.91297 -7.7768,11.40595 -1.3826,4.49352 -2.2467,9.15958 -2.5923,13.99821 -0.3457,4.83914 -0.5185,8.81394 -0.5184,11.92441 -10e-5,1.38278 -10e-5,3.80222 0,7.25833 0.3455,3.45658 0.5183,7.08574 0.5184,10.8875 -10e-5,3.8022 -10e-5,7.60418 0,11.40595 0.3456,3.45656 0.5184,5.876 0.5185,7.25833 -10e-5,2.76528 -0.1729,7.60417 -0.5185,14.51667 -10e-5,6.91288 -0.1729,14.34402 -0.5184,22.29345 -10e-5,7.60412 -0.1729,15.03527 -0.5185,22.29345 -1e-4,6.91283 -1e-4,11.92453 0,15.03512 -1e-4,4.49337 -1e-4,9.50507 0,15.03511 0.3456,5.53027 1.2096,10.71479 2.5923,15.55357 1.7281,4.83899 4.1475,8.9866 7.2583,12.44286 3.4563,3.1108 8.2951,4.66615 14.5167,4.66607 5.53,8e-5 9.8504,-1.03682 12.9613,-3.11071 3.1106,-2.07373 5.53,-4.66599 7.2583,-7.77679 1.7281,-3.11062 2.765,-6.39415 3.1107,-9.85059 0.6912,-3.45625 1.0368,-6.56696 1.037,-9.33215 -2e-4,-0.69115 -2e-4,-2.07369 0,-4.14761 -2e-4,-2.0737 -2e-4,-4.32032 0,-6.73988 -2e-4,-2.41932 -2e-4,-4.66595 0,-6.73988 -2e-4,-2.07368 -2e-4,-3.62904 0,-4.66608 -2e-4,-1.3824 -2e-4,-3.97466 0,-7.77678 0.3454,-4.14747 0.6911,-8.4679 1.0369,-12.96131 0.3454,-4.49309 0.5183,-8.64071 0.5184,-12.44285 0.3455,-4.14745 0.5183,-7.08535 0.5185,-8.81369 -2e-4,-4.83871 -0.173,-9.50478 -0.5185,-13.99822 -10e-5,-4.49306 -10e-5,-9.15912 0,-13.99821 -10e-5,-1.38233 -10e-5,-4.49305 0,-9.33214 0.3455,-5.18431 0.5183,-8.64065 0.5185,-10.36905 -2e-4,-3.11049 -0.173,-8.12219 -0.5185,-15.03512 -0.3458,-6.91245 -0.8642,-12.78824 -1.5553,-17.62738 -1.0371,-10.36878 -3.975,-17.28147 -8.8137,-20.73809 -4.4934,-3.45607 -9.1595,-5.18424 -13.9983,-5.18452"
         id="path3054"
         style="font-variant:normal;font-stretch:normal;letter-spacing:-7.8599987px;font-family:Block Berthold;-inkscape-font-specification:Block Berthold" />
    </g>
  </g>
</svg>
