<?xml version="1.0" encoding="UTF-8" standalone="no"?>
<!-- Created with Inkscape (http://www.inkscape.org/) -->

<svg
   xmlns:dc="http://purl.org/dc/elements/1.1/"
   xmlns:cc="http://creativecommons.org/ns#"
   xmlns:rdf="http://www.w3.org/1999/02/22-rdf-syntax-ns#"
   xmlns:svg="http://www.w3.org/2000/svg"
   xmlns="http://www.w3.org/2000/svg"
   version="1.1"
   width="3923.9143"
   height="1189.6562"
   id="svg2">
  <defs
     id="defs4" />
  <metadata
     id="metadata7">
    <rdf:RDF>
      <cc:Work
         rdf:about="">
        <dc:format>image/svg+xml</dc:format>
        <dc:type
           rdf:resource="http://purl.org/dc/dcmitype/StillImage" />
        <dc:title></dc:title>
      </cc:Work>
    </rdf:RDF>
  </metadata>
  <g
     transform="translate(5573.9375,-1398.5625)"
     id="layer1">
    <g
       id="g3235">
      <path
         d="m -5573.4235,1399.0592 c 650.6572,0 1301.3144,0 1951.9716,0 0,396.2177 0,792.4354 0,1188.6531 -650.6572,0 -1301.3144,0 -1951.9716,0 0,-396.2177 0,-792.4354 0,-1188.6531 z"
         id="path3233"
         style="fill:#ffffff;fill-opacity:1;stroke:#808080" />
      <g
         transform="translate(-826.37508,16.162441)"
         id="g3161"
         style="font-size:518.45233154px;font-style:normal;font-weight:normal;line-height:125%;letter-spacing:0px;word-spacing:0px;fill:#000000;fill-opacity:1;stroke:none;font-family:Sans">
        <path
           d="m -4597.8142,2091.044 c 0,-14.1708 0.6912,-26.6136 2.0738,-37.3285 1.7281,-10.7145 3.4563,-20.0466 5.1845,-27.9965 3.1107,-14.5164 7.6039,-28.1689 13.4798,-40.9577 5.8757,-13.1338 14.171,-24.1941 24.8857,-33.1809 1.7281,-1.3823 4.4932,-3.4561 8.2952,-6.2215 4.1476,-2.7647 8.2952,-5.5298 12.4429,-8.2952 4.1475,-2.7647 7.7767,-5.1842 10.8875,-7.2583 3.4562,-2.4191 5.53,-3.8017 6.2214,-4.1477 3.4563,-2.0734 7.9495,-3.8016 13.4798,-5.1845 5.53,-1.7278 11.233,-3.1103 17.1089,-4.1476 5.8757,-1.0365 11.7514,-1.9006 17.6274,-2.5923 6.2212,-0.6909 11.9242,-1.0365 17.1089,-1.0369 1.3824,4e-4 3.1105,4e-4 5.1845,0 2.4193,4e-4 4.8387,0.1732 7.2583,0.5185 2.765,3e-4 5.1844,0.1732 7.2584,0.5184 2.4192,0.346 4.1474,0.8645 5.1845,1.5554 4.1474,2.4198 6.5669,5.3577 7.2583,8.8137 0.6911,3.4567 1.0368,6.0489 1.0369,7.7768 -1e-4,1.3829 -0.173,2.7654 -0.5184,4.1476 -2e-4,1.3829 -2e-4,2.7654 0,4.1476 -0.3458,3.4567 -0.5187,6.913 -0.5185,10.369 -2e-4,3.1111 -2e-4,6.3946 0,9.8506 -2e-4,1.3829 -2e-4,3.9752 0,7.7768 -2e-4,3.8023 -2e-4,7.9499 0,12.4429 0.3455,4.1479 0.5183,8.2955 0.5185,12.4428 -2e-4,3.8023 -2e-4,6.5674 0,8.2953 -2e-4,5.876 -1.9012,10.3693 -5.703,13.4797 -3.4565,2.7654 -7.2585,4.1479 -11.4059,4.1477 -2.074,2e-4 -4.4935,-0.3454 -7.2584,-1.037 -1.7283,-0.3453 -3.4565,-0.691 -5.1845,-1.0369 -1.3827,-0.3453 -2.938,-0.5181 -4.6661,-0.5184 -1.037,3e-4 -2.938,0.3459 -5.7029,1.0369 -2.4196,0.6915 -5.1847,1.7284 -8.2953,3.1107 -2.7652,1.0372 -5.5303,2.2469 -8.2952,3.6292 -2.7652,1.0371 -4.839,2.074 -6.2214,3.1107 -4.8391,4.1479 -8.641,9.5052 -11.406,16.072 -2.7652,6.2217 -4.839,12.4431 -6.2214,18.6643 -1.037,6.5673 -1.9011,14.3441 -2.5923,23.3304 -0.6914,8.641 -1.037,15.2081 -1.0369,19.7011 -1e-4,2.074 -1e-4,5.5304 0,10.3691 0.3455,4.839 1.0368,10.3692 2.0738,16.5905 1.0368,5.8759 2.5922,11.9245 4.6661,18.1458 2.4193,5.8759 5.7028,11.2332 9.8506,16.072 2.0737,2.7652 4.8387,5.5303 8.2952,8.2953 3.8019,2.4195 7.6039,4.6661 11.406,6.7398 3.8018,1.7283 7.431,3.2837 10.8875,4.6661 3.4562,1.037 6.3941,1.5555 8.8137,1.5554 1.0367,10e-5 3.2833,-0.3456 6.7398,-1.0369 3.4562,-0.6912 5.8757,-1.0368 7.2584,-1.0369 0.6911,1e-4 1.3823,0.1729 2.0738,0.5184 1.0367,1e-4 2.4192,0.5186 4.1476,1.5554 3.8018,2.4195 5.8756,5.0118 6.2214,7.7767 0.6911,2.4196 1.0367,5.5303 1.0369,9.3322 -2e-4,1.037 -0.173,2.7651 -0.5184,5.1845 -2e-4,2.0739 -2e-4,4.4933 0,7.2583 -2e-4,2.7652 -0.173,5.3574 -0.5185,7.7768 -2e-4,2.4195 -2e-4,4.1477 0,5.1846 -2e-4,4.4933 -2e-4,8.8137 0,12.9613 -2e-4,4.1476 0.1727,8.468 0.5185,12.9613 -2e-4,1.7282 -2e-4,3.2835 0,4.666 0.3454,1.3826 0.5182,2.938 0.5184,4.6661 -2e-4,14.5167 -6.74,21.775 -20.2196,21.775 -3.1109,0 -6.2216,-0.1728 -9.3321,-0.5184 -2.7653,0 -5.7032,-0.1729 -8.8137,-0.5185 -5.876,0 -10.542,-0.1728 -13.9983,-0.5184 -3.1108,0 -5.7031,0 -7.7767,0 -2.074,0 -3.8021,-0.1729 -5.1846,-0.5185 -1.3826,0 -2.7652,-0.1728 -4.1476,-0.5185 -2.4195,-0.6912 -4.839,-1.3825 -7.2583,-2.0738 -2.0739,-0.6912 -4.3206,-1.3825 -6.7399,-2.0738 -3.4564,-1.0369 -6.2215,-1.7281 -8.2952,-2.0738 -2.0739,-0.6912 -3.9749,-1.2097 -5.703,-1.5553 -1.3826,-0.6913 -2.7652,-1.3826 -4.1476,-2.0738 -1.3826,-1.0369 -3.1108,-2.0738 -5.1845,-3.1108 -8.641,-5.1845 -15.5537,-10.5418 -20.7381,-16.072 -5.1846,-5.5301 -10.3691,-11.5787 -15.5536,-18.1458 -2.4195,-3.1107 -4.4933,-5.5301 -6.2214,-7.2583 -1.3826,-2.0738 -2.5923,-3.802 -3.6292,-5.1846 -1.0369,-1.7281 -2.0738,-3.2834 -3.1107,-4.666 -0.6913,-1.7282 -1.5554,-3.6291 -2.5923,-5.703 -4.1476,-9.3321 -7.4312,-16.936 -9.8506,-22.8119 -2.4194,-6.2213 -4.3204,-11.9243 -5.703,-17.1089 -1.3825,-5.5301 -2.4194,-11.2331 -3.1107,-17.109 -0.3456,-6.2213 -0.6912,-13.998 -1.0369,-23.3303 -0.6912,-4.4931 -1.2097,-8.8136 -1.5553,-12.9613 0,-4.4931 -0.1728,-8.8136 -0.5185,-12.9613 -0.3456,-2.7649 -0.5184,-5.53 -0.5184,-8.2953 0,-3.1105 0,-6.0484 0,-8.8137"
           id="path3032"
           style="font-variant:normal;font-stretch:normal;letter-spacing:-7.8599987px;fill:#000000;font-family:Block Berthold;-inkscape-font-specification:Block Berthold" />
        <path
           d="m -4385.093,2210.8065 c 0,-1.0368 0,-2.9378 0,-5.703 0.3456,-2.765 0.5184,-5.7029 0.5184,-8.8136 0,-3.4563 0,-6.567 0,-9.3322 0.3457,-3.1106 0.5185,-5.1844 0.5185,-6.2214 0,-2.0737 -0.1728,-5.8757 -0.5185,-11.406 0,-5.8756 -0.1728,-12.0971 -0.5184,-18.6643 -0.3457,-6.5669 -0.6913,-12.7883 -1.0369,-18.6642 0,-5.8757 0,-10.0233 0,-12.4429 0,-1.728 0,-4.8387 0,-9.3321 0.3456,-4.8387 0.6912,-9.8504 1.0369,-15.0352 0.3456,-5.5299 0.5184,-10.5416 0.5184,-15.0351 0.3457,-4.8387 0.5185,-8.295 0.5185,-10.369 0,-2.4192 -0.1728,-5.7028 -0.5185,-9.8506 0,-4.1474 -0.1728,-8.1222 -0.5184,-11.9244 -0.6913,-10.0232 -1.0369,-19.5281 -1.0369,-28.5149 0,-9.3319 0,-15.0348 0,-17.1089 0,-1.3823 0,-3.6289 0,-6.7399 0.3456,-3.4561 0.5184,-6.9124 0.5184,-10.369 0,-3.8017 0,-7.2581 0,-10.3691 0.3457,-3.456 0.5185,-5.8755 0.5185,-7.2583 0,-1.0366 -0.1728,-3.1104 -0.5185,-6.2215 0,-3.1103 -0.1728,-6.3939 -0.5184,-9.8505 0,-3.8017 -0.1728,-7.258 -0.5185,-10.3691 0,-3.1104 0,-5.357 0,-6.7399 0,-0.6909 0,-1.9006 0,-3.6291 0.3457,-2.0735 1.0369,-3.9745 2.0738,-5.703 1.3826,-2.0735 3.1107,-3.8016 5.1846,-5.1845 2.4194,-1.3822 5.7029,-2.0735 9.8506,-2.0739 1.0368,4e-4 2.9378,4e-4 5.7029,0 2.7651,4e-4 5.703,0.1732 8.8137,0.5185 3.1107,4e-4 6.0486,0.1732 8.8137,0.5185 2.765,3e-4 4.666,3e-4 5.703,0 2.765,3e-4 5.3573,3e-4 7.7768,0 2.4193,3e-4 5.0116,-0.1725 7.7768,-0.5185 5.1844,-0.6909 8.4679,-1.0365 9.8506,-1.0369 1.728,4e-4 3.1106,4e-4 4.1476,0 8.2951,4e-4 13.4796,2.0742 15.5535,6.2214 2.0737,4.148 3.1106,8.1228 3.1108,11.9244 -2e-4,1.0373 -0.173,2.9383 -0.5185,5.703 -0.3457,2.7654 -0.6914,5.7033 -1.0369,8.8137 -1e-4,2.7654 -0.1729,5.5305 -0.5184,8.2952 -0.3458,2.7654 -0.5186,4.6664 -0.5185,5.703 -1e-4,1.0372 -1e-4,3.111 0,6.2214 0.3455,3.1111 0.5183,6.5674 0.5185,10.3691 -2e-4,3.4566 -2e-4,6.7402 0,9.8506 0.3455,3.111 0.5183,5.3576 0.5184,6.7399 -1e-4,1.3828 -1e-4,3.8022 0,7.2583 -1e-4,3.4566 -0.1729,7.0858 -0.5184,10.8875 -2e-4,3.8022 -2e-4,7.6042 0,11.4059 -2e-4,3.4566 -2e-4,5.8761 0,7.2584 -2e-4,8.9867 2.4193,14.5169 7.2583,16.5904 4.8388,1.7285 10.8874,2.5925 18.1458,2.5923 4.4931,2e-4 8.8136,-0.691 12.9613,-2.0738 4.4931,-1.3823 7.2582,-5.5299 8.2953,-12.4429 0.6911,-2.7648 1.2095,-7.0852 1.5553,-12.9613 0.3455,-6.2211 0.5183,-10.7144 0.5185,-13.4797 -2e-4,-1.0367 -0.173,-2.9376 -0.5185,-5.703 -1e-4,-3.1104 -0.173,-6.2211 -0.5184,-9.3321 -2e-4,-3.4561 -0.173,-6.7396 -0.5185,-9.8506 -1e-4,-3.1105 -1e-4,-5.3571 0,-6.7399 -1e-4,-3.4561 -1e-4,-6.7396 0,-9.8506 0.3455,-3.456 0.5183,-6.9124 0.5185,-10.3691 l 0,-3.6291 c -2e-4,-0.691 -0.173,-2.0735 -0.5185,-4.1476 -1e-4,-2.0735 -0.173,-4.3201 -0.5184,-6.7399 -2e-4,-2.4191 -0.173,-4.6658 -0.5185,-6.7399 -1e-4,-2.0735 -1e-4,-3.6288 0,-4.6661 -1e-4,-3.8016 1.2096,-7.6036 3.6292,-11.4059 2.4193,-3.8016 7.431,-5.7026 15.0351,-5.703 3.8018,4e-4 6.5669,0.1732 8.2952,0.5184 3.8018,0.346 7.6038,0.6917 11.406,1.037 3.8018,3e-4 7.6037,3e-4 11.4059,0 1.0367,3e-4 2.5921,3e-4 4.6661,0 2.4192,-0.3453 5.0115,-0.691 7.7768,-1.037 2.7648,4e-4 5.3571,4e-4 7.7768,0 2.4192,-0.3452 3.9745,-0.518 4.666,-0.5184 7.6038,4e-4 12.7883,1.7285 15.5536,5.1845 2.7648,3.4567 4.1474,5.3577 4.1476,5.703 0.6911,1.0373 1.0367,2.4198 1.0369,4.1476 -2e-4,1.7285 -2e-4,4.6664 0,8.8137 -2e-4,2.7654 -0.173,5.7033 -0.5184,8.8137 -3e-4,2.7654 -0.1731,5.7033 -0.5185,8.8137 -2e-4,2.0741 -0.173,4.8392 -0.5184,8.2952 -3e-4,3.4567 -3e-4,7.0858 0,10.8875 -3e-4,3.4567 -0.1731,6.7402 -0.5185,9.8506 -2e-4,3.111 -2e-4,5.3576 0,6.7399 -2e-4,1.0372 -2e-4,3.2838 0,6.7399 0.3454,3.4566 0.5182,5.876 0.5185,7.2583 -3e-4,1.0372 -0.1731,2.7654 -0.5185,5.1845 -2e-4,2.4197 -0.173,5.1848 -0.5184,8.2953 -3e-4,2.7653 -0.1731,5.5304 -0.5185,8.2952 -2e-4,2.4197 -2e-4,4.1479 0,5.1845 -2e-4,1.7284 -2e-4,4.6663 0,8.8137 0.3454,4.1479 0.5182,8.6411 0.5185,13.4798 -3e-4,4.8391 -3e-4,9.5052 0,13.9982 0.3454,4.1478 0.5182,7.0857 0.5184,8.8137 -2e-4,2.074 -0.173,5.7032 -0.5184,10.8875 -3e-4,4.8391 -3e-4,10.1964 0,16.072 -3e-4,5.876 -0.1731,11.4061 -0.5185,16.5905 -2e-4,5.1847 -2e-4,8.8138 0,10.8875 -2e-4,4.1477 -2e-4,8.2954 0,12.4428 -2e-4,4.1478 0.1726,8.1226 0.5185,11.9244 0.3454,5.1847 0.691,10.3692 1.0369,15.5536 0.3454,4.839 0.691,9.8507 1.0369,15.0351 l 0,9.3322 c -3e-4,1.037 -3e-4,3.1108 0,6.2214 -3e-4,3.1108 -0.1731,6.3943 -0.5185,9.8506 -2e-4,3.1108 -2e-4,6.2215 0,9.3321 -2e-4,3.1108 -2e-4,5.3574 0,6.7399 l 0,8.2952 c -2e-4,0.6914 0.1726,2.0739 0.5185,4.1477 0.3454,2.0738 0.5182,4.3204 0.5184,6.7398 0.3454,2.4195 0.5182,4.6661 0.5185,6.7399 0.3454,2.0739 0.5182,3.6292 0.5184,4.6661 -2e-4,4.4933 -1.2099,9.1593 -3.6291,13.9982 -2.0741,4.8389 -6.7401,7.2583 -13.9982,7.2583 -1.0372,0 -2.2469,0 -3.6292,0 -1.0371,-0.3456 -2.074,-0.5184 -3.1107,-0.5184 -2.7653,-0.3456 -5.5304,-0.5185 -8.2953,-0.5185 -2.7653,-0.3456 -5.5303,-0.5184 -8.2952,-0.5184 -1.3827,0 -3.975,0.1728 -7.7768,0.5184 -3.4565,0 -7.0857,0.1729 -10.8875,0.5185 -3.8021,0.3456 -7.4313,0.5184 -10.8875,0.5184 -3.4565,0.3457 -5.7031,0.5185 -6.7399,0.5185 -3.1108,0 -6.74,-1.0369 -10.8875,-3.1107 -4.1477,-2.4195 -6.2215,-7.604 -6.2214,-15.5536 -1e-4,-0.6912 -1e-4,-1.901 0,-3.6292 0.3455,-2.0737 0.5183,-4.1475 0.5185,-6.2214 0.3454,-2.4194 0.6911,-4.666 1.0369,-6.7399 0.3455,-2.0737 0.5183,-3.6291 0.5184,-4.666 -1e-4,-1.0369 -0.1729,-3.4563 -0.5184,-7.2584 -2e-4,-3.8019 -2e-4,-6.3942 0,-7.7768 -2e-4,-4.1475 -2e-4,-9.5048 0,-16.072 -2e-4,-6.567 0.1726,-11.7515 0.5184,-15.5535 -1e-4,-0.6912 -1e-4,-2.0738 0,-4.1477 0.3455,-2.0737 0.5183,-4.1475 0.5185,-6.2214 -2e-4,-2.4193 -2e-4,-4.4931 0,-6.2214 0.3455,-2.0737 0.5183,-3.6291 0.5184,-4.6661 -1e-4,-6.2213 -0.6914,-12.2699 -2.0738,-18.1458 -1.3827,-5.8757 -5.0118,-9.8505 -10.8875,-11.9244 -1.7283,-0.6912 -4.6662,-1.0368 -8.8137,-1.0369 -4.1477,1e-4 -7.0856,1e-4 -8.8137,0 -3.1108,1e-4 -6.74,1.037 -10.8875,3.1107 -4.1477,1.7283 -6.5671,6.2215 -7.2583,13.4797 -0.6914,6.9129 -1.2098,12.2702 -1.5553,16.0721 -0.3458,3.4564 -0.5186,7.2584 -0.5185,11.4059 -1e-4,1.037 -1e-4,3.1108 0,6.2214 0.3455,2.7652 0.5183,5.8759 0.5185,9.3322 -2e-4,3.4564 -2e-4,6.7399 0,9.8506 0.3455,2.7651 0.5183,4.6661 0.5184,5.703 -1e-4,1.0369 -0.1729,3.1107 -0.5184,6.2214 -2e-4,2.7651 -2e-4,5.8758 0,9.3321 -2e-4,3.4564 -0.173,6.7399 -0.5185,9.8506 -1e-4,2.7651 -1e-4,4.8389 0,6.2215 -1e-4,1.0369 0.1727,3.802 0.5185,8.2952 0.3455,4.1476 0.5183,7.0855 0.5184,8.8137 -1e-4,4.8389 -1.7283,8.6409 -5.1845,11.4059 -3.4565,2.7651 -6.9128,4.1476 -10.3691,4.1476 -2.4195,0 -4.3205,-0.1728 -5.7029,-0.5184 -3.4565,-0.6913 -6.9128,-1.0369 -10.3691,-1.0369 -3.1108,0 -6.5671,0 -10.369,0 l -7.7768,0 c -0.6913,0 -2.2467,0.1728 -4.6661,0.5184 -2.4195,0 -5.0117,0 -7.7768,0 -2.7651,0.3457 -5.3574,0.5185 -7.7768,0.5185 -2.4194,0.3456 -4.1476,0.5184 -5.1845,0.5184 -4.8389,0 -8.6409,-0.864 -11.4059,-2.5922 -2.7651,-1.7282 -4.8389,-3.6292 -6.2215,-5.703 -1.0369,-2.4194 -1.7282,-4.8389 -2.0738,-7.2583 0,-2.4194 0,-4.3204 0,-5.703 0,-1.3825 0.1728,-3.802 0.5185,-7.2583 0.3456,-3.4563 0.5184,-7.0855 0.5184,-10.8875 0.3457,-4.1476 0.6913,-7.9496 1.0369,-11.406 0.3457,-3.8019 0.5185,-6.567 0.5185,-8.2952 l 0,-14.5167"
           id="path3034"
           style="font-variant:normal;font-stretch:normal;letter-spacing:-7.8599987px;fill:#000000;font-family:Block Berthold;-inkscape-font-specification:Block Berthold" />
        <path
           d="m -4117.9343,2128.891 c 1.0369,-7.9494 2.2466,-15.7262 3.6292,-23.3303 1.7281,-7.6038 3.1106,-15.2077 4.1476,-22.8119 0.6912,-4.8387 1.2097,-9.3319 1.5553,-13.4798 0.6913,-4.493 1.3825,-9.1591 2.0738,-13.9982 1.0369,-6.5668 2.2466,-12.961 3.6292,-19.1827 1.7281,-6.5668 3.2835,-13.3067 4.6661,-20.2197 2.0737,-10.0231 3.6291,-20.2193 4.6661,-30.5886 1.0368,-10.3688 2.5922,-20.565 4.666,-30.5887 2.0738,-8.9862 3.9748,-16.0717 5.703,-21.2566 2.0737,-5.1841 4.3204,-8.9861 6.7399,-11.4059 2.765,-2.7647 5.8757,-4.4929 9.3321,-5.1846 3.4563,-0.6909 7.9495,-1.0365 13.4798,-1.0369 2.765,4e-4 5.53,0.1732 8.2952,0.5185 3.1106,4e-4 6.0485,0.1732 8.8137,0.5184 5.1844,0.346 10.3689,0.6917 15.5536,1.0369 5.1844,4e-4 10.3689,4e-4 15.5535,0 6.567,4e-4 12.9612,4e-4 19.1828,0 6.5669,-0.3452 13.1339,-0.6909 19.7012,-1.0369 10.0232,4e-4 16.7631,1.5558 20.2196,4.6661 3.8018,3.1111 6.5669,9.5053 8.2952,19.1828 0.3455,1.7285 0.8639,4.4935 1.5554,8.2952 1.0367,3.8023 1.9008,7.9499 2.5923,12.4428 1.0367,4.148 1.9008,8.1228 2.5922,11.9244 0.6911,3.4567 1.0367,5.8761 1.0369,7.2584 0.3455,1.7285 0.6911,4.8392 1.0369,9.3321 0.6911,4.1479 1.3824,8.814 2.0738,13.9982 0.6911,4.8392 1.2096,9.5053 1.5554,13.9982 0.6911,4.4936 1.2095,7.6043 1.5554,9.3322 0.3454,3.111 1.2095,8.6411 2.5922,16.5905 1.728,7.9498 3.4561,16.5907 5.1845,25.9226 2.0736,8.9867 3.8018,17.6276 5.1846,25.9226 1.7279,7.9498 2.9376,13.6528 3.6291,17.1089 0.6911,3.4565 1.2095,6.3944 1.5554,8.8137 0.3454,2.4196 0.691,5.1847 1.0369,8.2953 0.3454,2.7652 0.691,6.0487 1.0369,9.8505 0.3454,3.8022 0.8639,8.9867 1.5554,15.5536 1.0366,11.0605 2.4192,21.9479 4.1476,32.6625 2.0735,10.7148 4.1473,21.6023 6.2214,32.6625 1.0367,4.1477 1.9007,8.4681 2.5923,12.9613 1.0366,4.1477 2.0735,8.2953 3.1107,12.4429 1.0366,5.1845 1.5551,10.369 1.5553,15.5535 -2e-4,5.8759 -1.5556,11.0604 -4.666,15.5536 -2.7654,4.1476 -6.5673,6.2214 -11.406,6.2214 -1.3828,0 -3.8022,0 -7.2583,0 -3.111,-0.3456 -6.5673,-0.5184 -10.3691,-0.5184 -3.4565,-0.3456 -6.9129,-0.5185 -10.369,-0.5185 -3.4566,-0.3456 -5.876,-0.5184 -7.2583,-0.5184 -1.0372,0 -2.7653,0.1728 -5.1846,0.5184 -2.4196,0 -5.1847,0.1729 -8.2952,0.5185 -2.7653,0 -5.5303,0.1728 -8.2952,0.5184 -2.4197,0 -4.1478,0 -5.1846,0 -4.1478,0 -7.4313,-0.6912 -9.8506,-2.0738 -2.0739,-1.3825 -3.8021,-3.1107 -5.1845,-5.1845 -1.037,-2.0738 -1.7283,-4.1476 -2.0738,-6.2214 -2e-4,-2.0738 -2e-4,-3.802 0,-5.1845 -2e-4,-3.802 -0.173,-7.604 -0.5184,-11.406 -0.3458,-3.8019 -0.8643,-7.6039 -1.5554,-11.4059 -0.6914,-5.8758 -1.5555,-10.1962 -2.5923,-12.9614 -0.6914,-3.1106 -2.4196,-5.3572 -5.1845,-6.7398 -1.3827,-0.6912 -12.443,-1.0369 -33.1809,-1.0369 -5.5303,0 -9.5051,0.3457 -11.9244,1.0369 -2.4196,0.6913 -4.3206,2.0738 -5.703,4.1476 -0.6914,1.0369 -1.3827,3.2836 -2.0738,6.7399 -0.3458,3.4564 -0.6914,7.2583 -1.0369,11.4059 -0.3458,4.1477 -0.6914,8.1225 -1.0369,11.9244 -0.3458,3.802 -0.5186,6.3943 -0.5185,7.7768 -0.3457,7.9496 -2.2467,13.1341 -5.703,15.5536 -3.4564,2.4194 -7.4312,3.6291 -11.9244,3.6291 -1.0369,0 -2.7651,0 -5.1845,0 -2.0739,-0.3456 -4.4933,-0.5184 -7.2583,-0.5184 -2.4195,-0.3456 -4.839,-0.5185 -7.2584,-0.5185 -2.4195,-0.3456 -4.1476,-0.5184 -5.1845,-0.5184 -1.0369,0 -3.1107,0 -6.2214,0 -2.7651,0 -5.8758,0.1728 -9.3321,0.5184 -3.4564,0 -6.74,0 -9.8506,0 -2.7651,0 -4.839,0 -6.2215,0 -2.0738,0 -4.1476,0 -6.2214,0 -2.0738,0 -4.1476,-0.3456 -6.2214,-1.0369 -3.4564,-1.0369 -5.8758,-2.9379 -7.2584,-5.7029 -1.0369,-3.1107 -1.5553,-5.5302 -1.5553,-7.2584 0,-0.6912 0.5184,-4.4932 1.5553,-11.4059 1.3826,-7.2583 2.7651,-15.2079 4.1477,-23.8488 1.3825,-8.6408 2.765,-16.5904 4.1476,-23.8488 1.3825,-7.2583 2.0738,-11.4059 2.0738,-12.4429 0.6912,-2.765 1.2097,-5.7029 1.5553,-8.8137 0.6913,-3.1106 1.3826,-6.2213 2.0739,-9.3321 0.3456,-1.7281 0.864,-4.8388 1.5553,-9.3322 0.6913,-4.8387 1.3825,-9.8504 2.0738,-15.0351 0.6913,-5.53 1.3825,-10.5417 2.0738,-15.0351 0.6913,-4.8387 1.2097,-8.2951 1.5554,-10.3691 m 89.6922,-37.847 c -0.6913,3.8022 -1.3826,7.6042 -2.0738,11.406 -0.6913,3.8021 -1.037,7.6041 -1.0369,11.4059 -10e-5,6.9129 1.0368,11.9246 3.1107,15.0351 2.4194,2.7653 6.567,4.1478 12.4429,4.1477 1.3824,10e-5 3.2834,10e-5 5.703,0 2.4193,-0.3455 4.6659,-1.0368 6.7399,-2.0738 2.0736,-1.0368 3.8018,-2.765 5.1845,-5.1846 1.728,-2.4192 2.5921,-5.8756 2.5922,-10.369 -10e-5,-4.1475 -0.1729,-8.2951 -0.5184,-12.4429 -0.3458,-3.8018 -0.6914,-7.9494 -1.0369,-12.4428 -0.3458,-4.8387 -0.8642,-9.6776 -1.5554,-14.5167 -0.6914,-4.1474 -1.3827,-8.295 -2.0738,-12.4428 -0.6914,-4.1474 -1.3827,-8.2951 -2.0738,-12.4429 -0.6914,-3.4561 -1.2099,-6.7396 -1.5553,-9.8506 -2e-4,-3.1105 -0.3458,-6.2212 -1.037,-9.3321 -0.6914,-4.1474 -1.7283,-6.7397 -3.1107,-7.7768 -1.3826,-1.3823 -2.4195,-2.0736 -3.1107,-2.0738 -1.7283,2e-4 -3.1108,1.7284 -4.1476,5.1845 -1.037,3.111 -1.7283,5.7032 -2.0738,7.7768 -0.6914,3.1109 -1.5555,6.7401 -2.5923,10.8875 -0.6914,4.1478 -1.3826,7.6042 -2.0738,10.369 -1.7283,5.876 -2.938,11.7518 -3.6291,17.6274 -0.3458,5.5304 -1.0371,11.2333 -2.0739,17.1089"
           id="path3036"
           style="font-variant:normal;font-stretch:normal;letter-spacing:-7.8599987px;fill:#000000;font-family:Block Berthold;-inkscape-font-specification:Block Berthold" />
        <path
           d="m -3808.5015,1916.3256 c 2.4194,4e-4 6.567,4e-4 12.4429,0 6.2213,-0.3453 12.7883,-0.5181 19.7011,-0.5185 7.2583,-0.3452 13.9981,-0.518 20.2197,-0.5184 6.2213,-0.3453 10.7145,-0.5181 13.4797,-0.5185 17.9729,4e-4 32.8352,2.0742 44.5869,6.2215 12.0971,4.1479 21.9476,9.5053 29.5518,16.072 7.9494,6.2218 14.1708,13.4801 18.6643,21.775 4.493,7.9499 8.295,15.8995 11.406,23.8488 1.7279,4.4935 3.1104,10.3693 4.1476,17.6274 1.0366,6.9129 1.7279,13.8256 2.0738,20.7381 0.691,6.5673 1.0366,12.6159 1.0369,18.1458 0.3454,5.5304 0.5182,8.9867 0.5185,10.369 -3e-4,11.7518 -1.0372,23.3306 -3.1108,34.7363 -2.074,11.0606 -6.2216,22.6393 -12.4428,34.7364 -1.0372,1.7283 -3.6294,5.8759 -7.7768,12.4428 -3.8022,6.2216 -9.1596,12.2702 -16.072,18.1458 -2.7653,2.4196 -4.8391,4.3206 -6.2215,5.703 -1.0371,1.3827 -1.5555,3.1109 -1.5553,5.1845 -2e-4,2.074 1.0367,5.5303 3.1107,10.3691 2.4192,4.4933 5.0115,9.3322 7.7768,14.5167 2.7648,5.1846 5.3571,10.0235 7.7768,14.5166 2.7648,4.4934 4.493,7.7769 5.1845,9.8506 1.0367,2.4195 1.9007,4.839 2.5923,7.2583 1.0366,2.0739 1.9007,4.1477 2.5922,6.2215 l 6.2214,12.4428 c 3.4561,6.9128 6.2212,12.4429 8.2953,16.5905 2.0735,3.802 3.6289,6.9127 4.6661,9.3321 1.0366,2.4195 1.7279,4.3205 2.0738,5.703 0.3453,1.3826 0.5182,2.5923 0.5184,3.6292 -2e-4,3.1107 -1.21,5.703 -3.6291,7.7768 -2.4198,2.0738 -5.5305,3.1107 -9.3322,3.1107 -1.0371,0 -2.9381,0 -5.703,0 -2.4197,-0.3456 -5.0119,-0.5185 -7.7768,-0.5185 -2.7653,0 -5.5303,0 -8.2952,0 -2.4197,-0.3456 -4.1478,-0.5184 -5.1845,-0.5184 -1.7284,0 -4.1478,0 -7.2583,0 -2.7653,0 -5.876,0.1728 -9.3322,0.5184 -3.1109,0 -6.2216,0.1729 -9.3321,0.5185 -3.1109,0 -5.3576,0 -6.7399,0 -1.7284,0 -3.4565,0.1728 -5.1845,0.5184 -1.3828,0 -2.9381,0 -4.6661,0 -4.8391,0 -8.2954,-0.6912 -10.369,-2.0738 -2.074,-1.3825 -3.975,-3.4563 -5.703,-6.2214 -0.3458,-0.6913 -1.0371,-2.0738 -2.0738,-4.1476 -1.0371,-2.4194 -2.074,-4.8389 -3.1107,-7.2584 -1.0371,-2.4194 -2.074,-4.666 -3.1108,-6.7398 -0.6914,-2.4194 -1.2098,-4.1476 -1.5553,-5.1846 -2.074,-4.4932 -4.4934,-8.8136 -7.2584,-12.9613 -2.4195,-4.4932 -4.6662,-9.1592 -6.7398,-13.9982 l -4.6661,-10.8875 c -2.7652,-6.2213 -5.5303,-11.9243 -8.2952,-17.1089 -2.7652,-5.5301 -5.5303,-8.2951 -8.2953,-8.2952 -3.8021,10e-5 -6.0487,1.5554 -6.7399,4.666 -0.3457,3.1108 -0.5185,5.5303 -0.5184,7.2584 -10e-5,1.037 -10e-5,2.9379 0,5.7029 0.3455,2.4196 0.5183,5.1846 0.5184,8.2953 -10e-5,3.1108 -10e-5,6.0487 0,8.8137 0.3456,2.7651 0.5184,4.6661 0.5185,5.7029 -1e-4,0.6914 -1e-4,2.0739 0,4.1477 -1e-4,2.0738 -0.1729,4.3204 -0.5185,6.7398 -10e-5,2.0739 -10e-5,4.1477 0,6.2215 -10e-5,1.7282 -10e-5,3.1107 0,4.1476 -10e-5,1.3826 0.1727,4.8389 0.5185,10.369 0.3455,5.1846 0.5183,8.6409 0.5184,10.3691 -10e-5,5.5301 -1.7282,9.1593 -5.1845,10.8875 -3.1108,1.3825 -5.5302,2.0738 -7.2583,2.0738 -1.037,0 -2.0739,0 -3.1107,0 -0.6914,-0.3456 -1.5555,-0.5185 -2.5923,-0.5185 -2.4195,-0.3456 -6.3943,-0.5184 -11.9244,-0.5184 -5.5302,-0.3456 -9.6778,-0.5185 -12.4428,-0.5185 -1.037,0 -3.2836,0.1729 -6.7399,0.5185 -3.4564,0 -7.2584,0.1728 -11.406,0.5184 -3.802,0.3457 -7.4312,0.6913 -10.8875,1.0369 -3.4564,0 -5.8758,0 -7.2583,0 -5.1846,0 -9.3322,-1.7281 -12.4429,-5.1845 -2.7651,-3.4563 -4.1476,-7.6039 -4.1476,-12.4428 0,-2.4195 0.1728,-4.1476 0.5185,-5.1846 0.6912,-13.134 1.2097,-23.6759 1.5553,-31.6256 0.3456,-7.9495 0.5185,-14.1709 0.5185,-18.6642 0,-2.4194 -0.1729,-6.9127 -0.5185,-13.4798 0,-6.9126 -0.1728,-14.1709 -0.5184,-21.775 -0.3457,-7.6038 -0.6913,-14.8622 -1.0369,-21.775 0,-6.9126 0,-11.7514 0,-14.5167 0,-2.4193 0,-6.9125 0,-13.4797 0.3456,-6.9126 0.5184,-14.1709 0.5184,-21.775 0.3456,-7.6038 0.5185,-14.6893 0.5185,-21.2566 0.3456,-6.9125 0.5184,-11.7513 0.5184,-14.5166 0,-1.728 -0.1728,-4.6659 -0.5184,-8.8137 0,-4.493 0,-9.1591 0,-13.9982 0,-4.8387 -0.1729,-9.5047 -0.5185,-13.9982 0,-4.493 0,-7.6037 0,-9.3322 0,-1.7279 0,-5.0114 0,-9.8506 0.3456,-4.8386 0.5185,-9.8503 0.5185,-15.0351 0,-5.5299 0,-10.5416 0,-15.0351 0.3456,-4.8386 0.5184,-8.2949 0.5184,-10.3691 0,-1.0366 -0.1728,-2.9375 -0.5184,-5.7029 0,-3.1104 0,-6.2211 0,-9.3322 0,-3.1104 -0.1729,-6.0483 -0.5185,-8.8137 0,-3.1103 0,-5.1841 0,-6.2214 0,-8.9862 2.5923,-15.3804 7.7768,-19.1827 5.1845,-4.1473 11.9244,-6.2211 20.2196,-6.2215 1.0369,4e-4 3.1107,4e-4 6.2215,0 3.4563,4e-4 6.9126,0.1732 10.369,0.5185 3.8019,4e-4 7.2583,4e-4 10.3691,0 3.4562,4e-4 5.8757,4e-4 7.2583,0 m 51.3268,85.0262 c -5.1847,3e-4 -9.1595,1.0372 -11.9244,3.1107 -2.7652,1.7284 -4.839,4.1479 -6.2214,7.2583 -1.0371,2.7654 -1.7283,5.7033 -2.0739,8.8137 -0.3457,2.7654 -0.5185,5.1848 -0.5184,7.2583 -10e-5,1.0372 -0.1729,3.2838 -0.5185,6.7399 -10e-5,3.4566 -10e-5,7.0858 0,10.8875 -10e-5,3.8022 -0.1729,7.4314 -0.5184,10.8875 -10e-5,3.4566 -10e-5,5.876 0,7.2584 -10e-5,5.5303 1.728,11.0605 5.1845,16.5904 3.8019,5.1848 9.332,7.777 16.5905,7.7768 7.6038,2e-4 13.3068,-1.728 17.1089,-5.1845 3.8018,-3.8018 6.3941,-8.4679 7.7768,-13.9982 0.3455,-1.0367 0.5183,-2.9377 0.5184,-5.703 0.3455,-3.1105 0.5183,-6.2212 0.5185,-9.3321 0.3455,-3.1105 0.5183,-6.0484 0.5185,-8.8137 0.3454,-2.7649 0.5182,-4.8387 0.5184,-6.2215 -2e-4,-9.6775 -2.2468,-18.3183 -6.7399,-25.9226 -4.4934,-7.6037 -11.2333,-11.4056 -20.2196,-11.4059"
           id="path3038"
           style="font-variant:normal;font-stretch:normal;letter-spacing:-7.8599987px;fill:#000000;font-family:Block Berthold;-inkscape-font-specification:Block Berthold" />
        <path
           d="m -3596.5661,1939.1375 c 0,-2.0735 0,-4.4929 0,-7.2583 0.3457,-2.7648 1.0369,-5.1842 2.0739,-7.2584 1.0368,-2.4191 2.765,-4.4929 5.1845,-6.2214 2.4194,-1.7278 5.8757,-2.5919 10.369,-2.5923 1.0369,4e-4 2.7651,0.1732 5.1845,0.5185 2.4194,4e-4 5.0117,0.1732 7.7768,0.5184 3.1107,4e-4 6.0486,0.1732 8.8137,0.5185 2.765,4e-4 4.666,4e-4 5.703,0 2.765,4e-4 5.1844,4e-4 7.2583,0 2.4194,-0.3453 4.8388,-0.5181 7.2584,-0.5185 2.765,-0.3452 5.1844,-0.518 7.2583,-0.5184 2.4193,4e-4 4.8388,4e-4 7.2583,0 2.0737,4e-4 4.3204,0.1732 6.7399,0.5184 2.4193,4e-4 4.666,0.5189 6.7399,1.5554 2.0737,0.6916 3.8019,2.0742 5.1845,4.1476 1.3824,2.0742 2.0737,5.0121 2.0738,8.8137 -1e-4,1.7285 -0.1729,3.2839 -0.5184,4.6661 -1e-4,1.0372 -1e-4,2.4198 0,4.1476 -0.3458,2.7654 -0.6914,6.2218 -1.0369,10.369 -0.3458,3.8024 -0.6914,7.95 -1.0369,12.4429 -2e-4,4.4936 -0.173,8.9868 -0.5185,13.4798 -10e-5,4.1479 -10e-5,7.9499 0,11.4059 -10e-5,1.3828 -10e-5,3.8023 0,7.2583 0.3455,3.111 0.5183,6.7402 0.5185,10.8875 -2e-4,3.8023 -2e-4,7.4315 0,10.8875 0.3455,3.4567 0.5183,5.8761 0.5184,7.2584 -10e-5,1.0371 -0.1729,2.9381 -0.5184,5.703 -2e-4,2.7653 -2e-4,5.876 0,9.3321 -2e-4,3.111 -0.173,6.2217 -0.5185,9.3321 -10e-5,2.7653 -10e-5,4.6663 0,5.703 -10e-5,1.0371 -10e-5,2.9381 0,5.703 0.3455,2.4197 0.5183,5.1847 0.5185,8.2952 0.3455,3.111 0.5183,6.0488 0.5184,8.8137 0.3455,2.7653 0.5183,4.6663 0.5185,5.703 -2e-4,1.0371 -0.173,2.5925 -0.5185,4.6661 -10e-5,1.7283 -10e-5,4.4934 0,8.2952 -0.3457,4.1478 -0.5186,8.8139 -0.5184,13.9982 -2e-4,4.8391 -2e-4,9.5051 0,13.9982 -2e-4,1.0371 -2e-4,2.7653 0,5.1845 0.3455,2.074 0.5183,4.4935 0.5184,7.2584 -10e-5,2.7652 -10e-5,5.3575 0,7.7768 0.3455,2.4195 0.5183,4.1477 0.5185,5.1845 -2e-4,0.6914 -0.173,2.938 -0.5185,6.7399 -10e-5,3.8021 -10e-5,6.2215 0,7.2583 -10e-5,6.9128 1.5553,13.3071 4.6661,19.1827 3.1106,5.8759 9.1592,9.3323 18.1458,10.3691 1.0368,1e-4 2.5921,0.1729 4.6661,0.5184 2.0736,1e-4 4.1475,1e-4 6.2214,0 2.4193,1e-4 4.6659,1e-4 6.7399,0 2.4193,1e-4 4.3203,1e-4 5.703,0 1.3823,1e-4 4.3202,-0.1727 8.8137,-0.5184 4.493,-0.3456 7.6037,-0.5184 9.3321,-0.5185 5.1843,1e-4 9.1591,0.8642 11.9244,2.5923 2.7649,1.3826 4.8387,3.9749 6.2214,7.7768 1.3824,3.4564 2.0736,8.2953 2.0738,14.5166 0.3455,5.8759 0.5183,13.307 0.5185,22.2935 -2e-4,1.0369 -0.173,2.9379 -0.5185,5.703 -2e-4,2.4195 -2e-4,5.1845 0,8.2952 -2e-4,3.1107 -0.173,6.0486 -0.5184,8.8137 -2e-4,2.7651 -2e-4,4.6661 0,5.703 -2e-4,4.1476 -0.8643,7.4311 -2.5923,9.8506 -1.7283,2.0738 -3.6293,3.4563 -5.703,4.1476 -1.037,0.6913 -2.2468,1.2097 -3.6291,1.5553 -1.0371,0 -2.9381,0 -5.703,0 -1.7283,0 -5.3575,-0.1728 -10.8875,-0.5184 -5.1847,-0.3456 -8.641,-0.5185 -10.369,-0.5185 -1.0371,0 -2.7653,0 -5.1846,0 -2.0739,0 -4.3205,0 -6.7398,0 -2.4196,0 -4.8391,0 -7.2584,0 -2.0739,0 -3.6293,0 -4.666,0 -2.4196,0 -6.7401,0 -12.9614,0 -6.2215,0 -12.7886,0 -19.7011,0 -6.9128,0 -13.6527,0 -20.2197,0 -6.2215,0 -10.5419,0 -12.9613,0 -1.037,0 -2.938,0.1729 -5.703,0.5185 -2.7651,0 -5.8758,0 -9.3321,0 -3.1108,0 -6.2215,0.1728 -9.3322,0.5184 -2.7651,0 -4.6661,0 -5.7029,0 -7.9497,0 -13.307,-1.9009 -16.072,-5.7029 -2.7651,-4.1476 -4.1477,-8.1224 -4.1477,-11.9244 0,-1.3826 0,-4.3205 0,-8.8137 0.3456,-4.8389 0.5185,-7.9496 0.5185,-9.3322 0,-6.567 0.1728,-13.134 0.5184,-19.7012 0.3457,-6.567 0.5185,-13.134 0.5185,-19.7011 0,-0.3456 -0.1728,-3.1107 -0.5185,-8.2953 0,-5.1844 -0.1728,-10.8874 -0.5184,-17.1089 0,-6.567 -0.1729,-12.9612 -0.5185,-19.1827 0,-6.2213 0,-10.369 0,-12.4429 0,-1.0368 0,-3.1106 0,-6.2214 0.3456,-3.1106 0.5185,-6.2213 0.5185,-9.3322 0.3456,-3.4562 0.6912,-6.7397 1.0369,-9.8506 0.3456,-3.1105 0.5184,-5.3571 0.5184,-6.7398 0.3457,-2.0737 0.5185,-3.9747 0.5185,-5.703 0,-2.0737 0,-4.1475 0,-6.2214 0,-1.0368 -0.1728,-3.1106 -0.5185,-6.2215 0,-3.4561 0,-6.9125 0,-10.369 0,-3.8018 -0.1728,-7.2582 -0.5184,-10.3691 0,-3.1105 0,-5.3571 0,-6.7399 0,-1.0366 0,-2.7648 0,-5.1845 0,-2.4192 0,-5.0115 0,-7.7768 0.3456,-3.1104 0.5184,-5.8755 0.5184,-8.2952 0,-2.4192 0,-4.1474 0,-5.1845 0,-4.8387 -0.1728,-9.5047 -0.5184,-13.9982 0,-4.8387 0,-9.6775 0,-14.5167 0,-1.3823 0,-3.8017 0,-7.2583 0.3456,-3.8017 0.5184,-7.7765 0.5184,-11.9244 0,-4.1474 0,-7.9493 0,-11.406 0.3457,-3.8017 0.5185,-6.5667 0.5185,-8.2952 0,-6.9124 -0.1728,-13.6523 -0.5185,-20.2197 0,-6.5667 0,-13.3066 0,-20.2196"
           id="path3040"
           style="font-variant:normal;font-stretch:normal;letter-spacing:-7.8599987px;fill:#000000;font-family:Block Berthold;-inkscape-font-specification:Block Berthold" />
        <path
           d="m -3306.077,2131.4833 c -10e-5,2.074 -10e-5,5.7031 0,10.8875 0.3455,4.839 0.6911,10.1964 1.0369,16.072 0.3455,5.5303 0.5183,11.0605 0.5184,16.5905 0.3456,5.1846 0.5184,8.8138 0.5185,10.8875 -10e-5,1.3826 -0.1729,3.9749 -0.5185,7.7768 -1e-4,3.8021 -0.1729,7.7769 -0.5184,11.9244 -10e-5,4.1477 -0.1729,8.1225 -0.5185,11.9244 -1e-4,3.802 -1e-4,6.3943 0,7.7768 -1e-4,1.7282 -1e-4,4.6661 0,8.8137 0.3456,3.802 0.6912,8.1224 1.0369,12.9613 0.3456,4.4933 0.5184,8.8137 0.5185,12.9613 0.3455,4.1476 0.5183,7.0855 0.5184,8.8137 -10e-5,3.1107 -1.2098,6.2214 -3.6291,9.3321 -2.0739,2.7651 -6.2216,4.1476 -12.4429,4.1476 -0.6913,0 -2.0739,0 -4.1476,0 -2.0739,-0.3456 -4.3205,-0.5184 -6.7399,-0.5184 -2.0739,0 -4.1477,0 -6.2214,0 -2.0739,-0.3456 -3.6292,-0.5185 -4.6661,-0.5185 -1.3826,0 -3.802,0.1729 -7.2583,0.5185 -3.1108,0 -6.5671,0.1728 -10.3691,0.5184 -3.802,0 -7.4312,0.1729 -10.8875,0.5185 -3.1107,0 -5.3573,0 -6.7398,0 l -3.1107,0 c -0.6914,0 -2.0739,0 -4.1477,0 -1.7282,-0.3456 -3.6292,-0.8641 -5.7029,-1.5554 -2.0739,-0.6912 -3.9749,-1.7281 -5.703,-3.1107 -1.7282,-1.7281 -2.9379,-3.9748 -3.6292,-6.7399 0,-0.3456 -0.1728,-2.0738 -0.5184,-5.1845 -10e-5,-3.4563 -10e-5,-7.0855 0,-10.8875 -10e-5,-3.8019 -10e-5,-7.4311 0,-10.8875 -10e-5,-3.4563 -10e-5,-5.7029 0,-6.7399 -10e-5,-1.0368 -10e-5,-3.1106 0,-6.2214 0.3456,-3.1106 0.5184,-6.3942 0.5184,-9.8506 0.3456,-3.4563 0.5185,-6.7398 0.5185,-9.8506 0.3456,-3.1106 0.5184,-5.3572 0.5184,-6.7399 l 0,-37.847 c 0,-2.0737 -0.1728,-5.53 -0.5184,-10.369 0,-5.1844 -0.1729,-10.5418 -0.5185,-16.072 0,-5.8757 -0.1728,-11.233 -0.5184,-16.0721 -10e-5,-5.1843 -10e-5,-8.8135 0,-10.8875 l 0,-64.8065 c -10e-5,-2.0736 -10e-5,-5.7027 0,-10.8875 0.3456,-5.1843 0.5184,-10.7144 0.5184,-16.5905 0.3456,-5.8755 0.5185,-11.4057 0.5185,-16.5905 0.3456,-5.5298 0.5184,-9.3318 0.5184,-11.4059 l 0,-35.2548 c 0,-1.0365 -0.1728,-2.5919 -0.5184,-4.666 0,-2.4192 -0.1729,-5.0114 -0.5185,-7.7768 0,-2.7648 -0.1728,-5.1842 -0.5184,-7.2584 -10e-5,-2.4191 -10e-5,-4.1472 0,-5.1845 -10e-5,-4.8385 1.0369,-8.2949 3.1107,-10.369 2.0738,-2.4191 3.8019,-3.9745 5.1845,-4.6661 1.7281,-0.6909 3.4563,-1.0365 5.1845,-1.0369 2.0738,-0.3453 5.5301,-0.5181 10.3691,-0.5185 1.0368,4e-4 3.1106,4e-4 6.2214,0 3.1107,4e-4 6.2214,0.1732 9.3321,0.5185 3.4563,4e-4 6.7399,4e-4 9.8506,0 3.1107,4e-4 5.3573,4e-4 6.7399,0 3.1107,4e-4 6.2214,4e-4 9.3322,0 3.1106,4e-4 6.2213,-0.1725 9.3321,-0.5185 0.6912,4e-4 2.0737,4e-4 4.1476,0 2.4194,-0.3452 3.9747,-0.518 4.6661,-0.5184 3.1106,4e-4 5.53,0.8644 7.2583,2.5923 1.7281,1.7285 2.9378,3.8023 3.6292,6.2214 0.6911,2.0741 1.0368,4.148 1.0369,6.2214 0.3455,2.0742 0.5183,3.4567 0.5184,4.1476 -10e-5,1.0373 -0.1729,2.9383 -0.5184,5.703 -10e-5,2.4198 -0.1729,5.1849 -0.5185,8.2952 -1e-4,3.1111 -0.1729,6.049 -0.5184,8.8137 -10e-5,2.7654 -10e-5,4.6664 0,5.703 -10e-5,3.111 -0.1729,6.0489 -0.5185,8.8137 -1e-4,2.7654 -1e-4,6.5674 0,11.4059 -1e-4,4.8392 -1e-4,11.2335 0,19.1828 -1e-4,7.9499 -1e-4,18.6645 0,32.144 -1e-4,1.3828 -1e-4,3.9751 0,7.7768 -1e-4,3.4566 -1e-4,7.2586 0,11.406 0.3456,4.1478 0.5184,8.1226 0.5185,11.9244 -10e-5,3.8022 -10e-5,6.3944 0,7.7768 -10e-5,1.0371 -0.1729,3.1109 -0.5185,6.2214 -1e-4,2.7653 -1e-4,5.876 0,9.3321 -1e-4,3.4566 -0.1729,6.7401 -0.5184,9.8506 -10e-5,2.7653 -10e-5,4.8391 0,6.2214 l 0,25.4042"
           id="path3042"
           style="font-variant:normal;font-stretch:normal;letter-spacing:-7.8599987px;fill:#000000;font-family:Block Berthold;-inkscape-font-specification:Block Berthold" />
        <path
           d="m -3106.8355,1916.844 c 1.3824,4e-4 4.1474,4e-4 8.2952,0 4.1475,-0.3452 6.9125,-0.518 8.2953,-0.5184 4.8387,4e-4 8.6406,1.5557 11.4059,4.6661 2.7649,2.7654 4.1474,6.5674 4.1476,11.4059 -2e-4,1.0373 -0.173,2.9383 -0.5184,5.703 -2e-4,2.4198 -0.173,5.1849 -0.5185,8.2952 -2e-4,3.1111 -0.173,6.049 -0.5184,8.8137 -2e-4,2.7654 -2e-4,4.6664 0,5.703 -2e-4,1.0372 -2e-4,3.8023 0,8.2952 0.3454,4.4936 0.5182,7.6043 0.5184,9.3322 -2e-4,3.8023 -1.0371,8.1227 -3.1107,12.9613 -1.7284,4.4935 -6.9129,7.0858 -15.5535,7.7768 -0.6915,0.3459 -2.2469,0.5187 -4.6661,0.5184 -2.074,-0.3453 -3.4565,-0.5182 -4.1476,-0.5184 -1.0371,2e-4 -3.6294,0.1731 -7.7768,0.5184 -4.1478,0.3459 -6.9129,0.5188 -8.2953,0.5185 -0.6914,3e-4 -2.0739,3e-4 -4.1476,0 -2.0739,-0.3454 -4.3206,-0.5182 -6.7399,-0.5185 -2.0739,-0.3453 -4.1477,-0.5182 -6.2214,-0.5184 -2.0739,-0.3454 -3.6293,-0.5182 -4.6661,-0.5185 -10.0235,3e-4 -16.9362,0.8644 -20.738,2.5923 -3.4565,1.7284 -6.0488,3.8022 -7.7768,6.2214 -1.037,1.7285 -1.7283,3.6294 -2.0738,5.703 -2e-4,1.7284 -2e-4,6.2217 0,13.4797 -2e-4,1.3828 -2e-4,3.4566 0,6.2215 0.3455,2.7653 1.0368,5.7032 2.0738,8.8137 1.3824,2.7653 3.2834,5.1847 5.7029,7.2583 2.4194,2.074 5.8757,3.1109 10.3691,3.1107 1.0368,2e-4 3.4562,-0.1726 7.2583,-0.5184 4.1475,-0.3455 6.9126,-0.5183 8.2953,-0.5185 0.6911,2e-4 2.0736,0.173 4.1476,0.5185 2.0736,2e-4 4.1474,2e-4 6.2214,0 2.4193,2e-4 4.4931,0.173 6.2214,0.5184 2.0737,2e-4 3.629,2e-4 4.6661,0 1.0367,2e-4 3.629,2e-4 7.7768,0 4.4931,-0.3454 7.431,-0.5182 8.8137,-0.5184 7.9494,2e-4 13.3067,1.7284 16.072,5.1845 2.7649,3.1109 4.1474,8.2954 4.1476,15.5535 -2e-4,0.6915 -0.173,2.0741 -0.5184,4.1477 -2e-4,2.074 -2e-4,4.3206 0,6.7398 -2e-4,2.0741 -0.1731,4.1479 -0.5185,6.2215 -2e-4,2.074 -2e-4,3.6293 0,4.666 -2e-4,0.6915 -2e-4,2.074 0,4.1477 0.3454,2.074 0.5183,4.3206 0.5185,6.7398 -2e-4,2.074 -2e-4,4.1478 0,6.2215 0.3454,2.0739 0.5182,3.6293 0.5184,4.666 -2e-4,4.1478 -0.5186,7.2585 -1.5553,9.3322 -2.7653,5.8759 -6.0488,9.3323 -9.8506,10.369 -3.4566,1.0371 -7.0857,1.5555 -10.8875,1.5554 -1.3827,1e-4 -4.1478,1e-4 -8.2953,0 -3.8021,-0.3455 -7.9497,-0.6911 -12.4428,-1.0369 -4.4934,-0.3455 -8.8139,-0.5183 -12.9613,-0.5185 -4.1478,-0.3455 -6.9129,-0.5183 -8.2953,-0.5184 -4.1477,10e-5 -8.641,0.5186 -13.4797,1.5553 -4.4934,0.6914 -8.1226,3.4565 -10.8875,8.2953 -1.3827,2.4196 -2.2468,5.7031 -2.5923,9.8506 -1e-4,4.1477 -1e-4,9.8507 0,17.1089 -1e-4,5.1846 0.5184,10.0235 1.5554,14.5167 1.0368,4.1477 4.8387,7.0856 11.4059,8.8136 2.765,0.6914 6.0485,1.2099 9.8506,1.5554 3.8019,10e-5 7.431,10e-5 10.8875,0 2.7649,0.3457 5.3572,0.6914 7.7768,1.0369 2.4193,0.3457 4.8387,0.6914 7.2583,1.0369 1.728,0.3457 3.4562,0.5185 5.1846,0.5185 2.0736,0 3.9746,0 5.7029,0 2.0737,0 4.1475,0 6.2215,0 2.0736,0 3.9746,-0.1728 5.7029,-0.5185 1.728,-0.3455 3.4562,-0.5184 5.1846,-0.5184 1.7279,-0.3456 3.4561,-0.5184 5.1845,-0.5185 3.4561,10e-5 7.4309,1.3826 11.9244,4.1476 4.8387,2.4196 7.2581,7.2584 7.2583,14.5167 -2e-4,1.7282 -2e-4,3.2836 0,4.6661 -2e-4,1.3826 -0.173,2.9379 -0.5184,4.666 -0.3459,2.7652 -0.5187,5.5302 -0.5185,8.2953 -2e-4,2.7651 -2e-4,5.0117 0,6.7399 -2e-4,0.6913 -2e-4,2.0738 0,4.1476 -2e-4,2.0738 -2e-4,4.3204 0,6.7399 0.3454,2.4194 0.5183,4.666 0.5185,6.7398 -2e-4,2.0739 -2e-4,3.6292 0,4.6661 -2e-4,8.6409 -2.4197,14.3439 -7.2584,17.1089 -4.4934,2.4195 -8.2954,3.6292 -11.4059,3.6292 -1.3828,0 -4.4935,-0.1728 -9.3322,-0.5185 -4.4934,-0.3456 -7.4313,-0.5184 -8.8137,-0.5184 -1.3827,0 -4.3206,0.1728 -8.8136,0.5184 -4.1478,0 -7.0857,0 -8.8137,0 -5.5303,0 -11.0605,-0.1728 -16.5905,-0.5184 -5.1847,-0.3456 -10.542,-0.5185 -16.072,-0.5185 -1.3827,0 -4.4934,0.1729 -9.3322,0.5185 -4.4933,0 -7.604,0 -9.3321,0 -1.3827,0 -4.3206,0 -8.8137,0 -4.4933,-0.3456 -7.4312,-0.5185 -8.8137,-0.5185 -1.037,0 -3.1108,0 -6.2214,0 -3.1108,0 -6.3943,0.1729 -9.8506,0.5185 -3.4564,0 -6.74,0 -9.8506,0 -3.1108,0 -5.1846,0 -6.2214,0 -1.7283,0 -5.0118,0.1728 -9.8506,0.5184 -4.839,0 -8.1225,0 -9.8506,0 -6.2215,0 -11.406,-1.9009 -15.5536,-5.7029 -3.802,-4.1476 -5.703,-8.9865 -5.703,-14.5167 0,-1.0369 0,-2.0738 0,-3.1107 0.3456,-1.0369 0.5185,-2.0738 0.5185,-3.1107 0.6912,-5.5302 1.0369,-11.2331 1.0369,-17.109 0,-5.8757 0,-11.0602 0,-15.5535 0,-1.0369 0,-3.1107 0,-6.2215 0,-3.1106 -0.1728,-6.3941 -0.5185,-9.8505 0,-3.4563 0,-6.7398 0,-9.8506 0,-3.1107 0,-5.1845 0,-6.2215 0,-1.0368 0,-2.5921 0,-4.666 0.3457,-2.4194 0.5185,-4.8388 0.5185,-7.2584 0.3456,-2.7649 0.5184,-5.1844 0.5184,-7.2583 0.3457,-2.4193 0.5185,-4.1475 0.5185,-5.1845 0,-1.0368 0,-2.5922 0,-4.6661 0,-2.4193 -0.1728,-4.8388 -0.5185,-7.2583 0,-2.4193 0,-4.666 0,-6.7399 0,-2.4193 0,-4.1475 0,-5.1845 0,-1.3824 0,-4.1475 0,-8.2953 0,-4.4931 0,-8.9863 0,-13.4797 0.3457,-4.8388 0.5185,-9.332 0.5185,-13.4798 0,-4.4931 0,-7.6038 0,-9.3321 0,-1.728 -0.1728,-4.8387 -0.5185,-9.3322 0,-4.8387 0,-9.8504 0,-15.0351 0,-5.5299 -0.1728,-10.5416 -0.5184,-15.0351 0,-4.8387 0,-8.295 0,-10.3691 0,-8.9862 0.1728,-18.1455 0.5184,-27.4779 0.3457,-9.3319 0.5185,-18.4912 0.5185,-27.478 0,-1.3823 0,-3.9745 0,-7.7768 0,-3.8017 -0.1728,-7.7765 -0.5185,-11.9244 0,-4.1473 0,-7.9493 0,-11.4059 0,-3.8017 0,-6.5668 0,-8.2953 0,-6.2211 0.1728,-11.7512 0.5185,-16.5905 0.3456,-5.1841 1.2097,-9.5046 2.5923,-12.9613 1.7281,-3.456 4.3204,-6.0482 7.7767,-7.7768 3.802,-1.7278 8.9865,-2.5918 15.5536,-2.5922 1.3825,4e-4 3.4563,0.1732 6.2214,0.5184 2.7651,4e-4 5.8758,4e-4 9.3322,0 3.1106,0.346 6.0485,0.6917 8.8137,1.0369 3.1106,4e-4 5.1844,4e-4 6.2214,0 l 26.9595,0 c 1.3825,4e-4 4.1475,0.1732 8.2953,0.5185 4.1475,4e-4 8.4679,4e-4 12.9613,0 4.8387,4e-4 9.332,0.1732 13.4797,0.5184 4.1475,4e-4 7.0854,4e-4 8.8137,0 1.3824,4e-4 4.4931,-0.1724 9.3322,-0.5184 5.1843,-0.3453 8.6407,-0.5181 10.369,-0.5185 l 10.8875,0"
           id="path3044"
           style="font-variant:normal;font-stretch:normal;letter-spacing:-7.8599987px;fill:#000000;font-family:Block Berthold;-inkscape-font-specification:Block Berthold" />
      </g>
      <g
         id="g3186">
        <path
           d="m -5397.5757,1802.1135 46.4286,-26.4286 c 0,0 16.4285,42.1429 52.1428,42.8571 35.7143,0.7143 40,-27.8571 40,-37.1428 0,-9.2857 0,-154.2857 0,-154.2857 0,0 65,-0.7143 65.7143,0 0.7143,0.7142 0,137.8571 0,165.7143 0,27.8571 -25.7104,80 -92.1429,80 -80,0 -104.2857,-45.7143 -112.1428,-70.7143 z"
           id="path3170"
           style="fill:#000000;stroke:none" />
        <path
           d="m -5136.8614,1625.6849 0,241.4286 215.7143,0 0,-54.2857 -149.2857,0 0,-40 86.4285,0 0,-56.4286 -85.7143,0 0,-35.7143 142.8572,0 0,-56.4286 z"
           id="path3172"
           style="fill:#000000;stroke:none" />
        <path
           d="m -4611.8614,1648.542 -22.1429,47.1429 c 0,0 -40.7143,-22.8571 -78.5714,-22.8571 -37.8571,0 -45.1008,12.5323 -42.1429,23.5714 6.8428,25.5376 60.8227,3.7297 125,31.4286 38.6094,16.6638 49.6429,45.3571 46.0715,77.4999 -3.5715,32.1429 -36.0573,68.2143 -108.2143,68.2143 -87.8503,0 -138.2143,-41.7857 -138.2143,-41.7857 l 36.0714,-46.0714 c 0,0 45,34.6428 90.7143,35.3571 45.7143,0.7142 54.2857,-12.483 54.2857,-27.5 0,-20.4438 -31.4269,-27.9007 -69.2857,-29.2857 -58.5764,-2.1428 -100,-19.9376 -100,-72.1428 0,-24.2943 19.9716,-76.4286 121.0714,-71.4286 43.862,2.1692 85.3572,27.8571 85.3572,27.8571 z"
           id="path3174"
           style="fill:#000000;stroke:none" />
        <path
           d="m -4550.4328,1627.1135 0,159.2857 c 0,0 -0.7143,87.8571 119.2857,87.8571 120,0 108.5714,-97.1428 108.5714,-97.1428 l 0,-150 -65,0 0,155 c 0,0 3.5714,36.4285 -46.4286,36.4285 -50,0 -46.0714,-46.0714 -46.0714,-46.0714 l 0,-146.0714 z"
           id="path3176"
           style="fill:#000000;stroke:none" />
        <path
           d="m -4260.4328,1626.3992 0,240.7143 65,0 0,-240.7143 z"
           id="path3178"
           style="fill:#000000;stroke:none" />
        <path
           d="m -3951.8614,1648.542 -22.1429,47.1429 c 0,0 -40.7142,-22.8571 -78.5714,-22.8571 -37.8571,0 -45.1008,12.5323 -42.1428,23.5714 6.8427,25.5376 60.8226,3.7297 125,31.4286 38.6093,16.6638 49.6428,45.3571 46.0714,77.4999 -3.5714,32.1429 -36.0573,68.2143 -108.2143,68.2143 -87.8503,0 -138.2143,-41.7857 -138.2143,-41.7857 l 36.0714,-46.0714 c 0,0 45,34.6428 90.7143,35.3571 45.7143,0.7142 54.2857,-12.483 54.2857,-27.5 0,-20.4438 -31.4269,-27.9007 -69.2857,-29.2857 -58.5764,-2.1428 -100,-19.9376 -100,-72.1428 0,-24.2943 19.9716,-76.4286 121.0715,-71.4286 43.8619,2.1692 85.3571,27.8571 85.3571,27.8571 z"
           id="path3182"
           style="fill:#000000;stroke:none" />
      </g>
    </g>
    <g
       id="g3253">
      <path
         d="m -3601.9949,1399.0592 c 650.6572,0 1301.3144,0 1951.9716,0 0,396.2177 0,792.4354 0,1188.6531 -650.6572,0 -1301.3144,0 -1951.9716,0 0,-396.2177 0,-792.4354 0,-1188.6531 z"
         id="rect3184"
         style="fill:#000000;fill-opacity:1;stroke:none" />
      <g
         transform="translate(1207.9106,16.162441)"
         id="g3202"
         style="font-size:518.45233154px;font-style:normal;font-weight:normal;line-height:125%;letter-spacing:0px;word-spacing:0px;fill:#000000;fill-opacity:1;stroke:none;font-family:Sans">
        <path
           d="m -4597.8142,2091.044 c 0,-14.1708 0.6912,-26.6136 2.0738,-37.3285 1.7281,-10.7145 3.4563,-20.0466 5.1845,-27.9965 3.1107,-14.5164 7.6039,-28.1689 13.4798,-40.9577 5.8757,-13.1338 14.171,-24.1941 24.8857,-33.1809 1.7281,-1.3823 4.4932,-3.4561 8.2952,-6.2215 4.1476,-2.7647 8.2952,-5.5298 12.4429,-8.2952 4.1475,-2.7647 7.7767,-5.1842 10.8875,-7.2583 3.4562,-2.4191 5.53,-3.8017 6.2214,-4.1477 3.4563,-2.0734 7.9495,-3.8016 13.4798,-5.1845 5.53,-1.7278 11.233,-3.1103 17.1089,-4.1476 5.8757,-1.0365 11.7514,-1.9006 17.6274,-2.5923 6.2212,-0.6909 11.9242,-1.0365 17.1089,-1.0369 1.3824,4e-4 3.1105,4e-4 5.1845,0 2.4193,4e-4 4.8387,0.1732 7.2583,0.5185 2.765,3e-4 5.1844,0.1732 7.2584,0.5184 2.4192,0.346 4.1474,0.8645 5.1845,1.5554 4.1474,2.4198 6.5669,5.3577 7.2583,8.8137 0.6911,3.4567 1.0368,6.0489 1.0369,7.7768 -1e-4,1.3829 -0.173,2.7654 -0.5184,4.1476 -2e-4,1.3829 -2e-4,2.7654 0,4.1476 -0.3458,3.4567 -0.5187,6.913 -0.5185,10.369 -2e-4,3.1111 -2e-4,6.3946 0,9.8506 -2e-4,1.3829 -2e-4,3.9752 0,7.7768 -2e-4,3.8023 -2e-4,7.9499 0,12.4429 0.3455,4.1479 0.5183,8.2955 0.5185,12.4428 -2e-4,3.8023 -2e-4,6.5674 0,8.2953 -2e-4,5.876 -1.9012,10.3693 -5.703,13.4797 -3.4565,2.7654 -7.2585,4.1479 -11.4059,4.1477 -2.074,2e-4 -4.4935,-0.3454 -7.2584,-1.037 -1.7283,-0.3453 -3.4565,-0.691 -5.1845,-1.0369 -1.3827,-0.3453 -2.938,-0.5181 -4.6661,-0.5184 -1.037,3e-4 -2.938,0.3459 -5.7029,1.0369 -2.4196,0.6915 -5.1847,1.7284 -8.2953,3.1107 -2.7652,1.0372 -5.5303,2.2469 -8.2952,3.6292 -2.7652,1.0371 -4.839,2.074 -6.2214,3.1107 -4.8391,4.1479 -8.641,9.5052 -11.406,16.072 -2.7652,6.2217 -4.839,12.4431 -6.2214,18.6643 -1.037,6.5673 -1.9011,14.3441 -2.5923,23.3304 -0.6914,8.641 -1.037,15.2081 -1.0369,19.7011 -1e-4,2.074 -1e-4,5.5304 0,10.3691 0.3455,4.839 1.0368,10.3692 2.0738,16.5905 1.0368,5.8759 2.5922,11.9245 4.6661,18.1458 2.4193,5.8759 5.7028,11.2332 9.8506,16.072 2.0737,2.7652 4.8387,5.5303 8.2952,8.2953 3.8019,2.4195 7.6039,4.6661 11.406,6.7398 3.8018,1.7283 7.431,3.2837 10.8875,4.6661 3.4562,1.037 6.3941,1.5555 8.8137,1.5554 1.0367,10e-5 3.2833,-0.3456 6.7398,-1.0369 3.4562,-0.6912 5.8757,-1.0368 7.2584,-1.0369 0.6911,1e-4 1.3823,0.1729 2.0738,0.5184 1.0367,1e-4 2.4192,0.5186 4.1476,1.5554 3.8018,2.4195 5.8756,5.0118 6.2214,7.7767 0.6911,2.4196 1.0367,5.5303 1.0369,9.3322 -2e-4,1.037 -0.173,2.7651 -0.5184,5.1845 -2e-4,2.0739 -2e-4,4.4933 0,7.2583 -2e-4,2.7652 -0.173,5.3574 -0.5185,7.7768 -2e-4,2.4195 -2e-4,4.1477 0,5.1846 -2e-4,4.4933 -2e-4,8.8137 0,12.9613 -2e-4,4.1476 0.1727,8.468 0.5185,12.9613 -2e-4,1.7282 -2e-4,3.2835 0,4.666 0.3454,1.3826 0.5182,2.938 0.5184,4.6661 -2e-4,14.5167 -6.74,21.775 -20.2196,21.775 -3.1109,0 -6.2216,-0.1728 -9.3321,-0.5184 -2.7653,0 -5.7032,-0.1729 -8.8137,-0.5185 -5.876,0 -10.542,-0.1728 -13.9983,-0.5184 -3.1108,0 -5.7031,0 -7.7767,0 -2.074,0 -3.8021,-0.1729 -5.1846,-0.5185 -1.3826,0 -2.7652,-0.1728 -4.1476,-0.5185 -2.4195,-0.6912 -4.839,-1.3825 -7.2583,-2.0738 -2.0739,-0.6912 -4.3206,-1.3825 -6.7399,-2.0738 -3.4564,-1.0369 -6.2215,-1.7281 -8.2952,-2.0738 -2.0739,-0.6912 -3.9749,-1.2097 -5.703,-1.5553 -1.3826,-0.6913 -2.7652,-1.3826 -4.1476,-2.0738 -1.3826,-1.0369 -3.1108,-2.0738 -5.1845,-3.1108 -8.641,-5.1845 -15.5537,-10.5418 -20.7381,-16.072 -5.1846,-5.5301 -10.3691,-11.5787 -15.5536,-18.1458 -2.4195,-3.1107 -4.4933,-5.5301 -6.2214,-7.2583 -1.3826,-2.0738 -2.5923,-3.802 -3.6292,-5.1846 -1.0369,-1.7281 -2.0738,-3.2834 -3.1107,-4.666 -0.6913,-1.7282 -1.5554,-3.6291 -2.5923,-5.703 -4.1476,-9.3321 -7.4312,-16.936 -9.8506,-22.8119 -2.4194,-6.2213 -4.3204,-11.9243 -5.703,-17.1089 -1.3825,-5.5301 -2.4194,-11.2331 -3.1107,-17.109 -0.3456,-6.2213 -0.6912,-13.998 -1.0369,-23.3303 -0.6912,-4.4931 -1.2097,-8.8136 -1.5553,-12.9613 0,-4.4931 -0.1728,-8.8136 -0.5185,-12.9613 -0.3456,-2.7649 -0.5184,-5.53 -0.5184,-8.2953 0,-3.1105 0,-6.0484 0,-8.8137"
           id="path3204"
           style="font-variant:normal;font-stretch:normal;letter-spacing:-7.8599987px;fill:#808080;font-family:Block Berthold;-inkscape-font-specification:Block Berthold" />
        <path
           d="m -4385.093,2210.8065 c 0,-1.0368 0,-2.9378 0,-5.703 0.3456,-2.765 0.5184,-5.7029 0.5184,-8.8136 0,-3.4563 0,-6.567 0,-9.3322 0.3457,-3.1106 0.5185,-5.1844 0.5185,-6.2214 0,-2.0737 -0.1728,-5.8757 -0.5185,-11.406 0,-5.8756 -0.1728,-12.0971 -0.5184,-18.6643 -0.3457,-6.5669 -0.6913,-12.7883 -1.0369,-18.6642 0,-5.8757 0,-10.0233 0,-12.4429 0,-1.728 0,-4.8387 0,-9.3321 0.3456,-4.8387 0.6912,-9.8504 1.0369,-15.0352 0.3456,-5.5299 0.5184,-10.5416 0.5184,-15.0351 0.3457,-4.8387 0.5185,-8.295 0.5185,-10.369 0,-2.4192 -0.1728,-5.7028 -0.5185,-9.8506 0,-4.1474 -0.1728,-8.1222 -0.5184,-11.9244 -0.6913,-10.0232 -1.0369,-19.5281 -1.0369,-28.5149 0,-9.3319 0,-15.0348 0,-17.1089 0,-1.3823 0,-3.6289 0,-6.7399 0.3456,-3.4561 0.5184,-6.9124 0.5184,-10.369 0,-3.8017 0,-7.2581 0,-10.3691 0.3457,-3.456 0.5185,-5.8755 0.5185,-7.2583 0,-1.0366 -0.1728,-3.1104 -0.5185,-6.2215 0,-3.1103 -0.1728,-6.3939 -0.5184,-9.8505 0,-3.8017 -0.1728,-7.258 -0.5185,-10.3691 0,-3.1104 0,-5.357 0,-6.7399 0,-0.6909 0,-1.9006 0,-3.6291 0.3457,-2.0735 1.0369,-3.9745 2.0738,-5.703 1.3826,-2.0735 3.1107,-3.8016 5.1846,-5.1845 2.4194,-1.3822 5.7029,-2.0735 9.8506,-2.0739 1.0368,4e-4 2.9378,4e-4 5.7029,0 2.7651,4e-4 5.703,0.1732 8.8137,0.5185 3.1107,4e-4 6.0486,0.1732 8.8137,0.5185 2.765,3e-4 4.666,3e-4 5.703,0 2.765,3e-4 5.3573,3e-4 7.7768,0 2.4193,3e-4 5.0116,-0.1725 7.7768,-0.5185 5.1844,-0.6909 8.4679,-1.0365 9.8506,-1.0369 1.728,4e-4 3.1106,4e-4 4.1476,0 8.2951,4e-4 13.4796,2.0742 15.5535,6.2214 2.0737,4.148 3.1106,8.1228 3.1108,11.9244 -2e-4,1.0373 -0.173,2.9383 -0.5185,5.703 -0.3457,2.7654 -0.6914,5.7033 -1.0369,8.8137 -1e-4,2.7654 -0.1729,5.5305 -0.5184,8.2952 -0.3458,2.7654 -0.5186,4.6664 -0.5185,5.703 -1e-4,1.0372 -1e-4,3.111 0,6.2214 0.3455,3.1111 0.5183,6.5674 0.5185,10.3691 -2e-4,3.4566 -2e-4,6.7402 0,9.8506 0.3455,3.111 0.5183,5.3576 0.5184,6.7399 -1e-4,1.3828 -1e-4,3.8022 0,7.2583 -1e-4,3.4566 -0.1729,7.0858 -0.5184,10.8875 -2e-4,3.8022 -2e-4,7.6042 0,11.4059 -2e-4,3.4566 -2e-4,5.8761 0,7.2584 -2e-4,8.9867 2.4193,14.5169 7.2583,16.5904 4.8388,1.7285 10.8874,2.5925 18.1458,2.5923 4.4931,2e-4 8.8136,-0.691 12.9613,-2.0738 4.4931,-1.3823 7.2582,-5.5299 8.2953,-12.4429 0.6911,-2.7648 1.2095,-7.0852 1.5553,-12.9613 0.3455,-6.2211 0.5183,-10.7144 0.5185,-13.4797 -2e-4,-1.0367 -0.173,-2.9376 -0.5185,-5.703 -1e-4,-3.1104 -0.173,-6.2211 -0.5184,-9.3321 -2e-4,-3.4561 -0.173,-6.7396 -0.5185,-9.8506 -1e-4,-3.1105 -1e-4,-5.3571 0,-6.7399 -1e-4,-3.4561 -1e-4,-6.7396 0,-9.8506 0.3455,-3.456 0.5183,-6.9124 0.5185,-10.3691 l 0,-3.6291 c -2e-4,-0.691 -0.173,-2.0735 -0.5185,-4.1476 -1e-4,-2.0735 -0.173,-4.3201 -0.5184,-6.7399 -2e-4,-2.4191 -0.173,-4.6658 -0.5185,-6.7399 -1e-4,-2.0735 -1e-4,-3.6288 0,-4.6661 -1e-4,-3.8016 1.2096,-7.6036 3.6292,-11.4059 2.4193,-3.8016 7.431,-5.7026 15.0351,-5.703 3.8018,4e-4 6.5669,0.1732 8.2952,0.5184 3.8018,0.346 7.6038,0.6917 11.406,1.037 3.8018,3e-4 7.6037,3e-4 11.4059,0 1.0367,3e-4 2.5921,3e-4 4.6661,0 2.4192,-0.3453 5.0115,-0.691 7.7768,-1.037 2.7648,4e-4 5.3571,4e-4 7.7768,0 2.4192,-0.3452 3.9745,-0.518 4.666,-0.5184 7.6038,4e-4 12.7883,1.7285 15.5536,5.1845 2.7648,3.4567 4.1474,5.3577 4.1476,5.703 0.6911,1.0373 1.0367,2.4198 1.0369,4.1476 -2e-4,1.7285 -2e-4,4.6664 0,8.8137 -2e-4,2.7654 -0.173,5.7033 -0.5184,8.8137 -3e-4,2.7654 -0.1731,5.7033 -0.5185,8.8137 -2e-4,2.0741 -0.173,4.8392 -0.5184,8.2952 -3e-4,3.4567 -3e-4,7.0858 0,10.8875 -3e-4,3.4567 -0.1731,6.7402 -0.5185,9.8506 -2e-4,3.111 -2e-4,5.3576 0,6.7399 -2e-4,1.0372 -2e-4,3.2838 0,6.7399 0.3454,3.4566 0.5182,5.876 0.5185,7.2583 -3e-4,1.0372 -0.1731,2.7654 -0.5185,5.1845 -2e-4,2.4197 -0.173,5.1848 -0.5184,8.2953 -3e-4,2.7653 -0.1731,5.5304 -0.5185,8.2952 -2e-4,2.4197 -2e-4,4.1479 0,5.1845 -2e-4,1.7284 -2e-4,4.6663 0,8.8137 0.3454,4.1479 0.5182,8.6411 0.5185,13.4798 -3e-4,4.8391 -3e-4,9.5052 0,13.9982 0.3454,4.1478 0.5182,7.0857 0.5184,8.8137 -2e-4,2.074 -0.173,5.7032 -0.5184,10.8875 -3e-4,4.8391 -3e-4,10.1964 0,16.072 -3e-4,5.876 -0.1731,11.4061 -0.5185,16.5905 -2e-4,5.1847 -2e-4,8.8138 0,10.8875 -2e-4,4.1477 -2e-4,8.2954 0,12.4428 -2e-4,4.1478 0.1726,8.1226 0.5185,11.9244 0.3454,5.1847 0.691,10.3692 1.0369,15.5536 0.3454,4.839 0.691,9.8507 1.0369,15.0351 l 0,9.3322 c -3e-4,1.037 -3e-4,3.1108 0,6.2214 -3e-4,3.1108 -0.1731,6.3943 -0.5185,9.8506 -2e-4,3.1108 -2e-4,6.2215 0,9.3321 -2e-4,3.1108 -2e-4,5.3574 0,6.7399 l 0,8.2952 c -2e-4,0.6914 0.1726,2.0739 0.5185,4.1477 0.3454,2.0738 0.5182,4.3204 0.5184,6.7398 0.3454,2.4195 0.5182,4.6661 0.5185,6.7399 0.3454,2.0739 0.5182,3.6292 0.5184,4.6661 -2e-4,4.4933 -1.2099,9.1593 -3.6291,13.9982 -2.0741,4.8389 -6.7401,7.2583 -13.9982,7.2583 -1.0372,0 -2.2469,0 -3.6292,0 -1.0371,-0.3456 -2.074,-0.5184 -3.1107,-0.5184 -2.7653,-0.3456 -5.5304,-0.5185 -8.2953,-0.5185 -2.7653,-0.3456 -5.5303,-0.5184 -8.2952,-0.5184 -1.3827,0 -3.975,0.1728 -7.7768,0.5184 -3.4565,0 -7.0857,0.1729 -10.8875,0.5185 -3.8021,0.3456 -7.4313,0.5184 -10.8875,0.5184 -3.4565,0.3457 -5.7031,0.5185 -6.7399,0.5185 -3.1108,0 -6.74,-1.0369 -10.8875,-3.1107 -4.1477,-2.4195 -6.2215,-7.604 -6.2214,-15.5536 -1e-4,-0.6912 -1e-4,-1.901 0,-3.6292 0.3455,-2.0737 0.5183,-4.1475 0.5185,-6.2214 0.3454,-2.4194 0.6911,-4.666 1.0369,-6.7399 0.3455,-2.0737 0.5183,-3.6291 0.5184,-4.666 -1e-4,-1.0369 -0.1729,-3.4563 -0.5184,-7.2584 -2e-4,-3.8019 -2e-4,-6.3942 0,-7.7768 -2e-4,-4.1475 -2e-4,-9.5048 0,-16.072 -2e-4,-6.567 0.1726,-11.7515 0.5184,-15.5535 -1e-4,-0.6912 -1e-4,-2.0738 0,-4.1477 0.3455,-2.0737 0.5183,-4.1475 0.5185,-6.2214 -2e-4,-2.4193 -2e-4,-4.4931 0,-6.2214 0.3455,-2.0737 0.5183,-3.6291 0.5184,-4.6661 -1e-4,-6.2213 -0.6914,-12.2699 -2.0738,-18.1458 -1.3827,-5.8757 -5.0118,-9.8505 -10.8875,-11.9244 -1.7283,-0.6912 -4.6662,-1.0368 -8.8137,-1.0369 -4.1477,1e-4 -7.0856,1e-4 -8.8137,0 -3.1108,1e-4 -6.74,1.037 -10.8875,3.1107 -4.1477,1.7283 -6.5671,6.2215 -7.2583,13.4797 -0.6914,6.9129 -1.2098,12.2702 -1.5553,16.0721 -0.3458,3.4564 -0.5186,7.2584 -0.5185,11.4059 -1e-4,1.037 -1e-4,3.1108 0,6.2214 0.3455,2.7652 0.5183,5.8759 0.5185,9.3322 -2e-4,3.4564 -2e-4,6.7399 0,9.8506 0.3455,2.7651 0.5183,4.6661 0.5184,5.703 -1e-4,1.0369 -0.1729,3.1107 -0.5184,6.2214 -2e-4,2.7651 -2e-4,5.8758 0,9.3321 -2e-4,3.4564 -0.173,6.7399 -0.5185,9.8506 -1e-4,2.7651 -1e-4,4.8389 0,6.2215 -1e-4,1.0369 0.1727,3.802 0.5185,8.2952 0.3455,4.1476 0.5183,7.0855 0.5184,8.8137 -1e-4,4.8389 -1.7283,8.6409 -5.1845,11.4059 -3.4565,2.7651 -6.9128,4.1476 -10.3691,4.1476 -2.4195,0 -4.3205,-0.1728 -5.7029,-0.5184 -3.4565,-0.6913 -6.9128,-1.0369 -10.3691,-1.0369 -3.1108,0 -6.5671,0 -10.369,0 l -7.7768,0 c -0.6913,0 -2.2467,0.1728 -4.6661,0.5184 -2.4195,0 -5.0117,0 -7.7768,0 -2.7651,0.3457 -5.3574,0.5185 -7.7768,0.5185 -2.4194,0.3456 -4.1476,0.5184 -5.1845,0.5184 -4.8389,0 -8.6409,-0.864 -11.4059,-2.5922 -2.7651,-1.7282 -4.8389,-3.6292 -6.2215,-5.703 -1.0369,-2.4194 -1.7282,-4.8389 -2.0738,-7.2583 0,-2.4194 0,-4.3204 0,-5.703 0,-1.3825 0.1728,-3.802 0.5185,-7.2583 0.3456,-3.4563 0.5184,-7.0855 0.5184,-10.8875 0.3457,-4.1476 0.6913,-7.9496 1.0369,-11.406 0.3457,-3.8019 0.5185,-6.567 0.5185,-8.2952 l 0,-14.5167"
           id="path3206"
           style="font-variant:normal;font-stretch:normal;letter-spacing:-7.8599987px;fill:#808080;font-family:Block Berthold;-inkscape-font-specification:Block Berthold" />
        <path
           d="m -4117.9343,2128.891 c 1.0369,-7.9494 2.2466,-15.7262 3.6292,-23.3303 1.7281,-7.6038 3.1106,-15.2077 4.1476,-22.8119 0.6912,-4.8387 1.2097,-9.3319 1.5553,-13.4798 0.6913,-4.493 1.3825,-9.1591 2.0738,-13.9982 1.0369,-6.5668 2.2466,-12.961 3.6292,-19.1827 1.7281,-6.5668 3.2835,-13.3067 4.6661,-20.2197 2.0737,-10.0231 3.6291,-20.2193 4.6661,-30.5886 1.0368,-10.3688 2.5922,-20.565 4.666,-30.5887 2.0738,-8.9862 3.9748,-16.0717 5.703,-21.2566 2.0737,-5.1841 4.3204,-8.9861 6.7399,-11.4059 2.765,-2.7647 5.8757,-4.4929 9.3321,-5.1846 3.4563,-0.6909 7.9495,-1.0365 13.4798,-1.0369 2.765,4e-4 5.53,0.1732 8.2952,0.5185 3.1106,4e-4 6.0485,0.1732 8.8137,0.5184 5.1844,0.346 10.3689,0.6917 15.5536,1.0369 5.1844,4e-4 10.3689,4e-4 15.5535,0 6.567,4e-4 12.9612,4e-4 19.1828,0 6.5669,-0.3452 13.1339,-0.6909 19.7012,-1.0369 10.0232,4e-4 16.7631,1.5558 20.2196,4.6661 3.8018,3.1111 6.5669,9.5053 8.2952,19.1828 0.3455,1.7285 0.8639,4.4935 1.5554,8.2952 1.0367,3.8023 1.9008,7.9499 2.5923,12.4428 1.0367,4.148 1.9008,8.1228 2.5922,11.9244 0.6911,3.4567 1.0367,5.8761 1.0369,7.2584 0.3455,1.7285 0.6911,4.8392 1.0369,9.3321 0.6911,4.1479 1.3824,8.814 2.0738,13.9982 0.6911,4.8392 1.2096,9.5053 1.5554,13.9982 0.6911,4.4936 1.2095,7.6043 1.5554,9.3322 0.3454,3.111 1.2095,8.6411 2.5922,16.5905 1.728,7.9498 3.4561,16.5907 5.1845,25.9226 2.0736,8.9867 3.8018,17.6276 5.1846,25.9226 1.7279,7.9498 2.9376,13.6528 3.6291,17.1089 0.6911,3.4565 1.2095,6.3944 1.5554,8.8137 0.3454,2.4196 0.691,5.1847 1.0369,8.2953 0.3454,2.7652 0.691,6.0487 1.0369,9.8505 0.3454,3.8022 0.8639,8.9867 1.5554,15.5536 1.0366,11.0605 2.4192,21.9479 4.1476,32.6625 2.0735,10.7148 4.1473,21.6023 6.2214,32.6625 1.0367,4.1477 1.9007,8.4681 2.5923,12.9613 1.0366,4.1477 2.0735,8.2953 3.1107,12.4429 1.0366,5.1845 1.5551,10.369 1.5553,15.5535 -2e-4,5.8759 -1.5556,11.0604 -4.666,15.5536 -2.7654,4.1476 -6.5673,6.2214 -11.406,6.2214 -1.3828,0 -3.8022,0 -7.2583,0 -3.111,-0.3456 -6.5673,-0.5184 -10.3691,-0.5184 -3.4565,-0.3456 -6.9129,-0.5185 -10.369,-0.5185 -3.4566,-0.3456 -5.876,-0.5184 -7.2583,-0.5184 -1.0372,0 -2.7653,0.1728 -5.1846,0.5184 -2.4196,0 -5.1847,0.1729 -8.2952,0.5185 -2.7653,0 -5.5303,0.1728 -8.2952,0.5184 -2.4197,0 -4.1478,0 -5.1846,0 -4.1478,0 -7.4313,-0.6912 -9.8506,-2.0738 -2.0739,-1.3825 -3.8021,-3.1107 -5.1845,-5.1845 -1.037,-2.0738 -1.7283,-4.1476 -2.0738,-6.2214 -2e-4,-2.0738 -2e-4,-3.802 0,-5.1845 -2e-4,-3.802 -0.173,-7.604 -0.5184,-11.406 -0.3458,-3.8019 -0.8643,-7.6039 -1.5554,-11.4059 -0.6914,-5.8758 -1.5555,-10.1962 -2.5923,-12.9614 -0.6914,-3.1106 -2.4196,-5.3572 -5.1845,-6.7398 -1.3827,-0.6912 -12.443,-1.0369 -33.1809,-1.0369 -5.5303,0 -9.5051,0.3457 -11.9244,1.0369 -2.4196,0.6913 -4.3206,2.0738 -5.703,4.1476 -0.6914,1.0369 -1.3827,3.2836 -2.0738,6.7399 -0.3458,3.4564 -0.6914,7.2583 -1.0369,11.4059 -0.3458,4.1477 -0.6914,8.1225 -1.0369,11.9244 -0.3458,3.802 -0.5186,6.3943 -0.5185,7.7768 -0.3457,7.9496 -2.2467,13.1341 -5.703,15.5536 -3.4564,2.4194 -7.4312,3.6291 -11.9244,3.6291 -1.0369,0 -2.7651,0 -5.1845,0 -2.0739,-0.3456 -4.4933,-0.5184 -7.2583,-0.5184 -2.4195,-0.3456 -4.839,-0.5185 -7.2584,-0.5185 -2.4195,-0.3456 -4.1476,-0.5184 -5.1845,-0.5184 -1.0369,0 -3.1107,0 -6.2214,0 -2.7651,0 -5.8758,0.1728 -9.3321,0.5184 -3.4564,0 -6.74,0 -9.8506,0 -2.7651,0 -4.839,0 -6.2215,0 -2.0738,0 -4.1476,0 -6.2214,0 -2.0738,0 -4.1476,-0.3456 -6.2214,-1.0369 -3.4564,-1.0369 -5.8758,-2.9379 -7.2584,-5.7029 -1.0369,-3.1107 -1.5553,-5.5302 -1.5553,-7.2584 0,-0.6912 0.5184,-4.4932 1.5553,-11.4059 1.3826,-7.2583 2.7651,-15.2079 4.1477,-23.8488 1.3825,-8.6408 2.765,-16.5904 4.1476,-23.8488 1.3825,-7.2583 2.0738,-11.4059 2.0738,-12.4429 0.6912,-2.765 1.2097,-5.7029 1.5553,-8.8137 0.6913,-3.1106 1.3826,-6.2213 2.0739,-9.3321 0.3456,-1.7281 0.864,-4.8388 1.5553,-9.3322 0.6913,-4.8387 1.3825,-9.8504 2.0738,-15.0351 0.6913,-5.53 1.3825,-10.5417 2.0738,-15.0351 0.6913,-4.8387 1.2097,-8.2951 1.5554,-10.3691 m 89.6922,-37.847 c -0.6913,3.8022 -1.3826,7.6042 -2.0738,11.406 -0.6913,3.8021 -1.037,7.6041 -1.0369,11.4059 -10e-5,6.9129 1.0368,11.9246 3.1107,15.0351 2.4194,2.7653 6.567,4.1478 12.4429,4.1477 1.3824,10e-5 3.2834,10e-5 5.703,0 2.4193,-0.3455 4.6659,-1.0368 6.7399,-2.0738 2.0736,-1.0368 3.8018,-2.765 5.1845,-5.1846 1.728,-2.4192 2.5921,-5.8756 2.5922,-10.369 -10e-5,-4.1475 -0.1729,-8.2951 -0.5184,-12.4429 -0.3458,-3.8018 -0.6914,-7.9494 -1.0369,-12.4428 -0.3458,-4.8387 -0.8642,-9.6776 -1.5554,-14.5167 -0.6914,-4.1474 -1.3827,-8.295 -2.0738,-12.4428 -0.6914,-4.1474 -1.3827,-8.2951 -2.0738,-12.4429 -0.6914,-3.4561 -1.2099,-6.7396 -1.5553,-9.8506 -2e-4,-3.1105 -0.3458,-6.2212 -1.037,-9.3321 -0.6914,-4.1474 -1.7283,-6.7397 -3.1107,-7.7768 -1.3826,-1.3823 -2.4195,-2.0736 -3.1107,-2.0738 -1.7283,2e-4 -3.1108,1.7284 -4.1476,5.1845 -1.037,3.111 -1.7283,5.7032 -2.0738,7.7768 -0.6914,3.1109 -1.5555,6.7401 -2.5923,10.8875 -0.6914,4.1478 -1.3826,7.6042 -2.0738,10.369 -1.7283,5.876 -2.938,11.7518 -3.6291,17.6274 -0.3458,5.5304 -1.0371,11.2333 -2.0739,17.1089"
           id="path3208"
           style="font-variant:normal;font-stretch:normal;letter-spacing:-7.8599987px;fill:#808080;font-family:Block Berthold;-inkscape-font-specification:Block Berthold" />
        <path
           d="m -3808.5015,1916.3256 c 2.4194,4e-4 6.567,4e-4 12.4429,0 6.2213,-0.3453 12.7883,-0.5181 19.7011,-0.5185 7.2583,-0.3452 13.9981,-0.518 20.2197,-0.5184 6.2213,-0.3453 10.7145,-0.5181 13.4797,-0.5185 17.9729,4e-4 32.8352,2.0742 44.5869,6.2215 12.0971,4.1479 21.9476,9.5053 29.5518,16.072 7.9494,6.2218 14.1708,13.4801 18.6643,21.775 4.493,7.9499 8.295,15.8995 11.406,23.8488 1.7279,4.4935 3.1104,10.3693 4.1476,17.6274 1.0366,6.9129 1.7279,13.8256 2.0738,20.7381 0.691,6.5673 1.0366,12.6159 1.0369,18.1458 0.3454,5.5304 0.5182,8.9867 0.5185,10.369 -3e-4,11.7518 -1.0372,23.3306 -3.1108,34.7363 -2.074,11.0606 -6.2216,22.6393 -12.4428,34.7364 -1.0372,1.7283 -3.6294,5.8759 -7.7768,12.4428 -3.8022,6.2216 -9.1596,12.2702 -16.072,18.1458 -2.7653,2.4196 -4.8391,4.3206 -6.2215,5.703 -1.0371,1.3827 -1.5555,3.1109 -1.5553,5.1845 -2e-4,2.074 1.0367,5.5303 3.1107,10.3691 2.4192,4.4933 5.0115,9.3322 7.7768,14.5167 2.7648,5.1846 5.3571,10.0235 7.7768,14.5166 2.7648,4.4934 4.493,7.7769 5.1845,9.8506 1.0367,2.4195 1.9007,4.839 2.5923,7.2583 1.0366,2.0739 1.9007,4.1477 2.5922,6.2215 l 6.2214,12.4428 c 3.4561,6.9128 6.2212,12.4429 8.2953,16.5905 2.0735,3.802 3.6289,6.9127 4.6661,9.3321 1.0366,2.4195 1.7279,4.3205 2.0738,5.703 0.3453,1.3826 0.5182,2.5923 0.5184,3.6292 -2e-4,3.1107 -1.21,5.703 -3.6291,7.7768 -2.4198,2.0738 -5.5305,3.1107 -9.3322,3.1107 -1.0371,0 -2.9381,0 -5.703,0 -2.4197,-0.3456 -5.0119,-0.5185 -7.7768,-0.5185 -2.7653,0 -5.5303,0 -8.2952,0 -2.4197,-0.3456 -4.1478,-0.5184 -5.1845,-0.5184 -1.7284,0 -4.1478,0 -7.2583,0 -2.7653,0 -5.876,0.1728 -9.3322,0.5184 -3.1109,0 -6.2216,0.1729 -9.3321,0.5185 -3.1109,0 -5.3576,0 -6.7399,0 -1.7284,0 -3.4565,0.1728 -5.1845,0.5184 -1.3828,0 -2.9381,0 -4.6661,0 -4.8391,0 -8.2954,-0.6912 -10.369,-2.0738 -2.074,-1.3825 -3.975,-3.4563 -5.703,-6.2214 -0.3458,-0.6913 -1.0371,-2.0738 -2.0738,-4.1476 -1.0371,-2.4194 -2.074,-4.8389 -3.1107,-7.2584 -1.0371,-2.4194 -2.074,-4.666 -3.1108,-6.7398 -0.6914,-2.4194 -1.2098,-4.1476 -1.5553,-5.1846 -2.074,-4.4932 -4.4934,-8.8136 -7.2584,-12.9613 -2.4195,-4.4932 -4.6662,-9.1592 -6.7398,-13.9982 l -4.6661,-10.8875 c -2.7652,-6.2213 -5.5303,-11.9243 -8.2952,-17.1089 -2.7652,-5.5301 -5.5303,-8.2951 -8.2953,-8.2952 -3.8021,10e-5 -6.0487,1.5554 -6.7399,4.666 -0.3457,3.1108 -0.5185,5.5303 -0.5184,7.2584 -10e-5,1.037 -10e-5,2.9379 0,5.7029 0.3455,2.4196 0.5183,5.1846 0.5184,8.2953 -10e-5,3.1108 -10e-5,6.0487 0,8.8137 0.3456,2.7651 0.5184,4.6661 0.5185,5.7029 -1e-4,0.6914 -1e-4,2.0739 0,4.1477 -1e-4,2.0738 -0.1729,4.3204 -0.5185,6.7398 -10e-5,2.0739 -10e-5,4.1477 0,6.2215 -10e-5,1.7282 -10e-5,3.1107 0,4.1476 -10e-5,1.3826 0.1727,4.8389 0.5185,10.369 0.3455,5.1846 0.5183,8.6409 0.5184,10.3691 -10e-5,5.5301 -1.7282,9.1593 -5.1845,10.8875 -3.1108,1.3825 -5.5302,2.0738 -7.2583,2.0738 -1.037,0 -2.0739,0 -3.1107,0 -0.6914,-0.3456 -1.5555,-0.5185 -2.5923,-0.5185 -2.4195,-0.3456 -6.3943,-0.5184 -11.9244,-0.5184 -5.5302,-0.3456 -9.6778,-0.5185 -12.4428,-0.5185 -1.037,0 -3.2836,0.1729 -6.7399,0.5185 -3.4564,0 -7.2584,0.1728 -11.406,0.5184 -3.802,0.3457 -7.4312,0.6913 -10.8875,1.0369 -3.4564,0 -5.8758,0 -7.2583,0 -5.1846,0 -9.3322,-1.7281 -12.4429,-5.1845 -2.7651,-3.4563 -4.1476,-7.6039 -4.1476,-12.4428 0,-2.4195 0.1728,-4.1476 0.5185,-5.1846 0.6912,-13.134 1.2097,-23.6759 1.5553,-31.6256 0.3456,-7.9495 0.5185,-14.1709 0.5185,-18.6642 0,-2.4194 -0.1729,-6.9127 -0.5185,-13.4798 0,-6.9126 -0.1728,-14.1709 -0.5184,-21.775 -0.3457,-7.6038 -0.6913,-14.8622 -1.0369,-21.775 0,-6.9126 0,-11.7514 0,-14.5167 0,-2.4193 0,-6.9125 0,-13.4797 0.3456,-6.9126 0.5184,-14.1709 0.5184,-21.775 0.3456,-7.6038 0.5185,-14.6893 0.5185,-21.2566 0.3456,-6.9125 0.5184,-11.7513 0.5184,-14.5166 0,-1.728 -0.1728,-4.6659 -0.5184,-8.8137 0,-4.493 0,-9.1591 0,-13.9982 0,-4.8387 -0.1729,-9.5047 -0.5185,-13.9982 0,-4.493 0,-7.6037 0,-9.3322 0,-1.7279 0,-5.0114 0,-9.8506 0.3456,-4.8386 0.5185,-9.8503 0.5185,-15.0351 0,-5.5299 0,-10.5416 0,-15.0351 0.3456,-4.8386 0.5184,-8.2949 0.5184,-10.3691 0,-1.0366 -0.1728,-2.9375 -0.5184,-5.7029 0,-3.1104 0,-6.2211 0,-9.3322 0,-3.1104 -0.1729,-6.0483 -0.5185,-8.8137 0,-3.1103 0,-5.1841 0,-6.2214 0,-8.9862 2.5923,-15.3804 7.7768,-19.1827 5.1845,-4.1473 11.9244,-6.2211 20.2196,-6.2215 1.0369,4e-4 3.1107,4e-4 6.2215,0 3.4563,4e-4 6.9126,0.1732 10.369,0.5185 3.8019,4e-4 7.2583,4e-4 10.3691,0 3.4562,4e-4 5.8757,4e-4 7.2583,0 m 51.3268,85.0262 c -5.1847,3e-4 -9.1595,1.0372 -11.9244,3.1107 -2.7652,1.7284 -4.839,4.1479 -6.2214,7.2583 -1.0371,2.7654 -1.7283,5.7033 -2.0739,8.8137 -0.3457,2.7654 -0.5185,5.1848 -0.5184,7.2583 -10e-5,1.0372 -0.1729,3.2838 -0.5185,6.7399 -10e-5,3.4566 -10e-5,7.0858 0,10.8875 -10e-5,3.8022 -0.1729,7.4314 -0.5184,10.8875 -10e-5,3.4566 -10e-5,5.876 0,7.2584 -10e-5,5.5303 1.728,11.0605 5.1845,16.5904 3.8019,5.1848 9.332,7.777 16.5905,7.7768 7.6038,2e-4 13.3068,-1.728 17.1089,-5.1845 3.8018,-3.8018 6.3941,-8.4679 7.7768,-13.9982 0.3455,-1.0367 0.5183,-2.9377 0.5184,-5.703 0.3455,-3.1105 0.5183,-6.2212 0.5185,-9.3321 0.3455,-3.1105 0.5183,-6.0484 0.5185,-8.8137 0.3454,-2.7649 0.5182,-4.8387 0.5184,-6.2215 -2e-4,-9.6775 -2.2468,-18.3183 -6.7399,-25.9226 -4.4934,-7.6037 -11.2333,-11.4056 -20.2196,-11.4059"
           id="path3210"
           style="font-variant:normal;font-stretch:normal;letter-spacing:-7.8599987px;fill:#808080;font-family:Block Berthold;-inkscape-font-specification:Block Berthold" />
        <path
           d="m -3596.5661,1939.1375 c 0,-2.0735 0,-4.4929 0,-7.2583 0.3457,-2.7648 1.0369,-5.1842 2.0739,-7.2584 1.0368,-2.4191 2.765,-4.4929 5.1845,-6.2214 2.4194,-1.7278 5.8757,-2.5919 10.369,-2.5923 1.0369,4e-4 2.7651,0.1732 5.1845,0.5185 2.4194,4e-4 5.0117,0.1732 7.7768,0.5184 3.1107,4e-4 6.0486,0.1732 8.8137,0.5185 2.765,4e-4 4.666,4e-4 5.703,0 2.765,4e-4 5.1844,4e-4 7.2583,0 2.4194,-0.3453 4.8388,-0.5181 7.2584,-0.5185 2.765,-0.3452 5.1844,-0.518 7.2583,-0.5184 2.4193,4e-4 4.8388,4e-4 7.2583,0 2.0737,4e-4 4.3204,0.1732 6.7399,0.5184 2.4193,4e-4 4.666,0.5189 6.7399,1.5554 2.0737,0.6916 3.8019,2.0742 5.1845,4.1476 1.3824,2.0742 2.0737,5.0121 2.0738,8.8137 -1e-4,1.7285 -0.1729,3.2839 -0.5184,4.6661 -1e-4,1.0372 -1e-4,2.4198 0,4.1476 -0.3458,2.7654 -0.6914,6.2218 -1.0369,10.369 -0.3458,3.8024 -0.6914,7.95 -1.0369,12.4429 -2e-4,4.4936 -0.173,8.9868 -0.5185,13.4798 -10e-5,4.1479 -10e-5,7.9499 0,11.4059 -10e-5,1.3828 -10e-5,3.8023 0,7.2583 0.3455,3.111 0.5183,6.7402 0.5185,10.8875 -2e-4,3.8023 -2e-4,7.4315 0,10.8875 0.3455,3.4567 0.5183,5.8761 0.5184,7.2584 -10e-5,1.0371 -0.1729,2.9381 -0.5184,5.703 -2e-4,2.7653 -2e-4,5.876 0,9.3321 -2e-4,3.111 -0.173,6.2217 -0.5185,9.3321 -10e-5,2.7653 -10e-5,4.6663 0,5.703 -10e-5,1.0371 -10e-5,2.9381 0,5.703 0.3455,2.4197 0.5183,5.1847 0.5185,8.2952 0.3455,3.111 0.5183,6.0488 0.5184,8.8137 0.3455,2.7653 0.5183,4.6663 0.5185,5.703 -2e-4,1.0371 -0.173,2.5925 -0.5185,4.6661 -10e-5,1.7283 -10e-5,4.4934 0,8.2952 -0.3457,4.1478 -0.5186,8.8139 -0.5184,13.9982 -2e-4,4.8391 -2e-4,9.5051 0,13.9982 -2e-4,1.0371 -2e-4,2.7653 0,5.1845 0.3455,2.074 0.5183,4.4935 0.5184,7.2584 -10e-5,2.7652 -10e-5,5.3575 0,7.7768 0.3455,2.4195 0.5183,4.1477 0.5185,5.1845 -2e-4,0.6914 -0.173,2.938 -0.5185,6.7399 -10e-5,3.8021 -10e-5,6.2215 0,7.2583 -10e-5,6.9128 1.5553,13.3071 4.6661,19.1827 3.1106,5.8759 9.1592,9.3323 18.1458,10.3691 1.0368,1e-4 2.5921,0.1729 4.6661,0.5184 2.0736,1e-4 4.1475,1e-4 6.2214,0 2.4193,1e-4 4.6659,1e-4 6.7399,0 2.4193,1e-4 4.3203,1e-4 5.703,0 1.3823,1e-4 4.3202,-0.1727 8.8137,-0.5184 4.493,-0.3456 7.6037,-0.5184 9.3321,-0.5185 5.1843,1e-4 9.1591,0.8642 11.9244,2.5923 2.7649,1.3826 4.8387,3.9749 6.2214,7.7768 1.3824,3.4564 2.0736,8.2953 2.0738,14.5166 0.3455,5.8759 0.5183,13.307 0.5185,22.2935 -2e-4,1.0369 -0.173,2.9379 -0.5185,5.703 -2e-4,2.4195 -2e-4,5.1845 0,8.2952 -2e-4,3.1107 -0.173,6.0486 -0.5184,8.8137 -2e-4,2.7651 -2e-4,4.6661 0,5.703 -2e-4,4.1476 -0.8643,7.4311 -2.5923,9.8506 -1.7283,2.0738 -3.6293,3.4563 -5.703,4.1476 -1.037,0.6913 -2.2468,1.2097 -3.6291,1.5553 -1.0371,0 -2.9381,0 -5.703,0 -1.7283,0 -5.3575,-0.1728 -10.8875,-0.5184 -5.1847,-0.3456 -8.641,-0.5185 -10.369,-0.5185 -1.0371,0 -2.7653,0 -5.1846,0 -2.0739,0 -4.3205,0 -6.7398,0 -2.4196,0 -4.8391,0 -7.2584,0 -2.0739,0 -3.6293,0 -4.666,0 -2.4196,0 -6.7401,0 -12.9614,0 -6.2215,0 -12.7886,0 -19.7011,0 -6.9128,0 -13.6527,0 -20.2197,0 -6.2215,0 -10.5419,0 -12.9613,0 -1.037,0 -2.938,0.1729 -5.703,0.5185 -2.7651,0 -5.8758,0 -9.3321,0 -3.1108,0 -6.2215,0.1728 -9.3322,0.5184 -2.7651,0 -4.6661,0 -5.7029,0 -7.9497,0 -13.307,-1.9009 -16.072,-5.7029 -2.7651,-4.1476 -4.1477,-8.1224 -4.1477,-11.9244 0,-1.3826 0,-4.3205 0,-8.8137 0.3456,-4.8389 0.5185,-7.9496 0.5185,-9.3322 0,-6.567 0.1728,-13.134 0.5184,-19.7012 0.3457,-6.567 0.5185,-13.134 0.5185,-19.7011 0,-0.3456 -0.1728,-3.1107 -0.5185,-8.2953 0,-5.1844 -0.1728,-10.8874 -0.5184,-17.1089 0,-6.567 -0.1729,-12.9612 -0.5185,-19.1827 0,-6.2213 0,-10.369 0,-12.4429 0,-1.0368 0,-3.1106 0,-6.2214 0.3456,-3.1106 0.5185,-6.2213 0.5185,-9.3322 0.3456,-3.4562 0.6912,-6.7397 1.0369,-9.8506 0.3456,-3.1105 0.5184,-5.3571 0.5184,-6.7398 0.3457,-2.0737 0.5185,-3.9747 0.5185,-5.703 0,-2.0737 0,-4.1475 0,-6.2214 0,-1.0368 -0.1728,-3.1106 -0.5185,-6.2215 0,-3.4561 0,-6.9125 0,-10.369 0,-3.8018 -0.1728,-7.2582 -0.5184,-10.3691 0,-3.1105 0,-5.3571 0,-6.7399 0,-1.0366 0,-2.7648 0,-5.1845 0,-2.4192 0,-5.0115 0,-7.7768 0.3456,-3.1104 0.5184,-5.8755 0.5184,-8.2952 0,-2.4192 0,-4.1474 0,-5.1845 0,-4.8387 -0.1728,-9.5047 -0.5184,-13.9982 0,-4.8387 0,-9.6775 0,-14.5167 0,-1.3823 0,-3.8017 0,-7.2583 0.3456,-3.8017 0.5184,-7.7765 0.5184,-11.9244 0,-4.1474 0,-7.9493 0,-11.406 0.3457,-3.8017 0.5185,-6.5667 0.5185,-8.2952 0,-6.9124 -0.1728,-13.6523 -0.5185,-20.2197 0,-6.5667 0,-13.3066 0,-20.2196"
           id="path3212"
           style="font-variant:normal;font-stretch:normal;letter-spacing:-7.8599987px;fill:#808080;font-family:Block Berthold;-inkscape-font-specification:Block Berthold" />
        <path
           d="m -3306.077,2131.4833 c -10e-5,2.074 -10e-5,5.7031 0,10.8875 0.3455,4.839 0.6911,10.1964 1.0369,16.072 0.3455,5.5303 0.5183,11.0605 0.5184,16.5905 0.3456,5.1846 0.5184,8.8138 0.5185,10.8875 -10e-5,1.3826 -0.1729,3.9749 -0.5185,7.7768 -1e-4,3.8021 -0.1729,7.7769 -0.5184,11.9244 -10e-5,4.1477 -0.1729,8.1225 -0.5185,11.9244 -1e-4,3.802 -1e-4,6.3943 0,7.7768 -1e-4,1.7282 -1e-4,4.6661 0,8.8137 0.3456,3.802 0.6912,8.1224 1.0369,12.9613 0.3456,4.4933 0.5184,8.8137 0.5185,12.9613 0.3455,4.1476 0.5183,7.0855 0.5184,8.8137 -10e-5,3.1107 -1.2098,6.2214 -3.6291,9.3321 -2.0739,2.7651 -6.2216,4.1476 -12.4429,4.1476 -0.6913,0 -2.0739,0 -4.1476,0 -2.0739,-0.3456 -4.3205,-0.5184 -6.7399,-0.5184 -2.0739,0 -4.1477,0 -6.2214,0 -2.0739,-0.3456 -3.6292,-0.5185 -4.6661,-0.5185 -1.3826,0 -3.802,0.1729 -7.2583,0.5185 -3.1108,0 -6.5671,0.1728 -10.3691,0.5184 -3.802,0 -7.4312,0.1729 -10.8875,0.5185 -3.1107,0 -5.3573,0 -6.7398,0 l -3.1107,0 c -0.6914,0 -2.0739,0 -4.1477,0 -1.7282,-0.3456 -3.6292,-0.8641 -5.7029,-1.5554 -2.0739,-0.6912 -3.9749,-1.7281 -5.703,-3.1107 -1.7282,-1.7281 -2.9379,-3.9748 -3.6292,-6.7399 0,-0.3456 -0.1728,-2.0738 -0.5184,-5.1845 -10e-5,-3.4563 -10e-5,-7.0855 0,-10.8875 -10e-5,-3.8019 -10e-5,-7.4311 0,-10.8875 -10e-5,-3.4563 -10e-5,-5.7029 0,-6.7399 -10e-5,-1.0368 -10e-5,-3.1106 0,-6.2214 0.3456,-3.1106 0.5184,-6.3942 0.5184,-9.8506 0.3456,-3.4563 0.5185,-6.7398 0.5185,-9.8506 0.3456,-3.1106 0.5184,-5.3572 0.5184,-6.7399 l 0,-37.847 c 0,-2.0737 -0.1728,-5.53 -0.5184,-10.369 0,-5.1844 -0.1729,-10.5418 -0.5185,-16.072 0,-5.8757 -0.1728,-11.233 -0.5184,-16.0721 -10e-5,-5.1843 -10e-5,-8.8135 0,-10.8875 l 0,-64.8065 c -10e-5,-2.0736 -10e-5,-5.7027 0,-10.8875 0.3456,-5.1843 0.5184,-10.7144 0.5184,-16.5905 0.3456,-5.8755 0.5185,-11.4057 0.5185,-16.5905 0.3456,-5.5298 0.5184,-9.3318 0.5184,-11.4059 l 0,-35.2548 c 0,-1.0365 -0.1728,-2.5919 -0.5184,-4.666 0,-2.4192 -0.1729,-5.0114 -0.5185,-7.7768 0,-2.7648 -0.1728,-5.1842 -0.5184,-7.2584 -10e-5,-2.4191 -10e-5,-4.1472 0,-5.1845 -10e-5,-4.8385 1.0369,-8.2949 3.1107,-10.369 2.0738,-2.4191 3.8019,-3.9745 5.1845,-4.6661 1.7281,-0.6909 3.4563,-1.0365 5.1845,-1.0369 2.0738,-0.3453 5.5301,-0.5181 10.3691,-0.5185 1.0368,4e-4 3.1106,4e-4 6.2214,0 3.1107,4e-4 6.2214,0.1732 9.3321,0.5185 3.4563,4e-4 6.7399,4e-4 9.8506,0 3.1107,4e-4 5.3573,4e-4 6.7399,0 3.1107,4e-4 6.2214,4e-4 9.3322,0 3.1106,4e-4 6.2213,-0.1725 9.3321,-0.5185 0.6912,4e-4 2.0737,4e-4 4.1476,0 2.4194,-0.3452 3.9747,-0.518 4.6661,-0.5184 3.1106,4e-4 5.53,0.8644 7.2583,2.5923 1.7281,1.7285 2.9378,3.8023 3.6292,6.2214 0.6911,2.0741 1.0368,4.148 1.0369,6.2214 0.3455,2.0742 0.5183,3.4567 0.5184,4.1476 -10e-5,1.0373 -0.1729,2.9383 -0.5184,5.703 -10e-5,2.4198 -0.1729,5.1849 -0.5185,8.2952 -1e-4,3.1111 -0.1729,6.049 -0.5184,8.8137 -10e-5,2.7654 -10e-5,4.6664 0,5.703 -10e-5,3.111 -0.1729,6.0489 -0.5185,8.8137 -1e-4,2.7654 -1e-4,6.5674 0,11.4059 -1e-4,4.8392 -1e-4,11.2335 0,19.1828 -1e-4,7.9499 -1e-4,18.6645 0,32.144 -1e-4,1.3828 -1e-4,3.9751 0,7.7768 -1e-4,3.4566 -1e-4,7.2586 0,11.406 0.3456,4.1478 0.5184,8.1226 0.5185,11.9244 -10e-5,3.8022 -10e-5,6.3944 0,7.7768 -10e-5,1.0371 -0.1729,3.1109 -0.5185,6.2214 -1e-4,2.7653 -1e-4,5.876 0,9.3321 -1e-4,3.4566 -0.1729,6.7401 -0.5184,9.8506 -10e-5,2.7653 -10e-5,4.8391 0,6.2214 l 0,25.4042"
           id="path3214"
           style="font-variant:normal;font-stretch:normal;letter-spacing:-7.8599987px;fill:#808080;font-family:Block Berthold;-inkscape-font-specification:Block Berthold" />
        <path
           d="m -3106.8355,1916.844 c 1.3824,4e-4 4.1474,4e-4 8.2952,0 4.1475,-0.3452 6.9125,-0.518 8.2953,-0.5184 4.8387,4e-4 8.6406,1.5557 11.4059,4.6661 2.7649,2.7654 4.1474,6.5674 4.1476,11.4059 -2e-4,1.0373 -0.173,2.9383 -0.5184,5.703 -2e-4,2.4198 -0.173,5.1849 -0.5185,8.2952 -2e-4,3.1111 -0.173,6.049 -0.5184,8.8137 -2e-4,2.7654 -2e-4,4.6664 0,5.703 -2e-4,1.0372 -2e-4,3.8023 0,8.2952 0.3454,4.4936 0.5182,7.6043 0.5184,9.3322 -2e-4,3.8023 -1.0371,8.1227 -3.1107,12.9613 -1.7284,4.4935 -6.9129,7.0858 -15.5535,7.7768 -0.6915,0.3459 -2.2469,0.5187 -4.6661,0.5184 -2.074,-0.3453 -3.4565,-0.5182 -4.1476,-0.5184 -1.0371,2e-4 -3.6294,0.1731 -7.7768,0.5184 -4.1478,0.3459 -6.9129,0.5188 -8.2953,0.5185 -0.6914,3e-4 -2.0739,3e-4 -4.1476,0 -2.0739,-0.3454 -4.3206,-0.5182 -6.7399,-0.5185 -2.0739,-0.3453 -4.1477,-0.5182 -6.2214,-0.5184 -2.0739,-0.3454 -3.6293,-0.5182 -4.6661,-0.5185 -10.0235,3e-4 -16.9362,0.8644 -20.738,2.5923 -3.4565,1.7284 -6.0488,3.8022 -7.7768,6.2214 -1.037,1.7285 -1.7283,3.6294 -2.0738,5.703 -2e-4,1.7284 -2e-4,6.2217 0,13.4797 -2e-4,1.3828 -2e-4,3.4566 0,6.2215 0.3455,2.7653 1.0368,5.7032 2.0738,8.8137 1.3824,2.7653 3.2834,5.1847 5.7029,7.2583 2.4194,2.074 5.8757,3.1109 10.3691,3.1107 1.0368,2e-4 3.4562,-0.1726 7.2583,-0.5184 4.1475,-0.3455 6.9126,-0.5183 8.2953,-0.5185 0.6911,2e-4 2.0736,0.173 4.1476,0.5185 2.0736,2e-4 4.1474,2e-4 6.2214,0 2.4193,2e-4 4.4931,0.173 6.2214,0.5184 2.0737,2e-4 3.629,2e-4 4.6661,0 1.0367,2e-4 3.629,2e-4 7.7768,0 4.4931,-0.3454 7.431,-0.5182 8.8137,-0.5184 7.9494,2e-4 13.3067,1.7284 16.072,5.1845 2.7649,3.1109 4.1474,8.2954 4.1476,15.5535 -2e-4,0.6915 -0.173,2.0741 -0.5184,4.1477 -2e-4,2.074 -2e-4,4.3206 0,6.7398 -2e-4,2.0741 -0.1731,4.1479 -0.5185,6.2215 -2e-4,2.074 -2e-4,3.6293 0,4.666 -2e-4,0.6915 -2e-4,2.074 0,4.1477 0.3454,2.074 0.5183,4.3206 0.5185,6.7398 -2e-4,2.074 -2e-4,4.1478 0,6.2215 0.3454,2.0739 0.5182,3.6293 0.5184,4.666 -2e-4,4.1478 -0.5186,7.2585 -1.5553,9.3322 -2.7653,5.8759 -6.0488,9.3323 -9.8506,10.369 -3.4566,1.0371 -7.0857,1.5555 -10.8875,1.5554 -1.3827,1e-4 -4.1478,1e-4 -8.2953,0 -3.8021,-0.3455 -7.9497,-0.6911 -12.4428,-1.0369 -4.4934,-0.3455 -8.8139,-0.5183 -12.9613,-0.5185 -4.1478,-0.3455 -6.9129,-0.5183 -8.2953,-0.5184 -4.1477,10e-5 -8.641,0.5186 -13.4797,1.5553 -4.4934,0.6914 -8.1226,3.4565 -10.8875,8.2953 -1.3827,2.4196 -2.2468,5.7031 -2.5923,9.8506 -1e-4,4.1477 -1e-4,9.8507 0,17.1089 -1e-4,5.1846 0.5184,10.0235 1.5554,14.5167 1.0368,4.1477 4.8387,7.0856 11.4059,8.8136 2.765,0.6914 6.0485,1.2099 9.8506,1.5554 3.8019,10e-5 7.431,10e-5 10.8875,0 2.7649,0.3457 5.3572,0.6914 7.7768,1.0369 2.4193,0.3457 4.8387,0.6914 7.2583,1.0369 1.728,0.3457 3.4562,0.5185 5.1846,0.5185 2.0736,0 3.9746,0 5.7029,0 2.0737,0 4.1475,0 6.2215,0 2.0736,0 3.9746,-0.1728 5.7029,-0.5185 1.728,-0.3455 3.4562,-0.5184 5.1846,-0.5184 1.7279,-0.3456 3.4561,-0.5184 5.1845,-0.5185 3.4561,10e-5 7.4309,1.3826 11.9244,4.1476 4.8387,2.4196 7.2581,7.2584 7.2583,14.5167 -2e-4,1.7282 -2e-4,3.2836 0,4.6661 -2e-4,1.3826 -0.173,2.9379 -0.5184,4.666 -0.3459,2.7652 -0.5187,5.5302 -0.5185,8.2953 -2e-4,2.7651 -2e-4,5.0117 0,6.7399 -2e-4,0.6913 -2e-4,2.0738 0,4.1476 -2e-4,2.0738 -2e-4,4.3204 0,6.7399 0.3454,2.4194 0.5183,4.666 0.5185,6.7398 -2e-4,2.0739 -2e-4,3.6292 0,4.6661 -2e-4,8.6409 -2.4197,14.3439 -7.2584,17.1089 -4.4934,2.4195 -8.2954,3.6292 -11.4059,3.6292 -1.3828,0 -4.4935,-0.1728 -9.3322,-0.5185 -4.4934,-0.3456 -7.4313,-0.5184 -8.8137,-0.5184 -1.3827,0 -4.3206,0.1728 -8.8136,0.5184 -4.1478,0 -7.0857,0 -8.8137,0 -5.5303,0 -11.0605,-0.1728 -16.5905,-0.5184 -5.1847,-0.3456 -10.542,-0.5185 -16.072,-0.5185 -1.3827,0 -4.4934,0.1729 -9.3322,0.5185 -4.4933,0 -7.604,0 -9.3321,0 -1.3827,0 -4.3206,0 -8.8137,0 -4.4933,-0.3456 -7.4312,-0.5185 -8.8137,-0.5185 -1.037,0 -3.1108,0 -6.2214,0 -3.1108,0 -6.3943,0.1729 -9.8506,0.5185 -3.4564,0 -6.74,0 -9.8506,0 -3.1108,0 -5.1846,0 -6.2214,0 -1.7283,0 -5.0118,0.1728 -9.8506,0.5184 -4.839,0 -8.1225,0 -9.8506,0 -6.2215,0 -11.406,-1.9009 -15.5536,-5.7029 -3.802,-4.1476 -5.703,-8.9865 -5.703,-14.5167 0,-1.0369 0,-2.0738 0,-3.1107 0.3456,-1.0369 0.5185,-2.0738 0.5185,-3.1107 0.6912,-5.5302 1.0369,-11.2331 1.0369,-17.109 0,-5.8757 0,-11.0602 0,-15.5535 0,-1.0369 0,-3.1107 0,-6.2215 0,-3.1106 -0.1728,-6.3941 -0.5185,-9.8505 0,-3.4563 0,-6.7398 0,-9.8506 0,-3.1107 0,-5.1845 0,-6.2215 0,-1.0368 0,-2.5921 0,-4.666 0.3457,-2.4194 0.5185,-4.8388 0.5185,-7.2584 0.3456,-2.7649 0.5184,-5.1844 0.5184,-7.2583 0.3457,-2.4193 0.5185,-4.1475 0.5185,-5.1845 0,-1.0368 0,-2.5922 0,-4.6661 0,-2.4193 -0.1728,-4.8388 -0.5185,-7.2583 0,-2.4193 0,-4.666 0,-6.7399 0,-2.4193 0,-4.1475 0,-5.1845 0,-1.3824 0,-4.1475 0,-8.2953 0,-4.4931 0,-8.9863 0,-13.4797 0.3457,-4.8388 0.5185,-9.332 0.5185,-13.4798 0,-4.4931 0,-7.6038 0,-9.3321 0,-1.728 -0.1728,-4.8387 -0.5185,-9.3322 0,-4.8387 0,-9.8504 0,-15.0351 0,-5.5299 -0.1728,-10.5416 -0.5184,-15.0351 0,-4.8387 0,-8.295 0,-10.3691 0,-8.9862 0.1728,-18.1455 0.5184,-27.4779 0.3457,-9.3319 0.5185,-18.4912 0.5185,-27.478 0,-1.3823 0,-3.9745 0,-7.7768 0,-3.8017 -0.1728,-7.7765 -0.5185,-11.9244 0,-4.1473 0,-7.9493 0,-11.4059 0,-3.8017 0,-6.5668 0,-8.2953 0,-6.2211 0.1728,-11.7512 0.5185,-16.5905 0.3456,-5.1841 1.2097,-9.5046 2.5923,-12.9613 1.7281,-3.456 4.3204,-6.0482 7.7767,-7.7768 3.802,-1.7278 8.9865,-2.5918 15.5536,-2.5922 1.3825,4e-4 3.4563,0.1732 6.2214,0.5184 2.7651,4e-4 5.8758,4e-4 9.3322,0 3.1106,0.346 6.0485,0.6917 8.8137,1.0369 3.1106,4e-4 5.1844,4e-4 6.2214,0 l 26.9595,0 c 1.3825,4e-4 4.1475,0.1732 8.2953,0.5185 4.1475,4e-4 8.4679,4e-4 12.9613,0 4.8387,4e-4 9.332,0.1732 13.4797,0.5184 4.1475,4e-4 7.0854,4e-4 8.8137,0 1.3824,4e-4 4.4931,-0.1724 9.3322,-0.5184 5.1843,-0.3453 8.6407,-0.5181 10.369,-0.5185 l 10.8875,0"
           id="path3216"
           style="font-variant:normal;font-stretch:normal;letter-spacing:-7.8599987px;fill:#808080;font-family:Block Berthold;-inkscape-font-specification:Block Berthold" />
      </g>
      <g
         transform="translate(2034.2857,0)"
         id="g3218"
         style="fill:#ffffff">
        <path
           d="m -5397.5757,1802.1135 46.4286,-26.4286 c 0,0 16.4285,42.1429 52.1428,42.8571 35.7143,0.7143 40,-27.8571 40,-37.1428 0,-9.2857 0,-154.2857 0,-154.2857 0,0 65,-0.7143 65.7143,0 0.7143,0.7142 0,137.8571 0,165.7143 0,27.8571 -25.7104,80 -92.1429,80 -80,0 -104.2857,-45.7143 -112.1428,-70.7143 z"
           id="path3220"
           style="fill:#ffffff;stroke:none" />
        <path
           d="m -5136.8614,1625.6849 0,241.4286 215.7143,0 0,-54.2857 -149.2857,0 0,-40 86.4285,0 0,-56.4286 -85.7143,0 0,-35.7143 142.8572,0 0,-56.4286 z"
           id="path3222"
           style="fill:#ffffff;stroke:none" />
        <path
           d="m -4611.8614,1648.542 -22.1429,47.1429 c 0,0 -40.7143,-22.8571 -78.5714,-22.8571 -37.8571,0 -45.1008,12.5323 -42.1429,23.5714 6.8428,25.5376 60.8227,3.7297 125,31.4286 38.6094,16.6638 49.6429,45.3571 46.0715,77.4999 -3.5715,32.1429 -36.0573,68.2143 -108.2143,68.2143 -87.8503,0 -138.2143,-41.7857 -138.2143,-41.7857 l 36.0714,-46.0714 c 0,0 45,34.6428 90.7143,35.3571 45.7143,0.7142 54.2857,-12.483 54.2857,-27.5 0,-20.4438 -31.4269,-27.9007 -69.2857,-29.2857 -58.5764,-2.1428 -100,-19.9376 -100,-72.1428 0,-24.2943 19.9716,-76.4286 121.0714,-71.4286 43.862,2.1692 85.3572,27.8571 85.3572,27.8571 z"
           id="path3224"
           style="fill:#ffffff;stroke:none" />
        <path
           d="m -4550.4328,1627.1135 0,159.2857 c 0,0 -0.7143,87.8571 119.2857,87.8571 120,0 108.5714,-97.1428 108.5714,-97.1428 l 0,-150 -65,0 0,155 c 0,0 3.5714,36.4285 -46.4286,36.4285 -50,0 -46.0714,-46.0714 -46.0714,-46.0714 l 0,-146.0714 z"
           id="path3226"
           style="fill:#ffffff;stroke:none" />
        <path
           d="m -4260.4328,1626.3992 0,240.7143 65,0 0,-240.7143 z"
           id="path3228"
           style="fill:#ffffff;stroke:none" />
        <path
           d="m -3951.8614,1648.542 -22.1429,47.1429 c 0,0 -40.7142,-22.8571 -78.5714,-22.8571 -37.8571,0 -45.1008,12.5323 -42.1428,23.5714 6.8427,25.5376 60.8226,3.7297 125,31.4286 38.6093,16.6638 49.6428,45.3571 46.0714,77.4999 -3.5714,32.1429 -36.0573,68.2143 -108.2143,68.2143 -87.8503,0 -138.2143,-41.7857 -138.2143,-41.7857 l 36.0714,-46.0714 c 0,0 45,34.6428 90.7143,35.3571 45.7143,0.7142 54.2857,-12.483 54.2857,-27.5 0,-20.4438 -31.4269,-27.9007 -69.2857,-29.2857 -58.5764,-2.1428 -100,-19.9376 -100,-72.1428 0,-24.2943 19.9716,-76.4286 121.0715,-71.4286 43.8619,2.1692 85.3571,27.8571 85.3571,27.8571 z"
           id="path3230"
           style="fill:#ffffff;stroke:none" />
      </g>
    </g>
  </g>
</svg>
